<svg xmlns="http://www.w3.org/2000/svg" xmlns:xlink="http://www.w3.org/1999/xlink" version="1.1" width="296.19" height="291.2" viewBox="0 0 296.19 291.2" overflow="visible" enable-background="new 0 0 296.185 291.198" xml:space="preserve">
  <g id="balloons">
    <path fill-rule="evenodd" clip-rule="evenodd" d="M253.29 191.91c0 7.57-0.14 14.53 0.05 21.48 0.13 4.73-0.85 8.66-5.71 10.5 -4.86 1.84-8.2-0.45-11.21-4.11 -6.67-8.1-13.59-15.99-20.21-24.12 -2.17-2.67-4.42-3.86-7.98-3.83 -18.82 0.19-37.65 0.13-56.47 0.08 -17.37-0.04-31.2-13.27-31.51-30.75 -0.34-19.32-0.34-38.65-0.01-57.97 0.29-17.03 13.29-29.91 30.85-30.93 0 4.24 0 8.46 0 12.77 -14.45 4.92-17.56 9.33-17.55 25.02 0.01 15.83-0.02 31.65 0.01 47.48 0.02 13.82 7.47 21.18 21.37 21.18 19.66 0.01 39.32 0.11 58.98-0.08 4-0.04 6.75 0.92 9.29 4.22 4.95 6.45 10.43 12.49 16.56 19.71 0-8.46 0-15.77 0-23.85 7.52 0 14.48-0.46 21.35 0.1 13.47 1.09 22.87-8.38 22.28-22.41 -0.72-16.96-0.15-33.98-0.18-50.97 -0.02-12.26-7.34-19.61-19.5-19.61 -23.16 0-46.31 0-69.47 0 -1.8 0-3.61 0-5.72 0 0-4.59 0-8.83 0-13.75 1.83 0 3.6 0 5.37 0 22.99 0 45.98 0 68.97 0 18.92 0 32.28 10.96 33.31 29.7 0.06 21.47 0.04 45.6 0 62.39 -0.93 16.64-14.7 27.74-31.49 27.78C261.17 191.92 257.68 191.91 253.29 191.91zM43.19 119.92c-4.45 0-8.1 0.02-11.75 0C14.2 119.8 0.25 106.14 0.12 88.95c-0.15-19.32-0.16-38.65 0-57.97C0.26 14.06 14.22 0.13 31.07 0.08 69.22-0.02 107.37-0.03 145.52 0.06c15.88 0.04 30.07 12.63 30.62 28.49 0.73 20.96 0.74 41.98 0 62.94 -0.56 16.09-16.16 29.64-30.7 27.93 0-4.08 0-8.18 0-12.26 14.59-4.9 17.75-9.33 17.75-24.77 0-15.99 0.04-31.98-0.01-47.98 -0.05-13.44-7.32-20.8-20.6-20.82 -36.32-0.04-72.63-0.04-108.95-0.01 -12.62 0.01-20.26 7.56-20.32 20.15 -0.08 17.49-0.1 34.98 0.01 52.48 0.08 12.81 7.88 20.44 20.68 20.49 7.45 0.03 14.91 0.01 22.89 0.01 0 7.76 0 14.99 0 22.23 0.35 0.15 0.7 0.3 1.06 0.45 5.31-6.26 10.76-12.4 15.85-18.83 2.29-2.9 4.71-4.07 8.44-3.94 8.46 0.29 16.93 0.09 25.73 0.09 0 4.46 0 8.51 0 13.22 -6.85 0-13.64-0.23-20.39 0.14 -2.14 0.12-4.77 1.32-6.19 2.91 -7.31 8.2-14.37 16.63-21.38 25.09 -2.93 3.54-6.19 5.55-10.83 3.79 -4.57-1.73-5.99-5.41-5.98-9.93C43.2 134.78 43.19 127.65 43.19 119.92z"/>
    <path d="M150.3 128.81v23.68h-4.17v-18.85l-4.06 1.23 -1.02-2.6 6.42-3.45H150.3zM173.4 131.67c0.78 1.03 1.4 2.34 1.86 3.95 0.46 1.61 0.69 3.41 0.69 5.4 0 2.07-0.23 3.86-0.69 5.39 -0.46 1.53-1.07 2.8-1.83 3.8 -0.76 1.01-1.64 1.76-2.64 2.25 -1 0.5-2.04 0.74-3.12 0.74 -1.13 0-2.19-0.3-3.18-0.9 -1-0.6-1.86-1.44-2.61-2.53 -0.74-1.09-1.33-2.39-1.76-3.92 -0.43-1.52-0.65-3.2-0.65-5.05 0-1.84 0.22-3.53 0.67-5.07 0.45-1.53 1.04-2.85 1.79-3.95 0.75-1.1 1.62-1.96 2.61-2.57 0.99-0.61 2.03-0.92 3.14-0.92 0.63 0 1.21 0.07 1.74 0.21 0.53 0.14 1.03 0.36 1.49 0.64 0.46 0.28 0.9 0.63 1.3 1.05C172.61 130.62 173.01 131.11 173.4 131.67zM170.64 134.35c-0.31-0.73-0.72-1.3-1.23-1.73 -0.51-0.42-1.08-0.63-1.71-0.63 -0.56 0-1.09 0.2-1.59 0.6 -0.5 0.4-0.94 0.97-1.33 1.7 -0.38 0.73-0.69 1.61-0.92 2.63 -0.23 1.02-0.34 2.16-0.34 3.41 0 0.22 0.01 0.47 0.02 0.74 0.01 0.27 0.03 0.55 0.05 0.83 0.02 0.28 0.04 0.55 0.06 0.81 0.02 0.26 0.04 0.48 0.07 0.65L170.64 134.35zM164.78 147.05c0.31 0.73 0.72 1.31 1.23 1.73 0.51 0.42 1.08 0.63 1.71 0.63 0.56 0 1.09-0.2 1.59-0.6 0.5-0.4 0.94-0.96 1.33-1.69 0.38-0.72 0.69-1.6 0.92-2.62 0.23-1.02 0.34-2.15 0.34-3.4 0-0.22-0.01-0.47-0.02-0.75 -0.01-0.28-0.03-0.56-0.05-0.83 -0.02-0.28-0.04-0.54-0.06-0.8 -0.02-0.25-0.04-0.47-0.06-0.66L164.78 147.05zM193.39 131.67c0.78 1.03 1.4 2.34 1.86 3.95 0.46 1.61 0.69 3.41 0.69 5.4 0 2.07-0.23 3.86-0.69 5.39 -0.46 1.53-1.07 2.8-1.83 3.8 -0.76 1.01-1.64 1.76-2.64 2.25 -1 0.5-2.04 0.74-3.12 0.74 -1.13 0-2.19-0.3-3.18-0.9 -1-0.6-1.86-1.44-2.61-2.53 -0.74-1.09-1.33-2.39-1.76-3.92 -0.43-1.52-0.65-3.2-0.65-5.05 0-1.84 0.22-3.53 0.67-5.07 0.45-1.53 1.04-2.85 1.79-3.95 0.75-1.1 1.62-1.96 2.61-2.57 0.99-0.61 2.03-0.92 3.14-0.92 0.63 0 1.21 0.07 1.74 0.21 0.53 0.14 1.03 0.36 1.49 0.64 0.46 0.28 0.9 0.63 1.3 1.05C192.6 130.62 193 131.11 193.39 131.67zM190.63 134.35c-0.31-0.73-0.72-1.3-1.23-1.73 -0.51-0.42-1.08-0.63-1.71-0.63 -0.56 0-1.09 0.2-1.59 0.6 -0.5 0.4-0.94 0.97-1.33 1.7 -0.38 0.73-0.69 1.61-0.92 2.63 -0.23 1.02-0.34 2.16-0.34 3.41 0 0.22 0.01 0.47 0.02 0.74 0.01 0.27 0.03 0.55 0.05 0.83 0.02 0.28 0.04 0.55 0.06 0.81 0.02 0.26 0.04 0.48 0.07 0.65L190.63 134.35zM184.76 147.05c0.31 0.73 0.72 1.31 1.23 1.73 0.51 0.42 1.08 0.63 1.71 0.63 0.56 0 1.09-0.2 1.59-0.6 0.5-0.4 0.94-0.96 1.33-1.69 0.38-0.72 0.69-1.6 0.92-2.62 0.23-1.02 0.34-2.15 0.34-3.4 0-0.22-0.01-0.47-0.02-0.75 -0.01-0.28-0.03-0.56-0.05-0.83 -0.02-0.28-0.04-0.54-0.06-0.8 -0.02-0.25-0.04-0.47-0.06-0.66L184.76 147.05zM210.26 128.81v23.68h-4.17v-18.85l-4.06 1.23 -1.02-2.6 6.42-3.45H210.26zM233.37 131.67c0.78 1.03 1.4 2.34 1.86 3.95 0.46 1.61 0.69 3.41 0.69 5.4 0 2.07-0.23 3.86-0.69 5.39 -0.46 1.53-1.07 2.8-1.83 3.8 -0.76 1.01-1.64 1.76-2.64 2.25 -1 0.5-2.04 0.74-3.12 0.74 -1.13 0-2.19-0.3-3.18-0.9 -1-0.6-1.86-1.44-2.61-2.53 -0.74-1.09-1.33-2.39-1.76-3.92 -0.43-1.52-0.65-3.2-0.65-5.05 0-1.84 0.22-3.53 0.67-5.07 0.45-1.53 1.04-2.85 1.79-3.95 0.75-1.1 1.62-1.96 2.61-2.57 0.99-0.61 2.03-0.92 3.14-0.92 0.63 0 1.21 0.07 1.74 0.21 0.53 0.14 1.03 0.36 1.49 0.64 0.46 0.28 0.9 0.63 1.3 1.05C232.57 130.62 232.97 131.11 233.37 131.67zM230.6 134.35c-0.31-0.73-0.72-1.3-1.23-1.73 -0.51-0.42-1.08-0.63-1.71-0.63 -0.56 0-1.09 0.2-1.59 0.6 -0.5 0.4-0.94 0.97-1.33 1.7 -0.38 0.73-0.69 1.61-0.92 2.63 -0.23 1.02-0.34 2.16-0.34 3.41 0 0.22 0.01 0.47 0.02 0.74 0.01 0.27 0.03 0.55 0.05 0.83 0.02 0.28 0.04 0.55 0.06 0.81 0.02 0.26 0.04 0.48 0.07 0.65L230.6 134.35zM224.74 147.05c0.31 0.73 0.72 1.31 1.23 1.73 0.51 0.42 1.08 0.63 1.71 0.63 0.56 0 1.09-0.2 1.59-0.6 0.5-0.4 0.94-0.96 1.33-1.69 0.38-0.72 0.69-1.6 0.92-2.62 0.23-1.02 0.34-2.15 0.34-3.4 0-0.22-0.01-0.47-0.02-0.75 -0.01-0.28-0.03-0.56-0.05-0.83 -0.02-0.28-0.04-0.54-0.06-0.8 -0.02-0.25-0.04-0.47-0.06-0.66L224.74 147.05zM253.36 131.67c0.78 1.03 1.4 2.34 1.86 3.95 0.46 1.61 0.69 3.41 0.69 5.4 0 2.07-0.23 3.86-0.69 5.39 -0.46 1.53-1.07 2.8-1.83 3.8 -0.76 1.01-1.64 1.76-2.64 2.25 -1 0.5-2.04 0.74-3.12 0.74 -1.13 0-2.19-0.3-3.18-0.9 -1-0.6-1.86-1.44-2.61-2.53 -0.74-1.09-1.33-2.39-1.76-3.92 -0.43-1.52-0.65-3.2-0.65-5.05 0-1.84 0.22-3.53 0.67-5.07 0.45-1.53 1.04-2.85 1.79-3.95 0.75-1.1 1.62-1.96 2.61-2.57 0.99-0.61 2.03-0.92 3.14-0.92 0.63 0 1.21 0.07 1.74 0.21 0.53 0.14 1.03 0.36 1.49 0.64 0.46 0.28 0.9 0.63 1.3 1.05C252.56 130.62 252.96 131.11 253.36 131.67zM250.59 134.35c-0.31-0.73-0.72-1.3-1.23-1.73 -0.51-0.42-1.08-0.63-1.71-0.63 -0.56 0-1.09 0.2-1.59 0.6 -0.5 0.4-0.94 0.97-1.33 1.7 -0.38 0.73-0.69 1.61-0.92 2.63 -0.23 1.02-0.34 2.16-0.34 3.41 0 0.22 0.01 0.47 0.02 0.74 0.01 0.27 0.03 0.55 0.05 0.83 0.02 0.28 0.04 0.55 0.06 0.81 0.02 0.26 0.04 0.48 0.07 0.65L250.59 134.35zM244.73 147.05c0.31 0.73 0.72 1.31 1.23 1.73 0.51 0.42 1.08 0.63 1.71 0.63 0.56 0 1.09-0.2 1.59-0.6 0.5-0.4 0.94-0.96 1.33-1.69 0.38-0.72 0.69-1.6 0.92-2.62 0.23-1.02 0.34-2.15 0.34-3.4 0-0.22-0.01-0.47-0.02-0.75 -0.01-0.28-0.03-0.56-0.05-0.83 -0.02-0.28-0.04-0.54-0.06-0.8 -0.02-0.25-0.04-0.47-0.06-0.66L244.73 147.05zM270.23 128.81v23.68h-4.17v-18.85l-4.06 1.23 -1.02-2.6 6.42-3.45H270.23z"/>
    <path d="M78.49 38.81v-8.01h7.34v8.01H78.49zM85.87 85.42V43.93h7.03v41.48H85.87zM93.06 38.81v-8.01h7.34v8.01H93.06z"/>
  </g>
  <g id="label">
    <path fill="#195084" d="M13.69 221.69h19.18v48.21h10.49v7.13H13.17v-7.13h10.49v-41.08h-9.97V221.69zM54.85 244.15c3.95-4.16 8.78-6.25 14.49-6.25 2.43 0 4.6 0.31 6.53 0.92 1.92 0.61 3.55 1.57 4.89 2.86 1.33 1.3 2.36 2.94 3.08 4.92 0.72 1.99 1.08 4.36 1.08 7.11v23.3H76.15v-3.44c-1.44 1.36-3.16 2.44-5.14 3.24 -1.99 0.8-3.98 1.2-5.99 1.2 -2.24 0-4.18-0.3-5.83-0.9 -1.64-0.6-3-1.41-4.06-2.42 -1.07-1.01-1.86-2.2-2.38-3.56s-0.78-2.79-0.78-4.28c0-1.97 0.42-3.78 1.26-5.43 0.84-1.64 2.08-3.06 3.7-4.24 1.63-1.19 3.64-2.12 6.03-2.78 2.39-0.67 5.15-1 8.27-1h4.85c-0.05-2.91-0.64-5.02-1.76-6.33 -1.12-1.31-2.88-1.96-5.28-1.96 -3.12 0-6.3 1.7-9.53 5.09L54.85 244.15zM72.95 260.29c-2.4-0.05-4.38 0.09-5.93 0.42 -1.55 0.33-2.76 0.8-3.64 1.38s-1.49 1.26-1.82 2.02c-0.33 0.76-0.5 1.52-0.5 2.26 0 0.64 0.15 1.24 0.44 1.8 0.29 0.56 0.69 1.05 1.2 1.46 0.51 0.41 1.1 0.75 1.78 1 0.68 0.26 1.41 0.38 2.18 0.38 1.25 0 2.38-0.22 3.38-0.66 1-0.44 1.88-0.97 2.62-1.58 0.75-0.61 1.38-1.25 1.88-1.92 0.51-0.67 0.88-1.24 1.12-1.72 0.21-0.4 0.37-0.99 0.48-1.78 0.11-0.79 0.16-1.78 0.16-2.98L72.95 260.29zM94.61 277.02v-38.28h9.25v3.92c1.33-1.44 2.88-2.6 4.64-3.46s3.55-1.3 5.37-1.3c1.92 0 3.67 0.29 5.25 0.88 1.58 0.59 2.92 1.52 4.02 2.78 1.11 1.27 1.96 2.91 2.56 4.93s0.9 4.45 0.9 7.31v23.22h-9.05v-23.14c0-1.47-0.13-2.74-0.4-3.8 -0.27-1.07-0.64-1.94-1.12-2.62 -0.48-0.68-1.05-1.18-1.72-1.5 -0.67-0.32-1.41-0.48-2.24-0.48 -1.15 0-2.22 0.23-3.22 0.68s-1.87 1.1-2.6 1.92c-0.73 0.83-1.31 1.82-1.74 2.98 -0.43 1.16-0.64 2.44-0.64 3.82v22.14H94.61zM149.86 237.59c3.34 0 6.18 0.9 8.53 2.68 1.2-0.8 2.5-1.41 3.88-1.82 1.39-0.41 2.91-0.62 4.56-0.62h2.64l1.2 7.81c-0.51-0.08-1.01-0.15-1.5-0.2 -0.49-0.05-0.94-0.11-1.32-0.16s-0.71-0.09-0.98-0.12c-0.27-0.03-0.41-0.04-0.44-0.04 -1.15 0-2.32 0.23-3.52 0.68 0.37 0.85 0.69 1.73 0.94 2.62s0.38 1.8 0.38 2.7c0 1.82-0.38 3.52-1.14 5.13 -0.76 1.6-1.8 3-3.1 4.2 -1.31 1.2-2.84 2.15-4.58 2.84 -1.75 0.69-3.62 1.04-5.63 1.04 -0.53 0-1.08-0.03-1.64-0.08 -0.56-0.05-1.13-0.17-1.72-0.36 -0.75 0.51-1.34 1-1.78 1.48s-0.66 1.03-0.66 1.64c0 0.75 0.39 1.25 1.16 1.5 0.77 0.25 1.78 0.38 3 0.38 0.93 0 1.91-0.04 2.92-0.12s1.94-0.12 2.76-0.12c2.7 0 4.98 0.25 6.87 0.76 1.88 0.51 3.4 1.22 4.56 2.14 1.16 0.92 2 2.01 2.52 3.26 0.52 1.25 0.78 2.64 0.78 4.16 0 1.57-0.37 3.09-1.1 4.54s-1.83 2.76-3.3 3.9c-1.47 1.15-3.31 2.06-5.52 2.74 -2.22 0.68-4.8 1.02-7.77 1.02 -3.1 0-5.75-0.26-7.97-0.78 -2.22-0.52-4.03-1.23-5.44-2.12 -1.41-0.9-2.46-1.94-3.12-3.12 -0.67-1.19-1-2.45-1-3.78 0-0.67 0.12-1.35 0.36-2.06 0.24-0.71 0.58-1.4 1.02-2.06s0.97-1.29 1.58-1.88c0.61-0.59 1.28-1.11 2-1.56 -0.93-0.67-1.57-1.46-1.92-2.38 -0.35-0.92-0.52-1.85-0.52-2.78 0-1.28 0.44-2.57 1.32-3.88 0.88-1.31 2-2.52 3.36-3.64 -0.83-0.51-1.56-1.13-2.2-1.88 -0.64-0.75-1.19-1.55-1.64-2.4 -0.45-0.85-0.8-1.75-1.04-2.68s-0.36-1.87-0.36-2.8c0-1.92 0.41-3.72 1.22-5.4 0.81-1.68 1.9-3.14 3.26-4.38 1.36-1.24 2.92-2.21 4.67-2.92C146.19 237.94 147.99 237.59 149.86 237.59zM155.35 276.22c-1.98 0-3.8-0.01-5.48-0.04 -1.68-0.03-3.43-0.11-5.24-0.24 -0.99 0.59-1.71 1.27-2.18 2.06 -0.47 0.79-0.7 1.53-0.7 2.22 0 0.77 0.25 1.42 0.74 1.94 0.49 0.52 1.17 0.95 2.02 1.28 0.85 0.33 1.84 0.57 2.96 0.72s2.31 0.22 3.56 0.22c1.31 0 2.51-0.11 3.6-0.34 1.09-0.23 2.04-0.55 2.84-0.96 0.8-0.41 1.43-0.91 1.88-1.48 0.45-0.57 0.71-1.22 0.76-1.94 -0.08-1.01-0.48-1.84-1.2-2.48S157 276.22 155.35 276.22zM149.7 244.63c-0.83 0-1.59 0.15-2.3 0.44 -0.71 0.29-1.33 0.72-1.86 1.26 -0.53 0.55-0.95 1.22-1.26 2 -0.31 0.79-0.46 1.69-0.46 2.7 0 0.85 0.14 1.66 0.42 2.4s0.67 1.4 1.18 1.96c0.51 0.56 1.12 1.01 1.84 1.34s1.54 0.5 2.44 0.5c0.94 0 1.77-0.17 2.52-0.5 0.75-0.33 1.38-0.78 1.9-1.34 0.52-0.56 0.91-1.22 1.18-1.96s0.4-1.55 0.4-2.4 -0.13-1.67-0.4-2.44c-0.27-0.77-0.66-1.45-1.18-2.04 -0.52-0.59-1.15-1.05-1.9-1.4C151.48 244.81 150.64 244.63 149.7 244.63zM176.93 247h30.75v7.49h-30.75V247zM248.84 238.75v33.67c0 0.69 0.07 1.43 0.22 2.2 0.15 0.77 0.33 1.58 0.54 2.4h-8.89c-0.32-0.24-0.53-0.6-0.64-1.08 -0.11-0.48-0.16-0.91-0.16-1.28v-1.24c-0.56 0.83-1.24 1.56-2.04 2.2s-1.67 1.19-2.6 1.64c-0.93 0.45-1.89 0.8-2.86 1.04s-1.91 0.36-2.82 0.36c-2 0-3.79-0.29-5.36-0.88 -1.57-0.59-2.91-1.52-4-2.8 -1.09-1.28-1.93-2.94-2.5-4.96 -0.57-2.03-0.86-4.47-0.86-7.33v-23.94h9.05v23.94c0 2.94 0.5 5.08 1.5 6.43 1 1.35 2.33 2.02 3.98 2.02 1.15 0 2.22-0.23 3.22-0.7 1-0.47 1.87-1.11 2.6-1.94 0.73-0.83 1.31-1.82 1.74-2.98 0.43-1.16 0.64-2.44 0.64-3.82v-22.94H248.84zM258.61 221.69h10.41c0 0.32-0.05 0.57-0.16 0.76 -0.11 0.19-0.23 0.35-0.36 0.48 -0.13 0.13-0.27 0.28-0.4 0.44 -0.13 0.16-0.21 0.36-0.24 0.6v28.87l14.69-14.53c1.95 0.45 3.51 0.68 4.68 0.68h5.97l-15.65 15.1c1.36 1.63 2.79 3.45 4.28 5.47 1.49 2.02 3 4.05 4.51 6.11 1.51 2.06 2.99 4.06 4.44 6.03 1.46 1.96 2.81 3.72 4.06 5.27l-11.21 0.4 -12.65-17.62 -3.12 2.96v14.33h-9.25V221.69z"/>
  </g>
</svg>
