<?xml version="1.0" encoding="utf-8"?>
<!-- Generator: Adobe Illustrator 16.0.2, SVG Export Plug-In . SVG Version: 6.00 Build 0)  -->
<!DOCTYPE svg PUBLIC "-//W3C//DTD SVG 1.1//EN" "http://www.w3.org/Graphics/SVG/1.1/DTD/svg11.dtd">
<svg version="1.1" id="Layer_1" xmlns="http://www.w3.org/2000/svg" xmlns:xlink="http://www.w3.org/1999/xlink" x="0px" y="0px"
	 width="140px" height="140px" viewBox="78.095 75.6 140 140" enable-background="new 78.095 75.6 140 140" xml:space="preserve">
<g id="icon">
	<path d="M149.141,137.656v11.192h-1.972v-8.909l-1.919,0.581l-0.482-1.229l3.035-1.63h1.338V137.656z M160.059,139.007
		c0.369,0.487,0.662,1.106,0.879,1.867c0.218,0.761,0.326,1.612,0.326,2.552c0,0.979-0.108,1.825-0.326,2.548
		c-0.217,0.723-0.506,1.322-0.864,1.795c-0.359,0.479-0.775,0.833-1.248,1.064c-0.473,0.236-0.964,0.35-1.475,0.35
		c-0.534,0-1.035-0.142-1.503-0.426c-0.473-0.283-0.88-0.681-1.234-1.195c-0.35-0.516-0.628-1.13-0.831-1.853
		c-0.204-0.718-0.308-1.513-0.308-2.387c0-0.87,0.104-1.668,0.316-2.396c0.213-0.723,0.491-1.347,0.846-1.867
		s0.767-0.926,1.234-1.215c0.468-0.288,0.959-0.435,1.483-0.435c0.298,0,0.572,0.033,0.823,0.099c0.25,0.066,0.486,0.17,0.704,0.303
		c0.218,0.132,0.425,0.297,0.614,0.496C159.685,138.511,159.874,138.743,160.059,139.007z M158.754,140.274
		c-0.146-0.345-0.34-0.615-0.581-0.818c-0.241-0.198-0.511-0.297-0.809-0.297c-0.265,0-0.516,0.094-0.752,0.283
		c-0.236,0.189-0.443,0.458-0.628,0.804c-0.18,0.345-0.326,0.761-0.436,1.243c-0.108,0.482-0.16,1.021-0.16,1.612
		c0,0.104,0.005,0.222,0.01,0.35c0.005,0.127,0.014,0.26,0.023,0.392c0.009,0.133,0.019,0.26,0.028,0.383
		c0.01,0.123,0.019,0.227,0.033,0.307L158.754,140.274z M155.985,146.277c0.146,0.345,0.341,0.619,0.581,0.818
		c0.241,0.198,0.511,0.298,0.809,0.298c0.265,0,0.515-0.096,0.751-0.284s0.445-0.453,0.629-0.799c0.18-0.34,0.326-0.756,0.435-1.238
		c0.109-0.482,0.161-1.016,0.161-1.607c0-0.104-0.005-0.222-0.01-0.354c-0.004-0.132-0.014-0.265-0.023-0.393
		c-0.01-0.132-0.019-0.255-0.028-0.378c-0.009-0.118-0.019-0.222-0.028-0.312L155.985,146.277z M169.507,139.007
		c0.369,0.487,0.662,1.106,0.88,1.867c0.217,0.761,0.325,1.612,0.325,2.552c0,0.979-0.108,1.825-0.325,2.548
		c-0.218,0.723-0.506,1.322-0.865,1.795c-0.359,0.479-0.775,0.833-1.248,1.064c-0.473,0.236-0.964,0.35-1.475,0.35
		c-0.534,0-1.035-0.142-1.503-0.426c-0.473-0.283-0.879-0.681-1.233-1.195c-0.351-0.516-0.629-1.13-0.832-1.853
		c-0.203-0.718-0.308-1.513-0.308-2.387c0-0.87,0.104-1.668,0.316-2.396c0.213-0.723,0.492-1.347,0.847-1.867
		s0.766-0.926,1.233-1.215c0.468-0.288,0.959-0.435,1.484-0.435c0.298,0,0.572,0.033,0.822,0.099s0.486,0.17,0.704,0.303
		c0.218,0.132,0.426,0.297,0.615,0.496C169.134,138.511,169.323,138.743,169.507,139.007z M168.203,140.274
		c-0.147-0.345-0.341-0.615-0.582-0.818c-0.241-0.198-0.511-0.297-0.809-0.297c-0.264,0-0.515,0.094-0.751,0.283
		c-0.236,0.189-0.444,0.458-0.629,0.804c-0.18,0.345-0.326,0.761-0.435,1.243c-0.108,0.482-0.161,1.021-0.161,1.612
		c0,0.104,0.005,0.222,0.01,0.35c0.005,0.127,0.014,0.26,0.023,0.392c0.01,0.133,0.02,0.26,0.028,0.383
		c0.01,0.123,0.02,0.227,0.033,0.307L168.203,140.274z M165.428,146.277c0.146,0.345,0.341,0.619,0.582,0.818
		c0.241,0.198,0.51,0.298,0.809,0.298c0.264,0,0.515-0.096,0.751-0.284s0.444-0.453,0.629-0.799c0.18-0.34,0.326-0.756,0.435-1.238
		c0.108-0.482,0.161-1.016,0.161-1.607c0-0.104-0.005-0.222-0.01-0.354s-0.015-0.265-0.023-0.393
		c-0.01-0.132-0.02-0.255-0.028-0.378c-0.01-0.118-0.02-0.222-0.029-0.312L165.428,146.277z M177.482,137.656v11.192h-1.972v-8.909
		l-1.919,0.581l-0.482-1.229l3.035-1.63h1.338V137.656z M188.405,139.007c0.368,0.487,0.661,1.106,0.879,1.867
		s0.326,1.612,0.326,2.552c0,0.979-0.108,1.825-0.326,2.548c-0.218,0.723-0.505,1.322-0.865,1.795
		c-0.358,0.479-0.774,0.833-1.247,1.064c-0.473,0.236-0.965,0.35-1.475,0.35c-0.534,0-1.035-0.142-1.503-0.426
		c-0.473-0.283-0.88-0.681-1.234-1.195c-0.35-0.516-0.629-1.13-0.832-1.853c-0.203-0.718-0.307-1.513-0.307-2.387
		c0-0.87,0.104-1.668,0.316-2.396c0.213-0.723,0.491-1.347,0.846-1.867s0.766-0.926,1.234-1.215
		c0.468-0.288,0.959-0.435,1.483-0.435c0.299,0,0.572,0.033,0.823,0.099c0.25,0.066,0.486,0.17,0.704,0.303
		c0.217,0.132,0.426,0.297,0.614,0.496C188.027,138.511,188.215,138.743,188.405,139.007z M187.095,140.274
		c-0.146-0.345-0.34-0.615-0.581-0.818c-0.241-0.198-0.511-0.297-0.809-0.297c-0.265,0-0.516,0.094-0.752,0.283
		c-0.236,0.189-0.443,0.458-0.628,0.804c-0.18,0.345-0.326,0.761-0.436,1.243c-0.108,0.482-0.16,1.021-0.16,1.612
		c0,0.104,0.005,0.222,0.01,0.35c0.005,0.127,0.015,0.26,0.023,0.392c0.009,0.133,0.019,0.26,0.028,0.383
		c0.01,0.123,0.019,0.227,0.033,0.307L187.095,140.274z M184.325,146.277c0.146,0.345,0.341,0.619,0.581,0.818
		c0.241,0.198,0.511,0.298,0.809,0.298c0.265,0,0.515-0.096,0.751-0.284s0.445-0.453,0.629-0.799c0.18-0.34,0.326-0.756,0.435-1.238
		c0.109-0.482,0.161-1.016,0.161-1.607c0-0.104-0.005-0.222-0.01-0.354c-0.004-0.132-0.014-0.265-0.023-0.393
		c-0.01-0.132-0.019-0.255-0.028-0.378c-0.009-0.118-0.019-0.222-0.028-0.312L184.325,146.277z M197.853,139.007
		c0.369,0.487,0.662,1.106,0.879,1.867c0.218,0.761,0.327,1.612,0.327,2.552c0,0.979-0.109,1.825-0.327,2.548
		c-0.217,0.723-0.506,1.322-0.864,1.795c-0.359,0.479-0.775,0.833-1.248,1.064c-0.473,0.236-0.964,0.35-1.475,0.35
		c-0.534,0-1.035-0.142-1.503-0.426c-0.473-0.283-0.879-0.681-1.233-1.195c-0.351-0.516-0.629-1.13-0.832-1.853
		c-0.204-0.718-0.308-1.513-0.308-2.387c0-0.87,0.104-1.668,0.316-2.396c0.213-0.723,0.492-1.347,0.847-1.867
		s0.766-0.926,1.233-1.215c0.468-0.288,0.96-0.435,1.484-0.435c0.298,0,0.571,0.033,0.822,0.099s0.487,0.17,0.704,0.303
		c0.218,0.132,0.426,0.297,0.614,0.496C197.475,138.511,197.664,138.743,197.853,139.007z M196.544,140.274
		c-0.147-0.345-0.341-0.615-0.582-0.818c-0.241-0.198-0.511-0.297-0.809-0.297c-0.264,0-0.515,0.094-0.751,0.283
		c-0.236,0.189-0.444,0.458-0.629,0.804c-0.18,0.345-0.326,0.761-0.435,1.243c-0.108,0.482-0.161,1.021-0.161,1.612
		c0,0.104,0.005,0.222,0.01,0.35c0.005,0.127,0.015,0.26,0.023,0.392c0.01,0.133,0.02,0.26,0.028,0.383
		c0.01,0.123,0.02,0.227,0.033,0.307L196.544,140.274z M193.774,146.277c0.146,0.345,0.341,0.619,0.582,0.818
		c0.24,0.198,0.51,0.298,0.808,0.298c0.265,0,0.516-0.096,0.752-0.284s0.444-0.453,0.629-0.799c0.179-0.34,0.325-0.756,0.435-1.238
		c0.108-0.482,0.16-1.016,0.16-1.607c0-0.104-0.004-0.222-0.009-0.354s-0.015-0.265-0.024-0.393
		c-0.009-0.132-0.019-0.255-0.028-0.378c-0.009-0.118-0.019-0.222-0.027-0.312L193.774,146.277z M205.826,137.656v11.192h-1.971
		v-8.909l-1.919,0.581l-0.482-1.229l3.035-1.63h1.337V137.656z"/>
	<path d="M115.198,95.116V91.33h3.469v3.786H115.198z M118.687,117.147V97.536h3.323v19.606h-3.323V117.147z M122.085,95.116V91.33
		h3.469v3.786H122.085z"/>
	<path d="M145.025,75.6H95.165c-9.412,0-17.07,7.279-17.07,16.227v23.545c0,8.948,7.658,16.229,17.07,16.229h3.93v14
		c0,1.263,0.791,2.391,1.979,2.821c0.334,0.12,0.68,0.179,1.021,0.179c0.874,0,1.725-0.382,2.306-1.079l13.267-15.921h11.429v-6
		h-12.834c-0.891,0-1.734,0.396-2.305,1.079l-8.861,10.635V125.6c-2.125,0-9.93,0-9.93,0c-6.104,0-11.07-4.589-11.07-10.229V91.827
		c0-5.639,4.966-10.227,11.07-10.227h49.859c6.104,0,11.07,4.587,11.07,10.227v23.545c0,5.618-4.929,10.189-11,10.225v6
		c9.38-0.037,17-7.299,17-16.225V91.827C162.095,82.879,154.437,75.6,145.025,75.6z"/>
	<path d="M201.025,110.6h-33.93v6h33.93c6.104,0,11.07,4.587,11.07,10.227v23.545c0,5.64-4.966,10.229-11.07,10.229
		c0,0-7.805,0-9.93,0v11.714l-8.861-10.635c-0.57-0.684-1.414-1.079-2.305-1.079h-28.764c-6.104,0-11.07-4.589-11.07-10.229v-23.545
		c0-5.617,4.929-10.188,11-10.223v-6c-9.38,0.037-17,7.298-17,16.223v23.545c0,8.948,7.658,16.229,17.07,16.229h27.358
		l13.267,15.921c0.581,0.697,1.432,1.079,2.306,1.079c0.341,0,0.687-0.059,1.021-0.179c1.188-0.431,1.979-1.559,1.979-2.821v-14
		h3.93c9.412,0,17.07-7.28,17.07-16.229v-23.545C218.095,117.879,210.437,110.6,201.025,110.6z"/>
</g>
<path id="label" fill="#195084" d="M84.57,181.557h9.066v22.786h4.958v3.37h-14.27v-3.37h4.958v-19.417H84.57V181.557z
	 M104.025,192.172c1.867-1.966,4.15-2.954,6.849-2.954c1.148,0,2.174,0.146,3.086,0.435c0.908,0.289,1.678,0.743,2.311,1.353
	c0.629,0.614,1.116,1.39,1.456,2.325c0.34,0.94,0.51,2.061,0.51,3.36v11.014h-4.146v-1.626c-0.68,0.643-1.493,1.153-2.429,1.531
	c-0.94,0.378-1.881,0.567-2.831,0.567c-1.059,0-1.976-0.143-2.756-0.426c-0.775-0.283-1.418-0.666-1.919-1.144
	c-0.506-0.478-0.879-1.04-1.125-1.683c-0.246-0.643-0.369-1.318-0.369-2.023c0-0.931,0.199-1.786,0.596-2.566
	c0.397-0.775,0.983-1.446,1.749-2.004c0.77-0.563,1.72-1.002,2.85-1.314c1.129-0.316,2.434-0.473,3.909-0.473h2.292
	c-0.024-1.375-0.303-2.373-0.832-2.991c-0.529-0.619-1.361-0.927-2.496-0.927c-1.475,0-2.978,0.804-4.504,2.405L104.025,192.172z
	 M112.58,199.801c-1.135-0.023-2.071,0.042-2.803,0.198c-0.733,0.156-1.305,0.379-1.721,0.653c-0.416,0.273-0.704,0.595-0.86,0.954
	c-0.156,0.359-0.236,0.718-0.236,1.068c0,0.303,0.071,0.586,0.208,0.851c0.137,0.265,0.326,0.496,0.567,0.69
	c0.241,0.193,0.52,0.354,0.841,0.473c0.322,0.123,0.667,0.18,1.031,0.18c0.591,0,1.125-0.104,1.598-0.313
	c0.473-0.207,0.888-0.458,1.238-0.746c0.354-0.288,0.652-0.591,0.889-0.908c0.241-0.316,0.416-0.586,0.529-0.813
	c0.099-0.188,0.174-0.467,0.227-0.841c0.052-0.373,0.076-0.841,0.076-1.408L112.58,199.801z M122.818,207.709v-18.094h4.372v1.853
	c0.629-0.681,1.362-1.229,2.193-1.636c0.832-0.406,1.678-0.614,2.539-0.614c0.907,0,1.734,0.138,2.481,0.416
	c0.747,0.279,1.38,0.719,1.9,1.314c0.524,0.601,0.926,1.375,1.21,2.33s0.425,2.104,0.425,3.455v10.976h-4.277v-10.938
	c0-0.693-0.062-1.294-0.189-1.795c-0.127-0.506-0.302-0.917-0.529-1.239c-0.227-0.321-0.497-0.558-0.813-0.709
	c-0.316-0.15-0.667-0.227-1.059-0.227c-0.543,0-1.049,0.108-1.521,0.322c-0.473,0.212-0.884,0.52-1.229,0.907
	c-0.345,0.393-0.619,0.859-0.822,1.408c-0.203,0.548-0.303,1.153-0.303,1.805v10.466H122.818L122.818,207.709z M148.932,189.072
	c1.579,0,2.922,0.426,4.032,1.267c0.567-0.378,1.182-0.666,1.834-0.86c0.657-0.193,1.375-0.292,2.155-0.292h1.248l0.567,3.691
	c-0.241-0.038-0.478-0.071-0.709-0.095s-0.444-0.052-0.624-0.076c-0.18-0.023-0.336-0.042-0.463-0.056
	c-0.128-0.016-0.194-0.02-0.208-0.02c-0.544,0-1.098,0.108-1.664,0.321c0.175,0.401,0.326,0.817,0.444,1.238s0.18,0.851,0.18,1.276
	c0,0.86-0.18,1.664-0.539,2.425c-0.359,0.756-0.851,1.418-1.465,1.985c-0.62,0.566-1.343,1.016-2.165,1.342
	c-0.827,0.326-1.711,0.492-2.661,0.492c-0.251,0-0.51-0.015-0.775-0.038c-0.265-0.023-0.534-0.08-0.813-0.17
	c-0.354,0.24-0.633,0.473-0.841,0.699c-0.208,0.227-0.312,0.486-0.312,0.775c0,0.354,0.185,0.591,0.548,0.709
	c0.364,0.118,0.841,0.18,1.418,0.18c0.439,0,0.903-0.02,1.38-0.057c0.478-0.038,0.917-0.058,1.305-0.058
	c1.276,0,2.354,0.118,3.247,0.36c0.889,0.24,1.607,0.576,2.156,1.011c0.548,0.436,0.945,0.95,1.19,1.541
	c0.246,0.591,0.369,1.248,0.369,1.967c0,0.741-0.175,1.46-0.521,2.146c-0.345,0.685-0.864,1.305-1.56,1.844
	c-0.695,0.543-1.564,0.974-2.609,1.295c-1.049,0.321-2.269,0.482-3.673,0.482c-1.465,0-2.717-0.123-3.767-0.369
	s-1.905-0.581-2.571-1.002c-0.667-0.426-1.163-0.917-1.475-1.475c-0.316-0.563-0.473-1.158-0.473-1.787
	c0-0.316,0.057-0.638,0.17-0.974c0.114-0.336,0.274-0.661,0.482-0.974c0.208-0.312,0.458-0.61,0.747-0.889
	c0.288-0.279,0.605-0.524,0.945-0.737c-0.439-0.316-0.742-0.69-0.907-1.125c-0.166-0.435-0.246-0.874-0.246-1.314
	c0-0.604,0.208-1.214,0.624-1.833c0.416-0.62,0.945-1.191,1.588-1.722c-0.392-0.24-0.737-0.533-1.04-0.888
	c-0.303-0.354-0.563-0.733-0.775-1.135s-0.378-0.827-0.492-1.267c-0.113-0.439-0.17-0.884-0.17-1.323
	c0-0.908,0.194-1.759,0.577-2.553s0.898-1.483,1.541-2.07c0.643-0.586,1.38-1.045,2.207-1.38
	C147.198,189.238,148.049,189.072,148.932,189.072z M151.528,207.332c-0.936,0-1.796-0.006-2.59-0.02
	c-0.795-0.015-1.622-0.052-2.478-0.113c-0.468,0.278-0.808,0.6-1.03,0.974c-0.223,0.373-0.331,0.723-0.331,1.05
	c0,0.363,0.118,0.671,0.35,0.917c0.231,0.245,0.553,0.448,0.955,0.604c0.402,0.156,0.87,0.27,1.399,0.341
	c0.529,0.07,1.092,0.104,1.683,0.104c0.619,0,1.187-0.052,1.701-0.161c0.516-0.108,0.965-0.259,1.343-0.453s0.676-0.431,0.889-0.7
	s0.335-0.576,0.358-0.916c-0.037-0.478-0.227-0.87-0.566-1.173C152.869,207.482,152.307,207.332,151.528,207.332z M148.857,192.399
	c-0.392,0-0.751,0.071-1.087,0.209c-0.335,0.137-0.628,0.34-0.878,0.596c-0.251,0.259-0.449,0.576-0.596,0.945
	c-0.146,0.373-0.217,0.798-0.217,1.275c0,0.401,0.066,0.785,0.199,1.135s0.317,0.662,0.558,0.927c0.241,0.264,0.53,0.477,0.87,0.633
	c0.34,0.156,0.728,0.236,1.153,0.236c0.444,0,0.837-0.08,1.191-0.236s0.652-0.369,0.898-0.633c0.245-0.265,0.43-0.577,0.558-0.927
	c0.127-0.35,0.188-0.733,0.188-1.135s-0.062-0.789-0.188-1.153c-0.128-0.363-0.313-0.685-0.558-0.964
	c-0.246-0.279-0.544-0.496-0.898-0.662C149.698,192.485,149.301,192.399,148.857,192.399z M161.728,193.52h14.534v3.54h-14.534
	V193.52z M195.717,189.621v15.914c0,0.326,0.033,0.676,0.104,1.04c0.071,0.364,0.156,0.747,0.255,1.135h-4.201
	c-0.151-0.114-0.251-0.284-0.303-0.511c-0.052-0.228-0.075-0.431-0.075-0.604v-0.587c-0.266,0.393-0.587,0.737-0.965,1.04
	s-0.789,0.563-1.229,0.775c-0.439,0.212-0.893,0.378-1.352,0.491c-0.458,0.113-0.902,0.171-1.333,0.171
	c-0.945,0-1.791-0.138-2.533-0.417c-0.742-0.278-1.376-0.718-1.891-1.323c-0.516-0.604-0.912-1.39-1.182-2.344
	c-0.27-0.96-0.406-2.113-0.406-3.465v-11.315h4.277v11.315c0,1.389,0.236,2.401,0.709,3.039c0.473,0.639,1.102,0.955,1.881,0.955
	c0.544,0,1.05-0.108,1.522-0.331c0.473-0.222,0.884-0.524,1.229-0.917c0.346-0.393,0.619-0.86,0.823-1.408
	c0.203-0.549,0.302-1.153,0.302-1.806v-10.843h4.368V189.621z M200.334,181.557h4.921c0,0.151-0.023,0.27-0.076,0.358
	c-0.052,0.09-0.108,0.165-0.17,0.228c-0.062,0.062-0.128,0.132-0.189,0.207c-0.061,0.076-0.099,0.171-0.113,0.284v13.646
	l6.943-6.868c0.922,0.213,1.659,0.321,2.212,0.321h2.822l-7.397,7.138c0.644,0.77,1.319,1.63,2.023,2.585s1.418,1.914,2.132,2.888
	s1.413,1.919,2.099,2.851c0.69,0.927,1.328,1.758,1.919,2.491l-5.299,0.188l-5.979-8.328l-1.475,1.398v6.773h-4.372V181.557
	L200.334,181.557z"/>
</svg>
