<?xml version="1.0" encoding="utf-8"?>
<!-- Generator: Adobe Illustrator 16.0.2, SVG Export Plug-In . SVG Version: 6.00 Build 0)  -->
<!DOCTYPE svg PUBLIC "-//W3C//DTD SVG 1.1//EN" "http://www.w3.org/Graphics/SVG/1.1/DTD/svg11.dtd">
<svg version="1.1" id="Layer_1" xmlns="http://www.w3.org/2000/svg" xmlns:xlink="http://www.w3.org/1999/xlink" x="0px" y="0px"
	 width="40px" height="40px" viewBox="0 0 40 40" enable-background="new 0 0 40 40" xml:space="preserve">
<g id="Layer_1_1_" display="none">
	
		<image display="inline" overflow="visible" enable-background="new    " width="131" height="131" xlink:href="5D69C9F.jpeg"  transform="matrix(0.3053 0 0 0.3053 -0.0078 -0.0073)">
	</image>
	<g id="_Group_" display="inline">
		<path id="_Path_" d="M28.365,39.992h-7.031V25h-4.515v-5.863h4.515v-5.515c0-4.779,1.986-7.625,7.615-7.625h4.693v5.852h-2.932
			c-2.197,0-2.335,0.818-2.335,2.347v4.932h5.31l-0.615,5.86h-4.693L28.365,39.992z"/>
	</g>
	<path display="inline" d="M51,43c0,1.657-1.343,3-3,3H14c-1.657,0-3-1.343-3-3V9c0-1.657,1.343-3,3-3h34c1.657,0,3,1.343,3,3V43z"
		/>
</g>
<g id="Layer_1_copy">
	<path fill="#3B5998" d="M37,0H3C1.343,0,0,1.343,0,3v34c0,1.657,1.343,3,3,3h18V25h-4v-6h4v-5.378C21,8.843,23.32,6,28.949,6H34v6
		h-3.288C28.514,12,28,12.666,28,14.195V19h5.688l-0.617,6h-4.692l-0.012,15H37c1.657,0,3-1.343,3-3V3C40,1.343,38.657,0,37,0z"/>
</g>
</svg>
