<?xml version="1.0" encoding="utf-8"?>
<!-- Generator: Adobe Illustrator 16.0.2, SVG Export Plug-In . SVG Version: 6.00 Build 0)  -->
<!DOCTYPE svg PUBLIC "-//W3C//DTD SVG 1.1//EN" "http://www.w3.org/Graphics/SVG/1.1/DTD/svg11.dtd">
<svg version="1.1" id="Layer_1" xmlns="http://www.w3.org/2000/svg" xmlns:xlink="http://www.w3.org/1999/xlink" x="0px" y="0px"
	 width="40px" height="40px" viewBox="0 0 40 40" enable-background="new 0 0 40 40" xml:space="preserve">
<path d="M20,0.493c-11.045,0-20,8.955-20,20c0,8.838,5.729,16.334,13.678,18.977c1,0.184,1.365-0.434,1.365-0.961
	c0-0.477-0.019-2.053-0.028-3.723c-5.562,1.207-6.736-2.359-6.736-2.359c-0.91-2.311-2.221-2.924-2.221-2.924
	c-1.817-1.24,0.139-1.217,0.139-1.217c2.008,0.139,3.064,2.061,3.064,2.061c1.785,3.057,4.684,2.174,5.82,1.66
	c0.182-1.289,0.699-2.172,1.27-2.67c-4.439-0.506-9.109-2.223-9.109-9.887c0-2.184,0.779-3.967,2.057-5.365
	c-0.204-0.51-0.893-2.543,0.198-5.297c0,0,1.677-0.535,5.5,2.053c1.594-0.447,3.304-0.666,5.005-0.674
	c1.7,0.008,3.411,0.229,5.008,0.676c3.814-2.59,5.494-2.051,5.494-2.051c1.094,2.754,0.406,4.787,0.201,5.293
	c1.281,1.398,2.055,3.182,2.055,5.365c0,7.684-4.678,9.375-9.133,9.871c0.721,0.621,1.357,1.836,1.357,3.701
	c0,2.674-0.027,4.83-0.027,5.488c0,0.533,0.365,1.154,1.377,0.959C34.275,36.821,40,29.327,40,20.493
	C40,9.448,31.045,0.493,20,0.493z"/>
</svg>
