<?xml version="1.0" encoding="utf-8"?>
<!-- Generator: Adobe Illustrator 16.0.2, SVG Export Plug-In . SVG Version: 6.00 Build 0)  -->
<!DOCTYPE svg PUBLIC "-//W3C//DTD SVG 1.1//EN" "http://www.w3.org/Graphics/SVG/1.1/DTD/svg11.dtd">
<svg version="1.1" id="Layer_1" xmlns="http://www.w3.org/2000/svg" xmlns:xlink="http://www.w3.org/1999/xlink" x="0px" y="0px"
	 width="40px" height="40px" viewBox="492 492 40 40" enable-background="new 492 492 40 40" xml:space="preserve">
<path d="M512,492c-11.045,0-20,8.955-20,20c0,8.838,5.73,16.334,13.678,18.977c1,0.184,1.365-0.434,1.365-0.961
	c0-0.477-0.019-2.053-0.028-3.723c-5.562,1.207-6.737-2.359-6.737-2.359c-0.91-2.31-2.22-2.925-2.22-2.925
	c-1.818-1.24,0.138-1.216,0.138-1.216c2.008,0.139,3.065,2.061,3.065,2.061c1.785,3.057,4.683,2.173,5.82,1.66
	c0.182-1.289,0.699-2.173,1.27-2.671c-4.44-0.505-9.11-2.222-9.11-9.885c0-2.185,0.78-3.967,2.057-5.367
	c-0.204-0.508-0.893-2.543,0.198-5.295c0,0,1.677-0.537,5.5,2.051c1.594-0.446,3.304-0.666,5.005-0.673
	c1.7,0.007,3.411,0.229,5.008,0.675c3.814-2.59,5.494-2.051,5.494-2.051c1.094,2.755,0.406,4.788,0.201,5.293
	c1.281,1.4,2.055,3.182,2.055,5.367c0,7.683-4.678,9.375-9.133,9.871c0.721,0.62,1.357,1.836,1.357,3.701
	c0,2.674-0.027,4.83-0.027,5.488c0,0.533,0.365,1.154,1.377,0.959C526.275,528.328,532,520.833,532,512
	C532,500.955,523.045,492,512,492z"/>
</svg>
