<?xml version="1.0" encoding="utf-8"?>
<!-- Generator: Adobe Illustrator 16.0.2, SVG Export Plug-In . SVG Version: 6.00 Build 0)  -->
<!DOCTYPE svg PUBLIC "-//W3C//DTD SVG 1.1//EN" "http://www.w3.org/Graphics/SVG/1.1/DTD/svg11.dtd">
<svg version="1.1" id="Layer_1" xmlns="http://www.w3.org/2000/svg" xmlns:xlink="http://www.w3.org/1999/xlink" x="0px" y="0px"
	 width="260px" height="200px" viewBox="0 0 260 200" enable-background="new 0 0 260 200" xml:space="preserve">
<rect x="62" y="106" fill="none" stroke="#FFFFFF" stroke-width="2" stroke-miterlimit="10" width="30" height="30"/>
<circle fill="none" stroke="#FFFFFF" stroke-width="2" stroke-miterlimit="10" cx="77" cy="121" r="13.5"/>
<g>
	<g>
		<line fill="none" stroke="#FFFFFF" stroke-width="4" stroke-miterlimit="10" x1="80" y1="121" x2="86" y2="121"/>
		
			<line fill="none" stroke="#FFFFFF" stroke-width="4" stroke-miterlimit="10" stroke-dasharray="13,13" x1="99" y1="121" x2="248" y2="121"/>
		<line fill="none" stroke="#FFFFFF" stroke-width="4" stroke-miterlimit="10" x1="254" y1="121" x2="260" y2="121"/>
	</g>
</g>
<circle cx="77" cy="121" r="5"/>
<g>
	<g>
		<line fill="none" stroke="#FFFFFF" stroke-width="4" stroke-miterlimit="10" x1="2" y1="0" x2="2" y2="6"/>
		
			<line fill="none" stroke="#FFFFFF" stroke-width="4" stroke-miterlimit="10" stroke-dasharray="12,12" x1="2" y1="18" x2="2" y2="161"/>
		<polyline fill="none" stroke="#FFFFFF" stroke-width="4" stroke-miterlimit="10" points="2,167 2,173 8,173 		"/>
		<polyline fill="none" stroke="#FFFFFF" stroke-width="4" stroke-miterlimit="10" points="15,173 21,173 21,167 		"/>
		
			<line fill="none" stroke="#FFFFFF" stroke-width="4" stroke-miterlimit="10" stroke-dasharray="11,11" x1="21" y1="156" x2="21" y2="98"/>
		<polyline fill="none" stroke="#FFFFFF" stroke-width="4" stroke-miterlimit="10" points="21,93 21,87 27,87 		"/>
		<polyline fill="none" stroke="#FFFFFF" stroke-width="4" stroke-miterlimit="10" points="33,87 39,87 39,93 		"/>
		
			<line fill="none" stroke="#FFFFFF" stroke-width="4" stroke-miterlimit="10" stroke-dasharray="7,7" x1="39" y1="100" x2="39" y2="111"/>
		<polyline fill="none" stroke="#FFFFFF" stroke-width="4" stroke-miterlimit="10" points="39,115 39,121 45,121 		"/>
		<line fill="none" stroke="#FFFFFF" stroke-width="4" stroke-miterlimit="10" x1="56" y1="121" x2="62" y2="121"/>
	</g>
</g>
</svg>
