<?xml version="1.0" encoding="utf-8"?>
<!-- Generator: Adobe Illustrator 16.0.2, SVG Export Plug-In . SVG Version: 6.00 Build 0)  -->
<!DOCTYPE svg PUBLIC "-//W3C//DTD SVG 1.1//EN" "http://www.w3.org/Graphics/SVG/1.1/DTD/svg11.dtd">
<svg version="1.1" id="icon" xmlns="http://www.w3.org/2000/svg" xmlns:xlink="http://www.w3.org/1999/xlink" x="0px" y="0px"
	 width="120px" height="120px" viewBox="65 65 120 120" enable-background="new 65 65 120 120" xml:space="preserve">
<g>
	<path d="M111.855,98.99h-5.906l-1.035,2.408c-0.255,0.592-0.383,1.035-0.383,1.328c0,0.232,0.111,0.437,0.332,0.613
		c0.222,0.176,0.7,0.291,1.435,0.343v0.417h-4.804v-0.417c0.638-0.112,1.051-0.258,1.237-0.439c0.383-0.359,0.807-1.091,1.271-2.193
		l5.366-12.555h0.394l5.311,12.689c0.428,1.021,0.815,1.682,1.164,1.986c0.35,0.304,0.834,0.474,1.457,0.512v0.417h-6.019v-0.417
		c0.607-0.03,1.018-0.131,1.231-0.304c0.214-0.172,0.321-0.382,0.321-0.63c0-0.33-0.15-0.851-0.45-1.563L111.855,98.99z
		 M111.54,98.158l-2.587-6.165l-2.655,6.165H111.54z"/>
	<path d="M111.957,123.961c1.058,0.226,1.849,0.585,2.374,1.08c0.728,0.69,1.091,1.534,1.091,2.531c0,0.758-0.24,1.483-0.72,2.177
		s-1.138,1.2-1.974,1.519c-0.836,0.319-2.113,0.479-3.831,0.479h-7.2v-0.416h0.573c0.638,0,1.095-0.203,1.373-0.608
		c0.172-0.263,0.259-0.821,0.259-1.676v-9.855c0-0.945-0.109-1.542-0.327-1.789c-0.292-0.331-0.728-0.495-1.305-0.495h-0.574v-0.416
		h6.593c1.23,0,2.216,0.09,2.958,0.27c1.125,0.271,1.984,0.749,2.576,1.435c0.592,0.686,0.889,1.476,0.889,2.368
		c0,0.766-0.232,1.45-0.697,2.053C113.55,123.22,112.864,123.669,111.957,123.961z M106.062,123.354
		c0.277,0.052,0.595,0.092,0.951,0.118c0.356,0.027,0.748,0.04,1.175,0.04c1.095,0,1.918-0.118,2.47-0.354s0.973-0.598,1.266-1.086
		c0.293-0.487,0.439-1.02,0.439-1.597c0-0.893-0.364-1.654-1.091-2.284c-0.727-0.631-1.789-0.945-3.184-0.945
		c-0.75,0-1.425,0.083-2.025,0.248V123.354L106.062,123.354z M106.062,130.644c0.87,0.202,1.729,0.304,2.576,0.304
		c1.357,0,2.393-0.306,3.105-0.917c0.713-0.61,1.068-1.366,1.068-2.267c0-0.593-0.161-1.162-0.483-1.71s-0.848-0.979-1.575-1.294
		c-0.727-0.314-1.627-0.472-2.7-0.472c-0.465,0-0.863,0.008-1.192,0.022c-0.33,0.015-0.596,0.042-0.798,0.079L106.062,130.644
		L106.062,130.644z"/>
	<path d="M115.186,143.79l0.349,5.187h-0.349c-0.465-1.552-1.129-2.67-1.991-3.352c-0.862-0.683-1.897-1.024-3.105-1.024
		c-1.012,0-1.927,0.257-2.745,0.771c-0.817,0.514-1.46,1.333-1.93,2.458s-0.704,2.523-0.704,4.196c0,1.38,0.222,2.576,0.664,3.589
		c0.443,1.013,1.108,1.789,1.997,2.329s1.903,0.811,3.043,0.811c0.99,0,1.864-0.212,2.622-0.636s1.59-1.266,2.498-2.526l0.349,0.226
		c-0.765,1.357-1.657,2.352-2.677,2.981s-2.231,0.945-3.634,0.945c-2.528,0-4.485-0.938-5.873-2.813
		c-1.034-1.395-1.552-3.037-1.552-4.928c0-1.522,0.341-2.922,1.023-4.196c0.683-1.275,1.622-2.264,2.818-2.965
		s2.503-1.052,3.92-1.052c1.103,0,2.19,0.271,3.263,0.811c0.315,0.166,0.54,0.248,0.675,0.248c0.203,0,0.379-0.071,0.529-0.214
		c0.195-0.202,0.334-0.483,0.417-0.844h0.393V143.79z"/>
</g>
<g>
	<rect x="124.947" y="124.258" width="22.56" height="0.48"/>
	<polygon points="147.507,131.458 135.507,131.458 135.507,117.538 147.507,117.538 147.507,118.019 135.986,118.019 
		135.986,130.979 147.507,130.979 	"/>
	<rect x="124.947" y="96.898" width="22.56" height="0.479"/>
	<polygon points="147.507,104.099 135.507,104.099 135.507,90.178 147.507,90.178 147.507,90.658 135.986,90.658 135.986,103.618 
		147.507,103.618 	"/>
	<rect x="124.947" y="152.099" width="22.56" height="0.479"/>
	<polygon points="147.507,159.299 135.507,159.299 135.507,145.378 147.507,145.378 147.507,145.858 135.986,145.858 
		135.986,158.818 147.507,158.818 	"/>
</g>
<g>
	<path d="M124.227,98.578c-0.794,0-1.439-0.646-1.439-1.44c0-0.793,0.646-1.44,1.439-1.44s1.44,0.646,1.44,1.44
		C125.667,97.932,125.021,98.578,124.227,98.578z M124.227,96.178c-0.529,0-0.96,0.431-0.96,0.96c0,0.53,0.431,0.96,0.96,0.96
		s0.96-0.431,0.96-0.96C125.187,96.609,124.756,96.178,124.227,96.178z"/>
	<path d="M148.707,91.858c-0.795,0-1.44-0.646-1.44-1.44c0-0.793,0.646-1.439,1.44-1.439c0.794,0,1.439,0.646,1.439,1.439
		C150.146,91.212,149.501,91.858,148.707,91.858z M148.707,89.458c-0.53,0-0.96,0.431-0.96,0.96c0,0.53,0.43,0.96,0.96,0.96
		c0.529,0,0.96-0.43,0.96-0.96C149.667,89.889,149.236,89.458,148.707,89.458z"/>
	<path d="M148.707,98.578c-0.795,0-1.44-0.646-1.44-1.44c0-0.793,0.646-1.44,1.44-1.44c0.794,0,1.439,0.646,1.439,1.44
		C150.146,97.932,149.501,98.578,148.707,98.578z M148.707,96.178c-0.53,0-0.96,0.431-0.96,0.96c0,0.53,0.43,0.96,0.96,0.96
		c0.529,0,0.96-0.431,0.96-0.96C149.667,96.609,149.236,96.178,148.707,96.178z"/>
	<path d="M148.707,105.298c-0.795,0-1.44-0.646-1.44-1.44s0.646-1.44,1.44-1.44c0.794,0,1.439,0.646,1.439,1.44
		S149.501,105.298,148.707,105.298z M148.707,102.898c-0.53,0-0.96,0.431-0.96,0.96s0.43,0.96,0.96,0.96
		c0.529,0,0.96-0.431,0.96-0.96S149.236,102.898,148.707,102.898z"/>
	<path d="M124.227,125.938c-0.794,0-1.439-0.646-1.439-1.44s0.646-1.439,1.439-1.439s1.44,0.646,1.44,1.439
		S125.021,125.938,124.227,125.938z M124.227,123.538c-0.529,0-0.96,0.431-0.96,0.96c0,0.53,0.431,0.96,0.96,0.96
		s0.96-0.43,0.96-0.96C125.187,123.969,124.756,123.538,124.227,123.538z"/>
	<path d="M148.707,119.218c-0.795,0-1.44-0.646-1.44-1.44s0.646-1.44,1.44-1.44c0.794,0,1.439,0.646,1.439,1.44
		S149.501,119.218,148.707,119.218z M148.707,116.818c-0.53,0-0.96,0.431-0.96,0.96s0.43,0.96,0.96,0.96
		c0.529,0,0.96-0.431,0.96-0.96S149.236,116.818,148.707,116.818z"/>
	<path d="M148.6,125.938c-0.794,0-1.439-0.646-1.439-1.44s0.646-1.439,1.439-1.439c0.795,0,1.44,0.646,1.44,1.439
		S149.395,125.938,148.6,125.938z M148.6,123.538c-0.529,0-0.96,0.431-0.96,0.96c0,0.53,0.431,0.96,0.96,0.96s0.96-0.43,0.96-0.96
		C149.56,123.969,149.129,123.538,148.6,123.538z"/>
	<path d="M148.707,132.658c-0.795,0-1.44-0.646-1.44-1.439c0-0.795,0.646-1.44,1.44-1.44c0.794,0,1.439,0.646,1.439,1.44
		C150.146,132.013,149.501,132.658,148.707,132.658z M148.707,130.258c-0.53,0-0.96,0.431-0.96,0.961c0,0.529,0.43,0.959,0.96,0.959
		c0.529,0,0.96-0.43,0.96-0.959C149.667,130.688,149.236,130.258,148.707,130.258z"/>
	<path d="M124.227,153.778c-0.794,0-1.439-0.646-1.439-1.44c0-0.794,0.646-1.439,1.439-1.439s1.44,0.646,1.44,1.439
		C125.667,153.133,125.021,153.778,124.227,153.778z M124.227,151.378c-0.529,0-0.96,0.431-0.96,0.96c0,0.53,0.431,0.961,0.96,0.961
		s0.96-0.431,0.96-0.961C125.187,151.809,124.756,151.378,124.227,151.378z"/>
	<path d="M148.707,147.059c-0.795,0-1.44-0.646-1.44-1.44s0.646-1.44,1.44-1.44c0.794,0,1.439,0.646,1.439,1.44
		S149.501,147.059,148.707,147.059z M148.707,144.658c-0.53,0-0.96,0.431-0.96,0.96c0,0.53,0.43,0.96,0.96,0.96
		c0.529,0,0.96-0.43,0.96-0.96C149.667,145.089,149.236,144.658,148.707,144.658z"/>
	<path d="M148.6,153.778c-0.794,0-1.439-0.646-1.439-1.44c0-0.794,0.646-1.439,1.439-1.439c0.795,0,1.44,0.646,1.44,1.439
		C150.04,153.133,149.395,153.778,148.6,153.778z M148.6,151.378c-0.529,0-0.96,0.431-0.96,0.96c0,0.53,0.431,0.961,0.96,0.961
		s0.96-0.431,0.96-0.961C149.56,151.809,149.129,151.378,148.6,151.378z"/>
	<path d="M148.707,160.498c-0.795,0-1.44-0.646-1.44-1.439c0-0.795,0.646-1.44,1.44-1.44c0.794,0,1.439,0.646,1.439,1.44
		C150.146,159.853,149.501,160.498,148.707,160.498z M148.707,158.099c-0.53,0-0.96,0.43-0.96,0.96c0,0.529,0.43,0.96,0.96,0.96
		c0.529,0,0.96-0.431,0.96-0.96C149.667,158.528,149.236,158.099,148.707,158.099z"/>
</g>
</svg>
