<?xml version="1.0" encoding="utf-8"?>
<!-- Generator: Adobe Illustrator 16.0.2, SVG Export Plug-In . SVG Version: 6.00 Build 0)  -->
<!DOCTYPE svg PUBLIC "-//W3C//DTD SVG 1.1//EN" "http://www.w3.org/Graphics/SVG/1.1/DTD/svg11.dtd">
<svg version="1.1" xmlns="http://www.w3.org/2000/svg" xmlns:xlink="http://www.w3.org/1999/xlink" x="0px" y="0px" width="250px"
	 height="250px" viewBox="0 0 250 250" enable-background="new 0 0 250 250" xml:space="preserve">
<g id="bgr">
	<path fill-rule="evenodd" clip-rule="evenodd" fill="#79C753" d="M193.426,109.148c0.336,0,0.629,0,0.92,0
		c9.502,0,19,0.009,28.502-0.02c0.768-0.002,1.035,0.174,1.189,0.966c0.777,3.908,1.195,7.852,1.41,11.822
		c0.01,0.169,0,0.342,0,0.563c-49.996,0-99.957,0-150.027,0c0.113-1.583,0.191-3.147,0.35-4.704
		c0.553-5.586,1.705-11.047,3.492-16.373c3-8.931,7.506-17.029,13.566-24.241c9.42-11.209,21.105-19.067,35.064-23.5
		c8.145-2.588,16.506-3.696,25.054-3.402c10.167,0.352,19.849,2.718,29.085,6.958c0.48,0.22,0.663,0.46,0.66,0.996
		c-0.031,2.646-0.015,5.292-0.015,8.018c-1.792,0-3.528,0-5.32,0c0,1.816,0,3.554,0,5.387c3.516,0,7.048,0,10.62,0
		c0,1.828,0,3.561,0,5.368c-1.768,0-3.48,0-5.248,0c0,1.788,0,3.504,0,5.325c3.516,0,7.044,0,10.654,0c0,1.843,0,3.578,0,5.381
		c1.818,0,3.555,0,5.338,0c0,1.806,0,3.543,0,5.364c-5.32,0-10.633,0-15.992,0c0,1.816,0,3.545,0,5.355c7.131,0,14.219,0,21.361,0
		c0,1.81,0,3.541,0,5.359c-3.551,0-7.088,0-10.664,0C193.426,105.593,193.426,107.327,193.426,109.148z"/>
	<path fill-rule="evenodd" clip-rule="evenodd" fill="#79C753" d="M209.469,146.646c0,1.83,0,3.545,0,5.346
		c-7.131,0-14.221,0-21.416,0c0,1.811,0,3.541,0,5.346c-3.618,0-7.129,0-10.696,0c0,1.811,0,3.546,0,5.359c5.3,0,10.61,0,16.005,0
		c0,1.811,0,3.545,0,5.373c3.615,0,7.146,0,10.734,0c0,1.801,0,3.515,0,5.342c-1.758,0-3.51,0-5.314,0c0,1.827,0,3.545,0,5.346
		c-5.364,0-10.672,0-16.069,0c0,1.814,0,3.551,0,5.365c-1.822,0-3.56,0-5.376,0c0,1.813,0,3.549,0,5.372c-5.391,0-10.707,0-16.078,0
		c0,1.817,0,3.55,0,5.354c1.738,0,3.451,0,5.279,0c0,1.156,0.018,2.246-0.018,3.332c-0.004,0.131-0.273,0.336-0.449,0.37
		c-7.037,1.452-14.133,2.007-21.314,1.448c-6.488-0.502-12.803-1.789-18.947-3.92c-9.467-3.289-17.932-8.281-25.396-14.963
		c-7.781-6.955-13.855-15.188-18.217-24.668c-2.863-6.227-4.865-12.73-5.852-19.52c-0.393-2.717-0.588-5.463-0.867-8.193
		c-0.026-0.244-0.006-0.493-0.006-0.785c49.984,0,99.955,0,149.914,0c0.236,1.993-0.914,11.412-1.631,13.322
		c-8.275,0-16.573,0-24.928,0c0,1.801,0,3.555,0,5.373C202.365,146.646,205.881,146.646,209.469,146.646z"/>
</g>
<g id="icon">
	<g>
		<path d="M150.282,201.214c-1.869,0-3.755-0.073-5.604-0.217c-6.614-0.512-13.073-1.849-19.198-3.973
			c-9.54-3.313-18.198-8.415-25.736-15.162c-7.843-7.011-14.053-15.42-18.458-24.995c-2.965-6.448-4.961-13.108-5.933-19.794
			c-0.279-1.929-0.461-3.892-0.637-5.789c-0.076-0.816-0.152-1.632-0.235-2.446c-0.022-0.203-0.021-0.415-0.015-0.646l0.004-1.241
			h151.803l0.104,0.882c0.258,2.179-0.909,11.717-1.688,13.792l-0.244,0.648h-24.62v3.373h10.643v7.346h-21.416v5.346h-10.696v3.359
			h16.005v5.373h10.734v7.342h-5.314v5.346h-16.069v5.365h-5.376v5.372h-16.078v3.354h5.279l0.002,1.861
			c0.004,0.854,0.007,1.68-0.021,2.503c-0.021,0.736-0.763,1.224-1.257,1.319C160.862,200.647,155.482,201.214,150.282,201.214z
			 M76.503,128.951c0.072,0.718,0.138,1.433,0.205,2.148c0.174,1.872,0.354,3.809,0.625,5.688c0.944,6.495,2.885,12.97,5.771,19.244
			c4.289,9.324,10.337,17.514,17.975,24.341c7.34,6.569,15.771,11.536,25.058,14.764c5.963,2.067,12.253,3.369,18.696,3.867
			c6.704,0.52,13.641,0.063,20.7-1.362c0.011-0.59,0.009-1.184,0.007-1.791h-5.282v-7.354h16.078v-5.372h5.376v-5.365h16.069v-5.346
			h5.314v-3.342h-10.734v-5.373h-16.005v-7.359h10.696v-5.346h21.416v-3.346h-10.643v-7.373h25.181
			c0.582-2.384,1.36-8.674,1.41-11.322H76.503z"/>
		<path d="M226.447,123.479H74.346l0.171-2.466c0.073-1.119,0.146-2.23,0.258-3.338c0.563-5.687,1.753-11.269,3.539-16.59
			c3.047-9.07,7.673-17.335,13.749-24.566c9.528-11.338,21.481-19.35,35.527-23.81c8.147-2.588,16.7-3.75,25.391-3.448
			c10.129,0.35,20.043,2.722,29.468,7.049c0.853,0.39,1.248,0.997,1.243,1.91c-0.023,1.962-0.02,3.918-0.017,5.907l0.002,3.105
			h-5.32v3.387h10.62v7.368h-5.248v3.325h10.654v5.381h5.338v7.364h-15.992v3.355h21.361v7.359h-10.664v3.377l10.711,0.001
			c5.903,0,11.804-0.003,17.708-0.021c1.269,0,1.935,0.547,2.174,1.774c0.721,3.623,1.188,7.536,1.428,11.959
			c0.007,0.13,0.006,0.265,0.003,0.417L226.447,123.479z M76.49,121.479h147.931c-0.241-4.128-0.688-7.792-1.364-11.19
			c-0.014-0.066-0.025-0.118-0.036-0.157c-0.04-0.002-0.093-0.004-0.16-0.004c-5.916,0.018-11.818,0.021-17.724,0.021l-12.711-0.001
			v-7.377h10.664v-3.359h-21.361v-7.355h15.992v-3.364h-5.338v-5.381h-10.654v-7.325h5.248v-3.368h-10.62v-7.387h5.319l-0.001-1.103
			c-0.004-1.998-0.007-3.963,0.017-5.927c0-0.014,0-0.026,0-0.038c-0.02-0.01-0.045-0.022-0.076-0.037
			c-9.184-4.217-18.841-6.527-28.703-6.868c-8.462-0.292-16.787,0.836-24.717,3.355c-13.679,4.344-25.321,12.146-34.602,23.191
			c-5.915,7.038-10.417,15.085-13.384,23.916c-1.738,5.178-2.896,10.613-3.445,16.153c-0.11,1.086-0.181,2.174-0.252,3.269
			L76.49,121.479z"/>
		<path d="M123.615,109.643C123.614,109.643,123.615,109.643,123.615,109.643h-0.009c-5.869-0.003-11.397-2.312-15.566-6.5
			c-4.148-4.167-6.419-9.666-6.396-15.484c0.054-12.071,9.9-21.892,21.949-21.892c5.9,0.005,11.43,2.313,15.593,6.497
			c4.141,4.162,6.408,9.662,6.384,15.486C145.517,99.822,135.667,109.643,123.615,109.643z M123.615,66.768
			c-11.523,0-20.921,9.374-20.972,20.896c-0.022,5.55,2.146,10.797,6.105,14.774c3.981,3.999,9.257,6.202,14.858,6.205l0.008,0.5
			l0-0.5c11.504,0,20.904-9.374,20.954-20.896c0.023-5.557-2.141-10.805-6.093-14.777C134.501,68.976,129.224,66.773,123.615,66.768
			z"/>
		<path d="M115.263,107.97c-6.042-4.132-9.632-10.918-9.604-18.151c0.053-12.076,9.897-21.892,21.948-21.892
			c0.008,0,0.016,0,0.024,0c2.962,0.003,5.839,0.589,8.55,1.742l-0.391,0.92c-2.587-1.1-5.333-1.659-8.161-1.662
			c-0.007,0-0.016,0-0.022,0c-11.503,0-20.898,9.369-20.948,20.896c-0.027,6.901,3.4,13.377,9.168,17.322L115.263,107.97z"/>
		<path fill-rule="evenodd" clip-rule="evenodd" d="M127.623,97.356c4.127,0.001,7.482-3.343,7.5-7.476
			c0.017-4.122-3.358-7.503-7.496-7.506c-4.119-0.005-7.486,3.35-7.504,7.476C120.107,93.967,123.49,97.354,127.623,97.356z"/>
	</g>
	<g>
		<g>
			<rect x="31.161" y="121.118" transform="matrix(0.8775 0.4795 -0.4795 0.8775 63.865 -5.8194)" width="24.329" height="2"/>
			
				<rect x="42.325" y="109.954" transform="matrix(0.4793 0.8776 -0.8776 0.4793 129.7334 25.5596)" width="2.001" height="24.329"/>
		</g>
		<g>
			<rect x="48.918" y="103.118" transform="matrix(0.8775 0.4795 -0.4795 0.8775 56.8232 -14.2578)" width="14.814" height="2"/>
			<rect x="55.325" y="96.711" transform="matrix(0.4795 0.8775 -0.8775 0.4795 120.6812 4.7631)" width="2" height="14.814"/>
		</g>
		<g>
			<rect x="23.208" y="106.118" transform="matrix(0.8775 0.4796 -0.4796 0.8775 55.3298 -2.3807)" width="18.233" height="2"/>
			<rect x="31.325" y="98.001" transform="matrix(0.4795 0.8775 -0.8775 0.4795 110.8226 27.385)" width="2" height="18.233"/>
		</g>
	</g>
</g>
</svg>
