<?xml version="1.0" encoding="utf-8"?>
<!-- Generator: Adobe Illustrator 16.0.2, SVG Export Plug-In . SVG Version: 6.00 Build 0)  -->
<!DOCTYPE svg PUBLIC "-//W3C//DTD SVG 1.1//EN" "http://www.w3.org/Graphics/SVG/1.1/DTD/svg11.dtd">
<svg version="1.1" id="icon" xmlns="http://www.w3.org/2000/svg" xmlns:xlink="http://www.w3.org/1999/xlink" x="0px" y="0px"
	 width="180px" height="180px" viewBox="85 85 180 180" enable-background="new 85 85 180 180" xml:space="preserve">
<g>
	<path fill="#415139" d="M252.029,227.753c-2.621,4.156-5.177,8.206-7.748,12.28c-3.674-2.275-7.344-4.52-10.973-6.826
		c-0.537-0.342-0.73-0.18-1.095,0.168c-3.411,3.242-7.243,5.867-11.546,7.794c-0.089,0.039-0.172,0.087-0.26,0.126
		c-0.746,0.336-1.822,0.486-2.141,1.061c-0.279,0.5,0.284,1.477,0.492,2.239c0.809,2.958,1.625,5.913,2.435,8.87
		c0.241,0.885,0.468,1.773,0.703,2.668c-4.673,1.291-9.313,2.572-13.96,3.855c-1.062-3.74-2.095-7.354-3.113-10.972
		c-0.351-1.247-0.688-2.501-0.975-3.765c-0.052-0.226,0.165-0.512,0.253-0.756c-3.775-0.061-7.649-0.65-11.419-1.848
		c-1.162-0.369-2.302-0.814-3.439-1.256c-0.472-0.182-0.719-0.206-1.055,0.334c-2.299,3.704-4.664,7.366-7.039,11.094
		c-4.09-2.566-8.14-5.109-12.259-7.695c2.57-4.111,5.122-8.194,7.509-12.014c-2.376-3.188-4.678-6.276-7.06-9.475
		c-4.567,1.26-9.394,2.594-14.309,3.949c-1.297-4.661-2.573-9.246-3.891-13.985c4.745-1.338,9.414-2.653,14.061-3.964
		c-0.726-5.984-0.083-11.74,1.72-17.375c0.163-0.51,0.07-0.714-0.367-0.983c-3.078-1.899-6.133-3.833-9.2-5.748
		c-0.513-0.321-0.626-0.542-0.227-1.161c2.446-3.797,4.813-7.644,7.273-11.583c3.34,2.06,6.626,4.086,9.947,6.134
		c4.264-4.727,9.174-8.487,15.213-10.923c-1.289-4.692-2.588-9.423-3.902-14.209c4.669-1.308,9.287-2.601,13.999-3.919
		c0.505,1.782,1.001,3.537,1.5,5.289c0.53,1.859,1.075,3.715,1.593,5.578c0.264,0.945,0.477,1.904,0.72,2.854
		c0.194,0.758,0.259,1.351,1.458,1.363c4.099,0.039,8.146,0.639,12.053,1.942c0.63,0.209,0.912,0.091,1.225-0.408
		c2.109-3.368,4.233-6.727,6.465-10.267c4.108,2.565,8.188,5.114,12.334,7.702c-1.296,2.068-2.572,4.101-3.841,6.137
		c-0.759,1.214-1.475,2.455-2.27,3.644c-0.401,0.599-0.197,1.004,0.241,1.386c3.973,3.479,7.059,7.621,9.372,12.363
		c0.112,0.23,0.784,0.369,1.124,0.277c3.576-0.959,7.138-1.977,10.705-2.972c0.939-0.262,1.885-0.503,2.936-0.782
		c1.271,4.666,2.535,9.299,3.822,14.021c-2.252,0.608-4.467,1.192-6.673,1.809c-2.457,0.686-4.902,1.415-7.361,2.095
		c-0.657,0.182-0.622,0.486-0.644,1.13c-0.096,2.793-0.332,5.583-0.612,8.366c-0.31,3.055-1.39,5.916-2.45,8.768
		c-0.204,0.547-0.125,0.755,0.346,1.049C245.121,223.353,248.522,225.526,252.029,227.753z M223.522,205.644
		c-0.135-9.568-7.874-17.898-18.138-18.167c-10.069-0.265-19.189,7.751-19.023,18.951c0.143,9.69,7.596,17.712,17.682,18.183
		C215.043,225.123,223.689,216.406,223.522,205.644z"/>
	<path fill="#415139" d="M135.612,109.691c-1.973-3.024-3.881-5.95-5.834-8.944c3.163-2.094,6.283-4.159,9.502-6.29
		c2.026,3.055,3.993,6.019,5.95,8.97c2.896-1.065,5.749-1.907,8.749-2.103c0.606-0.039,0.869-0.192,0.97-0.854
		c0.52-3.406,1.105-6.801,1.671-10.199c0.052-0.313,0.118-0.622,0.199-1.052c1.575,0.219,3.148,0.423,4.717,0.661
		c1.86,0.281,3.713,0.613,5.576,0.873c0.705,0.099,0.957,0.267,0.815,1.084c-0.585,3.36-1.07,6.738-1.586,10.111
		c-0.028,0.182-0.004,0.372-0.004,0.564c4.417,1.405,8.375,3.595,11.759,6.781c0.388,0.365,0.722,0.391,1.242,0.038
		c2.562-1.737,5.174-3.396,7.828-5.122c1.655,2.518,3.268,4.968,4.877,7.421c0.188,0.285,0.344,0.59,0.528,0.877
		c0.834,1.292,0.833,1.285-0.475,2.142c-2.22,1.455-4.433,2.918-6.653,4.38c0.551,1.607,1.127,3.165,1.618,4.75
		c0.78,2.526,1.136,5.13,1.19,7.768c0.014,0.644,0.219,0.893,0.836,0.99c3.207,0.503,6.408,1.037,9.611,1.561
		c0.092,0.015,0.179,0.056,0.371,0.117c-0.609,3.718-1.219,7.438-1.844,11.244c-3.373-0.559-6.699-1.109-10.025-1.659
		c-0.66-0.109-1.123-0.078-1.457,0.73c-1.329,3.214-3.198,6.111-5.513,8.713c-0.317,0.357-0.667,0.684-0.987,1.036
		c-0.987,1.081-0.984,1.083-0.186,2.307c1.777,2.722,3.555,5.444,5.385,8.247c-3.199,2.103-6.355,4.177-9.53,6.263
		c-2.069-3.151-4.113-6.274-6.185-9.38c-0.105-0.158-0.494-0.28-0.67-0.213c-3.544,1.357-7.241,1.894-11.003,2.055
		c-0.821,0.035-1.648-0.079-2.545-0.128c-0.322,1.879-0.648,3.74-0.959,5.604c-0.27,1.62-0.497,3.246-0.808,4.857
		c-0.048,0.251-0.479,0.65-0.677,0.619c-3.464-0.526-6.919-1.107-10.375-1.68c-0.085-0.014-0.165-0.063-0.253-0.099
		c0.658-4.112,1.312-8.198,1.965-12.284c-1.403-0.87-2.926-1.659-4.268-2.684c-1.645-1.256-3.151-2.696-4.691-4.086
		c-0.479-0.432-0.778-0.595-1.438-0.143c-2.703,1.851-5.479,3.594-8.333,5.445c-2.052-3.119-4.121-6.26-6.237-9.476
		c1.351-0.901,2.657-1.776,3.966-2.646c1.628-1.083,3.271-2.146,4.875-3.263c0.228-0.159,0.455-0.638,0.376-0.865
		c-1.023-2.988-1.494-6.073-1.732-9.205c-0.007-0.094-0.036-0.187-0.075-0.383c-3.567-0.578-7.178-1.163-10.92-1.77
		c0.606-3.797,1.203-7.533,1.792-11.223c2.745,0.416,5.383,0.813,8.02,1.217c0.715,0.109,1.429,0.224,2.136,0.372
		c0.604,0.126,0.939-0.084,1.15-0.665c1.21-3.339,3.108-6.277,5.355-8.998C134.062,111.25,134.844,110.506,135.612,109.691z
		 M171.453,133.124c-0.131-8.328-7.295-14.825-15.523-14.309c-7.45,0.466-14.271,6.992-13.574,15.785
		c0.583,7.347,6.634,13.48,14.709,13.327C165.514,147.766,171.491,141.073,171.453,133.124z"/>
	<path fill="#415139" d="M123.61,172.437c0.499,3.25,0.979,6.377,1.422,9.268c2.915,0.839,5.654,1.627,8.464,2.438
		c1.507-1.832,3.151-3.832,4.881-5.938c2.341,1.898,4.639,3.762,6.965,5.646c-1.625,2.037-3.181,3.985-4.736,5.936
		c2.154,2.525,3.962,5.168,4.935,8.309c0.22,0.709,0.66,0.654,1.331,0.537c2.349-0.406,4.722-0.672,7.085-0.998
		c0.249-0.034,0.491-0.112,0.89-0.207c0.09,0.311,0.217,0.616,0.265,0.934c0.375,2.492,0.747,4.984,1.077,7.482
		c0.024,0.189-0.261,0.584-0.446,0.613c-2.721,0.438-5.451,0.812-8.171,1.256c-0.247,0.041-0.594,0.441-0.621,0.703
		c-0.363,3.547-1.371,6.879-3.07,10.016c-0.117,0.215,0.1,0.785,0.335,0.986c1.774,1.526,3.592,3,5.502,4.58
		c-1.86,2.281-3.718,4.56-5.651,6.934c-2.177-1.76-4.298-3.475-6.48-5.24c-2.863,2.153-6.049,3.75-9.679,4.604
		c0.236,1.667,0.464,3.295,0.699,4.922c0.15,1.035,0.307,2.068,0.47,3.102c0.102,0.643-0.155,0.871-0.812,0.955
		c-2.575,0.328-5.142,0.723-7.869,1.117c-0.204-1.246-0.433-2.537-0.624-3.832c-0.271-1.838-0.492-3.684-0.798-5.515
		c-0.04-0.235-0.44-0.548-0.708-0.587c-2.762-0.404-5.325-1.37-7.743-2.724c-0.511-0.286-0.718-0.224-1.065,0.215
		c-1.582,1.999-3.21,3.96-4.924,6.062c-2.31-1.877-4.594-3.733-6.927-5.631c1.37-1.699,2.693-3.342,4.017-4.984
		c0.097-0.121,0.199-0.239,0.292-0.363c1.181-1.605,1.145-1.584,0.153-3.26c-0.783-1.321-1.498-2.688-2.172-4.069
		c-0.214-0.438-0.382-0.505-0.844-0.429c-2.372,0.393-4.753,0.729-7.13,1.085c-0.489,0.073-0.979,0.142-1.483,0.215
		c-0.439-2.976-0.866-5.863-1.296-8.781c2.783-0.442,5.417-0.89,8.063-1.266c0.643-0.091,0.802-0.271,0.82-0.937
		c0.085-3.158,0.788-6.199,2.105-9.067c0.401-0.875,0.127-1.276-0.543-1.78c-1.492-1.123-2.926-2.324-4.377-3.502
		c-0.168-0.137-0.291-0.33-0.478-0.549c1.846-2.284,3.669-4.539,5.568-6.89c1.835,1.47,3.646,2.918,5.554,4.446
		c0.842-0.642,1.644-1.437,2.598-1.944c2.203-1.173,4.468-2.233,6.736-3.276c0.565-0.26,0.797-0.391,0.67-1.133
		c-0.429-2.51-0.717-5.047-1.023-7.577c-0.024-0.206,0.193-0.618,0.344-0.643C117.958,173.24,120.74,172.849,123.61,172.437z
		 M122.342,218.641c5.801,0.12,11.683-4.298,11.68-11.505c-0.002-5.859-4.271-10.891-10.664-11.348
		c-6.522-0.467-12.104,4.422-12.223,11.441C111.042,212.814,115.524,218.475,122.342,218.641z"/>
</g>
</svg>
