<?xml version="1.0" encoding="utf-8"?>
<!-- Generator: Adobe Illustrator 16.0.2, SVG Export Plug-In . SVG Version: 6.00 Build 0)  -->
<!DOCTYPE svg PUBLIC "-//W3C//DTD SVG 1.1//EN" "http://www.w3.org/Graphics/SVG/1.1/DTD/svg11.dtd">
<svg version="1.1" id="icon" xmlns="http://www.w3.org/2000/svg" xmlns:xlink="http://www.w3.org/1999/xlink" x="0px" y="0px"
	 width="120px" height="120px" viewBox="60 60 120 120" enable-background="new 60 60 120 120" xml:space="preserve">
<path fill="#415139" d="M166.547,142.157c-2.547,4.036-5.027,7.969-7.523,11.923c-3.568-2.209-7.131-4.388-10.654-6.627
	c-0.521-0.332-0.709-0.174-1.063,0.162c-3.311,3.148-7.033,5.698-11.209,7.568c-0.086,0.037-0.168,0.084-0.254,0.121
	c-0.723,0.326-1.768,0.473-2.078,1.03c-0.27,0.486,0.277,1.435,0.479,2.175c0.785,2.871,1.578,5.74,2.363,8.612
	c0.236,0.858,0.455,1.721,0.684,2.591c-4.537,1.252-9.041,2.496-13.553,3.742c-1.031-3.633-2.033-7.141-3.021-10.652
	c-0.341-1.212-0.667-2.428-0.948-3.655c-0.05-0.219,0.161-0.496,0.245-0.733c-3.664-0.061-7.426-0.632-11.086-1.793
	c-1.129-0.359-2.234-0.791-3.34-1.22c-0.457-0.177-0.697-0.2-1.023,0.323c-2.232,3.597-4.527,7.152-6.834,10.771
	c-3.971-2.49-7.902-4.959-11.902-7.47c2.495-3.992,4.973-7.956,7.29-11.664c-2.307-3.096-4.541-6.094-6.854-9.197
	c-4.434,1.222-9.12,2.516-13.892,3.834c-1.259-4.527-2.497-8.977-3.777-13.58c4.606-1.299,9.14-2.575,13.651-3.847
	c-0.705-5.81-0.082-11.399,1.67-16.87c0.157-0.493,0.068-0.692-0.356-0.954c-2.988-1.844-5.954-3.721-8.933-5.58
	c-0.498-0.312-0.607-0.526-0.22-1.128c2.375-3.686,4.673-7.421,7.062-11.245c3.242,2,6.434,3.968,9.656,5.956
	c4.139-4.589,8.908-8.24,14.77-10.604c-1.25-4.556-2.512-9.149-3.787-13.796c4.533-1.27,9.016-2.524,13.592-3.805
	c0.49,1.73,0.971,3.434,1.455,5.135c0.516,1.806,1.045,3.606,1.547,5.415c0.256,0.918,0.463,1.849,0.699,2.771
	c0.188,0.735,0.25,1.312,1.416,1.323c3.979,0.037,7.908,0.62,11.701,1.885c0.611,0.204,0.885,0.089,1.188-0.396
	c2.049-3.271,4.111-6.532,6.277-9.969c3.988,2.491,7.951,4.965,11.975,7.478c-1.258,2.008-2.496,3.98-3.729,5.958
	c-0.736,1.179-1.432,2.384-2.203,3.538c-0.389,0.582-0.191,0.975,0.232,1.346c3.859,3.376,6.855,7.399,9.102,12.003
	c0.107,0.224,0.76,0.358,1.09,0.27c3.473-0.931,6.93-1.919,10.393-2.886c0.914-0.254,1.832-0.489,2.852-0.759
	c1.234,4.528,2.461,9.027,3.711,13.611c-2.186,0.592-4.338,1.157-6.479,1.756c-2.385,0.665-4.76,1.373-7.146,2.033
	c-0.639,0.177-0.605,0.473-0.627,1.098c-0.092,2.711-0.32,5.42-0.594,8.122c-0.299,2.966-1.348,5.742-2.379,8.512
	c-0.197,0.532-0.121,0.732,0.336,1.02C159.838,137.887,163.141,139.996,166.547,142.157z M138.869,120.693
	c-0.131-9.289-7.645-17.376-17.609-17.637c-9.777-0.258-18.63,7.524-18.47,18.398c0.139,9.408,7.375,17.197,17.168,17.653
	C130.637,139.605,139.031,131.141,138.869,120.693z"/>
</svg>
