<?xml version="1.0" encoding="utf-8"?>
<!-- Generator: Adobe Illustrator 16.0.2, SVG Export Plug-In . SVG Version: 6.00 Build 0)  -->
<!DOCTYPE svg PUBLIC "-//W3C//DTD SVG 1.1//EN" "http://www.w3.org/Graphics/SVG/1.1/DTD/svg11.dtd">
<svg version="1.1" id="Layer_1" xmlns="http://www.w3.org/2000/svg" xmlns:xlink="http://www.w3.org/1999/xlink" x="0px" y="0px"
	 width="120px" height="120px" viewBox="65 65 120 120" enable-background="new 65 65 120 120" xml:space="preserve">
<g id="bgr">
	<polygon fill="#79C753" points="65.969,95.482 116.439,83.69 183.996,95.24 184.567,118.162 147.165,166.46 65.489,118.162 	"/>
</g>
<g id="icon">
	<g>
		<g>
			<g>
				<g>
					<path d="M124.276,102.606l-11.625-7.231l24.322,1.59L124.276,102.606 M105.839,92.733l-0.999,0.3l23.51,15.585
						c0.753,0.494,1.435,0.967,2.039,1.415c0.616,0.457,1.152,0.889,1.607,1.294c0.461,0.412,0.835,0.796,1.122,1.15
						c0.29,0.359,0.489,0.688,0.594,0.984c0.057,0.147,0.061,0.319,0.011,0.515c-0.05,0.198-0.154,0.421-0.314,0.67
						c-0.16,0.251-0.378,0.529-0.654,0.833c-0.277,0.31-0.614,0.646-1.013,1.011l1.959,0.629l13.646-8.656l-1.817-0.461
						c-0.513,0.268-1.009,0.508-1.484,0.722c-0.479,0.215-0.938,0.401-1.375,0.559c-0.438,0.159-0.854,0.288-1.246,0.387
						c-0.394,0.1-0.762,0.169-1.104,0.206c-0.341,0.039-0.671,0.065-0.99,0.076c-0.32,0.011-0.629,0.009-0.927-0.006
						c-0.296-0.016-0.581-0.045-0.853-0.087c-0.272-0.042-0.532-0.096-0.778-0.164c-0.311-0.086-0.637-0.194-0.98-0.327
						c-0.34-0.131-0.695-0.285-1.065-0.461c-0.367-0.175-0.748-0.372-1.14-0.59c-0.391-0.215-0.791-0.453-1.205-0.709l-6.162-3.826
						l14.153-6.562l9.39,0.612c0.776,0.05,1.495,0.103,2.155,0.154c0.663,0.054,1.267,0.108,1.81,0.163
						c0.547,0.055,1.033,0.111,1.461,0.169c0.43,0.058,0.798,0.117,1.107,0.177c0.231,0.045,0.441,0.095,0.634,0.15
						c0.19,0.056,0.362,0.116,0.515,0.183c0.151,0.068,0.284,0.139,0.395,0.217c0.113,0.078,0.205,0.162,0.277,0.252
						c0.07,0.09,0.104,0.19,0.098,0.3c-0.006,0.11-0.051,0.232-0.136,0.364c-0.087,0.133-0.212,0.277-0.379,0.432
						c-0.169,0.155-0.378,0.323-0.63,0.502l1.666,0.342l9.59-6.083l-1.518-0.255c-0.254,0.13-0.527,0.248-0.82,0.353
						c-0.294,0.107-0.607,0.201-0.939,0.282c-0.334,0.082-0.688,0.151-1.059,0.209c-0.373,0.057-0.765,0.101-1.173,0.132
						c-0.409,0.03-0.904,0.049-1.484,0.056c-0.579,0.006-1.243,0-1.99-0.018c-0.746-0.017-1.575-0.046-2.484-0.088
						c-0.908-0.042-1.896-0.095-2.962-0.159L105.839,92.733"/>
				</g>
			</g>
		</g>
	</g>
	<polygon points="147.264,167.088 146.898,166.873 64.793,118.331 65.281,117.505 147.023,165.832 184.478,117.489 185.236,118.076 
		184.941,118.456 	"/>
	<polygon points="147.255,153.773 64.803,110.94 65.246,110.089 65.672,110.311 147.031,152.576 184.52,110.059 185.239,110.693 	
		"/>
	<polygon points="147.244,139.604 146.949,139.474 64.817,103.077 65.206,102.2 147.042,138.465 184.574,102.154 185.241,102.845 	
		"/>
	<polygon points="147.278,126.701 146.892,126.558 65.199,96.156 65.701,94.807 147.009,125.064 184.108,94.923 185.018,96.041 	"/>
	<polygon points="183.906,95.714 116.433,84.179 65.944,95.551 65.733,94.614 116.408,83.201 116.501,83.217 184.068,94.767 	"/>
</g>
</svg>
