<?xml version="1.0" encoding="utf-8"?>
<!-- Generator: Adobe Illustrator 16.0.2, SVG Export Plug-In . SVG Version: 6.00 Build 0)  -->
<!DOCTYPE svg PUBLIC "-//W3C//DTD SVG 1.1//EN" "http://www.w3.org/Graphics/SVG/1.1/DTD/svg11.dtd">
<svg version="1.1" id="Layer_1" xmlns="http://www.w3.org/2000/svg" xmlns:xlink="http://www.w3.org/1999/xlink" x="0px" y="0px"
	 width="120px" height="120px" viewBox="65 65 120 120" enable-background="new 65 65 120 120" xml:space="preserve">
<g id="bgr">
	<path fill="#79C753" d="M144.693,108.659c0.384-14.479-6.77-25.35-19.717-25.35c-12.342,0-20.056,10.521-19.714,25.35H144.693z"/>
	<polygon fill="#79C753" points="121.156,154.253 118.719,166.854 130.945,166.854 128.275,154.253 	"/>
	<polygon fill="#79C753" points="143.638,128.131 145.656,128.131 145.656,156.813 142.224,166.09 153.49,166.09 151.301,156.813 
		151.301,128.131 152.923,128.131 152.923,108.552 145.077,108.552 104.92,108.552 97.075,108.552 97.075,128.131 98.697,128.131 
		98.697,156.813 96.51,166.09 107.773,166.09 104.343,156.813 104.343,128.131 106.36,128.131 106.375,151.962 143.793,151.962 	"/>
</g>
<g id="icon">
	<polygon points="154.096,166.57 141.533,166.57 145.177,156.727 145.177,128.61 144.117,128.61 144.117,127.65 146.137,127.65 
		146.137,156.898 142.913,165.609 152.883,165.609 150.821,156.813 150.821,127.65 152.443,127.65 152.443,109.031 145.077,109.031 
		145.077,108.071 153.403,108.071 153.403,128.61 151.781,128.61 151.781,156.757 	"/>
	<polygon points="108.462,166.57 95.904,166.57 98.218,156.757 98.218,128.61 96.595,128.61 96.595,108.071 104.92,108.071 
		104.92,109.031 97.555,109.031 97.555,127.65 99.178,127.65 99.164,156.922 97.117,165.609 107.084,165.609 103.862,156.898 
		103.862,127.65 105.88,127.65 105.88,128.61 104.823,128.61 104.823,156.727 	"/>
	<path d="M131.242,167.093h-12.814l2.53-13.08h7.512L131.242,167.093z M119.01,166.613h11.64l-2.569-12.12h-6.727L119.01,166.613z"
		/>
	<path d="M145.16,109.14h-40.368l-0.01-0.469c-0.195-8.459,2.207-15.685,6.762-20.348c3.512-3.594,8.157-5.494,13.432-5.494
		c5.393,0,10.085,1.89,13.569,5.467c4.5,4.622,6.854,11.858,6.628,20.376L145.16,109.14z M105.733,108.18h38.489
		c0.123-8.053-2.129-14.863-6.365-19.214c-3.299-3.387-7.753-5.177-12.881-5.177c-5.01,0-9.417,1.8-12.745,5.205
		C107.94,93.384,105.641,100.183,105.733,108.18z"/>
	<path d="M133.177,100.729h-15.955l1.995-10.536h11.879L133.177,100.729z M117.802,100.25h14.79l-1.891-9.576h-11.087
		L117.802,100.25z"/>
	<path d="M144.273,152.442h-38.379V108.18h38.379V152.442L144.273,152.442z M106.854,151.482h36.459V109.14h-36.459V151.482z"/>
	<path d="M120.124,149.313h-6.608v-5.571h6.608V149.313z M113.996,148.833h5.648v-4.611h-5.648V148.833z"/>
	<path d="M116.872,120.131l-4.392-0.817v-2.843l4.392-0.816l1.157,0.776h2.808l0.271-0.763h12.569l1.383,0.763h2.673v2.924h-2.765
		l-1.288,0.763h-12.573l-0.271-0.763h-2.808L116.872,120.131z M121.447,119.638h12.103l1.288-0.764h2.416v-1.964h-2.316
		l-1.384-0.763h-12.106l-0.271,0.763h-3.292l-1.116-0.749l-3.807,0.709v2.045l3.807,0.709l1.116-0.749h3.292L121.447,119.638z"/>
	<path d="M133.341,125.828l-1.156-0.776h-2.808l-0.272,0.763h-12.572l-1.289-0.763h-2.764v-2.924h2.672l1.383-0.763h12.568
		l0.272,0.763h2.807l1.157-0.777l4.393,0.818v2.843L133.341,125.828z M116.664,125.334h12.103l0.271-0.763h3.292l1.116,0.749
		l3.807-0.708v-2.045l-3.807-0.709l-1.116,0.749h-3.292l-0.271-0.764H116.66l-1.384,0.764h-2.316v1.964h2.416L116.664,125.334z"/>
	<path d="M137.733,114.125H112.48v-3.688h25.253V114.125z M112.96,113.645h24.293v-2.728H112.96V113.645L112.96,113.645z"/>
	<path d="M124.369,88.951h-13.543l4.81-3.76h8.734V88.951z M112.219,88.471h11.67v-2.8H115.8L112.219,88.471z"/>
	<path d="M139.32,88.951h-13.543v-3.76h8.733L139.32,88.951z M126.257,88.471h11.671l-3.582-2.8h-8.089V88.471L126.257,88.471z"/>
	<path d="M125.149,90.982c-2.289,0-4.144,1.855-4.144,4.143c0,2.289,1.854,4.145,4.144,4.145c2.286,0,4.144-1.855,4.144-4.145
		C129.293,92.838,127.436,90.982,125.149,90.982z"/>
	<path d="M134.73,104.169c0,0.821-0.669,1.487-1.49,1.487c-0.822,0-1.488-0.666-1.488-1.487c0-0.823,0.666-1.49,1.488-1.49
		C134.063,102.678,134.73,103.346,134.73,104.169z"/>
</g>
</svg>
