<?xml version="1.0" encoding="utf-8"?>
<!-- Generator: Adobe Illustrator 16.0.2, SVG Export Plug-In . SVG Version: 6.00 Build 0)  -->
<!DOCTYPE svg PUBLIC "-//W3C//DTD SVG 1.1//EN" "http://www.w3.org/Graphics/SVG/1.1/DTD/svg11.dtd">
<svg version="1.1" id="icon" xmlns="http://www.w3.org/2000/svg" xmlns:xlink="http://www.w3.org/1999/xlink" x="0px" y="0px"
	 width="250px" height="250px" viewBox="0 0 250 250" enable-background="new 0 0 250 250" xml:space="preserve">
<g>
	<path d="M96.727,71.359H84.422l-2.156,5.016c-0.531,1.234-0.797,2.156-0.797,2.766c0,0.484,0.23,0.91,0.691,1.277
		s1.457,0.605,2.988,0.715V82H75.141v-0.867c1.328-0.234,2.188-0.539,2.578-0.914c0.797-0.75,1.68-2.273,2.648-4.57l11.18-26.156
		h0.82L103.43,75.93c0.891,2.125,1.699,3.504,2.426,4.137s1.738,0.988,3.035,1.066V82H96.352v-0.867
		c1.266-0.063,2.121-0.273,2.566-0.633s0.668-0.797,0.668-1.313c0-0.688-0.313-1.773-0.938-3.258L96.727,71.359z M96.07,69.625
		L90.68,56.781l-5.531,12.844H96.07z"/>
	<path d="M96.938,123.381c2.203,0.469,3.852,1.219,4.945,2.25c1.516,1.437,2.273,3.195,2.273,5.273c0,1.578-0.5,3.09-1.5,4.535
		s-2.371,2.5-4.113,3.164s-4.402,0.996-7.98,0.996h-15v-0.867h1.195c1.328,0,2.281-0.422,2.859-1.266
		c0.359-0.547,0.539-1.711,0.539-3.492v-20.531c0-1.969-0.227-3.211-0.68-3.727c-0.609-0.688-1.516-1.031-2.719-1.031h-1.195v-0.867
		h13.734c2.563,0,4.617,0.188,6.164,0.563c2.344,0.563,4.133,1.559,5.367,2.988s1.852,3.074,1.852,4.934
		c0,1.594-0.484,3.02-1.453,4.277S98.828,122.772,96.938,123.381z M84.656,122.116c0.578,0.109,1.238,0.191,1.98,0.246
		s1.559,0.082,2.449,0.082c2.281,0,3.996-0.246,5.145-0.738s2.027-1.246,2.637-2.262s0.914-2.125,0.914-3.328
		c0-1.859-0.758-3.445-2.273-4.758s-3.727-1.969-6.633-1.969c-1.563,0-2.969,0.172-4.219,0.516V122.116z M84.656,137.303
		c1.813,0.422,3.602,0.633,5.367,0.633c2.828,0,4.984-0.637,6.469-1.91s2.227-2.848,2.227-4.723c0-1.234-0.336-2.422-1.008-3.563
		s-1.766-2.039-3.281-2.695s-3.391-0.984-5.625-0.984c-0.969,0-1.797,0.016-2.484,0.047s-1.242,0.086-1.664,0.164V137.303z"/>
	<path d="M103.664,164.692l0.727,10.805h-0.727c-0.969-3.234-2.352-5.563-4.148-6.984s-3.953-2.133-6.469-2.133
		c-2.109,0-4.016,0.535-5.719,1.605s-3.043,2.777-4.02,5.121s-1.465,5.258-1.465,8.742c0,2.875,0.461,5.367,1.383,7.477
		s2.309,3.727,4.16,4.852s3.965,1.688,6.34,1.688c2.063,0,3.883-0.441,5.461-1.324s3.313-2.637,5.203-5.262l0.727,0.469
		c-1.594,2.828-3.453,4.898-5.578,6.211s-4.648,1.969-7.57,1.969c-5.266,0-9.344-1.953-12.234-5.859
		c-2.156-2.906-3.234-6.328-3.234-10.266c0-3.172,0.711-6.086,2.133-8.742s3.379-4.715,5.871-6.176s5.215-2.191,8.168-2.191
		c2.297,0,4.563,0.563,6.797,1.688c0.656,0.344,1.125,0.516,1.406,0.516c0.422,0,0.789-0.148,1.102-0.445
		c0.406-0.422,0.695-1.008,0.867-1.758H103.664z"/>
</g>
<g>
	<rect x="124" y="124" width="47" height="1"/>
	<polygon points="171,139 146,139 146,110 171,110 171,111 147,111 147,138 171,138 	"/>
	<rect x="124" y="67" width="47" height="1"/>
	<polygon points="171,82 146,82 146,53 171,53 171,54 147,54 147,81 171,81 	"/>
	<rect x="124" y="182" width="47" height="1"/>
	<polygon points="171,197 146,197 146,168 171,168 171,169 147,169 147,196 171,196 	"/>
</g>
<g>
	<path d="M122.5,70.5c-1.654,0-3-1.346-3-3s1.346-3,3-3s3,1.346,3,3S124.154,70.5,122.5,70.5z M122.5,65.5c-1.103,0-2,0.897-2,2
		s0.897,2,2,2s2-0.897,2-2S123.603,65.5,122.5,65.5z"/>
	<path d="M173.5,56.5c-1.654,0-3-1.346-3-3s1.346-3,3-3s3,1.346,3,3S175.154,56.5,173.5,56.5z M173.5,51.5c-1.103,0-2,0.897-2,2
		s0.897,2,2,2s2-0.897,2-2S174.603,51.5,173.5,51.5z"/>
	<path d="M173.5,70.5c-1.654,0-3-1.346-3-3s1.346-3,3-3s3,1.346,3,3S175.154,70.5,173.5,70.5z M173.5,65.5c-1.103,0-2,0.897-2,2
		s0.897,2,2,2s2-0.897,2-2S174.603,65.5,173.5,65.5z"/>
	<path d="M173.5,84.5c-1.654,0-3-1.346-3-3s1.346-3,3-3s3,1.346,3,3S175.154,84.5,173.5,84.5z M173.5,79.5c-1.103,0-2,0.897-2,2
		s0.897,2,2,2s2-0.897,2-2S174.603,79.5,173.5,79.5z"/>
	<path d="M122.5,127.5c-1.654,0-3-1.346-3-3s1.346-3,3-3s3,1.346,3,3S124.154,127.5,122.5,127.5z M122.5,122.5c-1.103,0-2,0.897-2,2
		s0.897,2,2,2s2-0.897,2-2S123.603,122.5,122.5,122.5z"/>
	<path d="M173.5,113.5c-1.654,0-3-1.346-3-3s1.346-3,3-3s3,1.346,3,3S175.154,113.5,173.5,113.5z M173.5,108.5c-1.103,0-2,0.897-2,2
		s0.897,2,2,2s2-0.897,2-2S174.603,108.5,173.5,108.5z"/>
	<path d="M173.277,127.5c-1.654,0-3-1.346-3-3s1.346-3,3-3s3,1.346,3,3S174.932,127.5,173.277,127.5z M173.277,122.5
		c-1.103,0-2,0.897-2,2s0.897,2,2,2s2-0.897,2-2S174.38,122.5,173.277,122.5z"/>
	<path d="M173.5,141.5c-1.654,0-3-1.346-3-3s1.346-3,3-3s3,1.346,3,3S175.154,141.5,173.5,141.5z M173.5,136.5c-1.103,0-2,0.897-2,2
		s0.897,2,2,2s2-0.897,2-2S174.603,136.5,173.5,136.5z"/>
	<path d="M122.5,185.5c-1.654,0-3-1.346-3-3s1.346-3,3-3s3,1.346,3,3S124.154,185.5,122.5,185.5z M122.5,180.5c-1.103,0-2,0.897-2,2
		s0.897,2,2,2s2-0.897,2-2S123.603,180.5,122.5,180.5z"/>
	<path d="M173.5,171.5c-1.654,0-3-1.346-3-3s1.346-3,3-3s3,1.346,3,3S175.154,171.5,173.5,171.5z M173.5,166.5c-1.103,0-2,0.897-2,2
		s0.897,2,2,2s2-0.897,2-2S174.603,166.5,173.5,166.5z"/>
	<path d="M173.277,185.5c-1.654,0-3-1.346-3-3s1.346-3,3-3s3,1.346,3,3S174.932,185.5,173.277,185.5z M173.277,180.5
		c-1.103,0-2,0.897-2,2s0.897,2,2,2s2-0.897,2-2S174.38,180.5,173.277,180.5z"/>
	<path d="M173.5,199.5c-1.654,0-3-1.346-3-3s1.346-3,3-3s3,1.346,3,3S175.154,199.5,173.5,199.5z M173.5,194.5c-1.103,0-2,0.897-2,2
		s0.897,2,2,2s2-0.897,2-2S174.603,194.5,173.5,194.5z"/>
</g>
</svg>
