<?xml version="1.0" encoding="utf-8"?>
<!-- Generator: Adobe Illustrator 16.0.2, SVG Export Plug-In . SVG Version: 6.00 Build 0)  -->
<!DOCTYPE svg PUBLIC "-//W3C//DTD SVG 1.1//EN" "http://www.w3.org/Graphics/SVG/1.1/DTD/svg11.dtd">
<svg version="1.1" xmlns="http://www.w3.org/2000/svg" xmlns:xlink="http://www.w3.org/1999/xlink" x="0px" y="0px" width="250px"
	 height="250px" viewBox="0 0 250 250" enable-background="new 0 0 250 250" xml:space="preserve">
<g id="bgr">
	<path fill="#79C753" d="M166.027,91c0.801-30.166-14.101-52.813-41.077-52.813c-25.712,0-41.783,21.921-41.072,52.813H166.027z"/>
	<polygon fill="#79C753" points="116.991,185.986 111.914,212.237 137.387,212.237 131.823,185.986 	"/>
	<polyline fill="#79C753" points="83.167,90.775 66.823,90.775 66.823,131.565 70.203,131.565 70.203,191.318 65.646,210.647 
		89.111,210.647 81.964,191.318 81.964,131.565 85.167,131.565 	"/>
	<polyline fill="#79C753" points="164.828,131.565 168.034,131.565 168.034,191.318 160.883,210.647 184.354,210.647 
		179.794,191.318 179.794,131.565 183.173,131.565 183.173,90.775 166.828,90.775 	"/>
</g>
<g id="icon">
	<polygon points="185.617,211.647 159.446,211.647 167.034,191.14 167.034,132.565 164.828,132.565 164.828,130.565 
		169.034,130.565 169.034,191.497 162.319,209.647 183.09,209.647 178.794,191.318 178.794,130.565 182.173,130.565 182.173,91.775 
		166.828,91.775 166.828,89.775 184.173,89.775 184.173,132.565 180.794,132.565 180.794,191.202 	"/>
	<polygon points="90.547,211.647 64.383,211.647 69.203,191.202 69.203,132.565 65.823,132.565 65.823,89.775 83.167,89.775 
		83.167,91.775 67.823,91.775 67.823,130.565 71.203,130.565 71.176,191.548 66.91,209.647 87.675,209.647 80.964,191.497 
		80.964,130.565 85.167,130.565 85.167,132.565 82.964,132.565 82.964,191.14 	"/>
	<path d="M138.004,212.737h-26.696l5.271-27.251h15.65L138.004,212.737z M112.52,211.737h24.25l-5.352-25.251h-14.014
		L112.52,211.737z"/>
	<path d="M167.001,92h-84.1l-0.022-0.977c-0.406-17.624,4.598-32.678,14.089-42.391c7.317-7.488,16.994-11.446,27.982-11.446
		c11.236,0,21.011,3.938,28.268,11.39c9.376,9.628,14.28,24.704,13.81,42.45L167.001,92z M84.861,90h80.187
		c0.257-16.777-4.437-30.964-13.263-40.028c-6.871-7.056-16.15-10.785-26.835-10.785c-10.438,0-19.62,3.75-26.552,10.844
		C89.46,59.176,84.669,73.341,84.861,90z"/>
	<path d="M142.034,74.479h-33.238l4.156-21.95h24.747L142.034,74.479z M110.003,73.479h30.814l-3.94-19.95H113.78L110.003,73.479z"
		/>
	<path d="M165.153,182.214H85.197V90h79.956V182.214z M87.197,180.214h75.956V92H87.197V180.214z"/>
	<path d="M114.842,175.695h-13.767v-11.607h13.767V175.695z M102.075,174.695h11.767v-9.607h-11.767V174.695z"/>
	<path d="M108.067,114.9l-9.15-1.703v-5.923l9.15-1.702l2.411,1.618h5.848l0.566-1.589h26.186l2.882,1.589h5.568v6.092h-5.76
		l-2.683,1.59h-26.193l-0.566-1.59h-5.849L108.067,114.9z M117.598,113.871h25.215l2.683-1.59h5.033v-4.092h-4.826l-2.882-1.589
		h-25.223l-0.566,1.589h-6.857l-2.325-1.56l-7.932,1.476v4.261l7.932,1.477l2.324-1.561h6.858L117.598,113.871z"/>
	<path d="M142.377,126.768l-2.409-1.618h-5.85l-0.566,1.589h-26.192l-2.684-1.589h-5.759v-6.092h5.568l2.882-1.59h26.185l0.566,1.59
		h5.849l2.41-1.619l9.151,1.703v5.923L142.377,126.768z M107.633,125.738h25.214l0.566-1.589h6.859l2.323,1.56l7.933-1.476v-4.261
		l-7.933-1.477l-2.324,1.561h-6.858l-0.566-1.59h-25.222l-2.882,1.59h-4.826v4.092h5.032L107.633,125.738z"/>
	<path d="M151.528,102.386H98.917v-7.683h52.611V102.386z M99.917,101.386h50.611v-5.683H99.917V101.386z"/>
	<path d="M123.686,49.94H95.47l10.02-7.834h18.196V49.94z M98.372,48.94h24.313v-5.834h-16.851L98.372,48.94z"/>
	<path d="M154.835,49.94h-28.216v-7.834h18.195L154.835,49.94z M127.619,48.94h24.313l-7.462-5.834h-16.852V48.94z"/>
	<path d="M125.311,54.173c-4.769,0-8.632,3.865-8.632,8.63c0,4.769,3.863,8.634,8.632,8.634c4.764,0,8.633-3.865,8.633-8.634
		C133.943,58.038,130.074,54.173,125.311,54.173z"/>
	<path d="M145.271,81.645c0,1.71-1.391,3.098-3.102,3.098c-1.714,0-3.101-1.388-3.101-3.098c0-1.716,1.387-3.105,3.101-3.105
		C143.881,78.539,145.271,79.929,145.271,81.645z"/>
</g>
</svg>
