<?xml version="1.0" encoding="utf-8"?>
<!-- Generator: Adobe Illustrator 16.0.2, SVG Export Plug-In . SVG Version: 6.00 Build 0)  -->
<!DOCTYPE svg PUBLIC "-//W3C//DTD SVG 1.1//EN" "http://www.w3.org/Graphics/SVG/1.1/DTD/svg11.dtd">
<svg version="1.1" xmlns="http://www.w3.org/2000/svg" xmlns:xlink="http://www.w3.org/1999/xlink" x="0px" y="0px" width="250px"
	 height="250px" viewBox="0 0 250 250" enable-background="new 0 0 250 250" xml:space="preserve">
<g id="bgr">
	<path fill="#79C753" d="M212.964,214.246c-4.576-3.986-9.628-12.497-15.239-25.885L128.082,22h-5.168L52.492,186.591
		c-6.105,14.468-11.949,23.978-16.968,28.701C33.063,217.655,27,219.487,19,220.964V226h66v-4.491
		c-9-0.618-14.114-1.969-16.725-4.052c-2.613-2.08-3.812-4.494-3.812-7.242c0-3.454,1.56-8.231,4.571-15.229L81.314,166h69.758
		l10.897,26.462c3.54,8.415,5.314,14.348,5.314,18.244c0,2.924-1.734,5.291-4.262,7.329c-2.522,2.039-7.022,3.122-15.022,3.474V227
		h84v-6.036C223,220.472,217.54,218.233,212.964,214.246z M88.791,147.975l28.002-64.521l27.289,64.522L88.791,147.975z"/>
</g>
<g id="icon">
	<path d="M233,228h-86v-7.448l0.956-0.042c7.616-0.335,12.069-1.338,14.438-3.252c2.618-2.111,3.891-4.255,3.891-6.552
		c0-3.69-1.664-9.364-5.236-17.856L150.402,167H81.977l-12.021,28.376c-3.149,7.317-4.492,11.753-4.492,14.839
		c0,2.508,1.124,4.62,3.434,6.46c2.516,2.007,7.805,3.262,16.17,3.836L86,220.575V227H18v-6.868l0.818-0.151
		c8.526-1.573,13.914-3.394,16.013-5.41c5.177-4.872,10.962-14.68,16.739-28.368L122.254,21h6.493l0.258,0.614l69.643,166.362
		c5.464,13.036,10.502,21.621,14.974,25.517c4.69,4.087,10.203,6.023,18.434,6.474l0.945,0.051V228z M149,226h82v-4.097
		c-8.194-0.573-13.824-2.661-18.693-6.903c-4.771-4.156-9.842-12.743-15.504-26.252L127.417,23h-3.843L53.412,186.984
		c-5.882,13.938-11.832,23.98-17.202,29.036c-2.339,2.246-7.648,4.139-16.21,5.773V225h64v-2.562
		c-8.36-0.641-13.568-1.981-16.348-4.2c-2.779-2.211-4.188-4.911-4.188-8.023c0-3.419,1.348-7.946,4.653-15.624L80.652,165h71.09
		l11.152,27.081c3.676,8.738,5.39,14.659,5.39,18.625c0,2.941-1.516,5.593-4.634,8.107c-2.649,2.142-7.059,3.245-14.65,3.648V226z
		 M145.591,148.977l-58.324-0.002l29.538-68.06L145.591,148.977z M90.315,146.975l52.258,0.002l-25.792-60.983L90.315,146.975z"/>
	<g>
		<rect x="116.622" y="67.562" transform="matrix(0.9992 0.041 -0.041 0.9992 3.1961 -4.7409)" width="1" height="15.899"/>
		<rect x="75.943" y="162.25" transform="matrix(0.4397 0.8981 -0.8981 0.4397 190.8128 19.629)" width="7.462" height="1"/>
		<rect x="152.807" y="158.723" transform="matrix(0.8321 0.5547 -0.5547 0.8321 116.0256 -57.7056)" width="1" height="8.056"/>
		<rect x="83.083" y="220.737" transform="matrix(0.9735 0.2287 -0.2287 0.9735 52.835 -13.4106)" width="2.382" height="0.999"/>
		<rect x="150.564" y="219.102" transform="matrix(0.1269 0.9919 -0.9919 0.1269 351.3385 43.3151)" width="1" height="4.268"/>
	</g>
	<g>
		<rect x="60.576" y="212.309" width="4.433" height="1"/>
		<rect x="61.64" y="197.709" transform="matrix(0.7798 0.626 -0.626 0.7798 138.3069 3.2083)" width="5.906" height="1"/>
		<rect x="167.429" y="194.786" transform="matrix(0.5407 0.8412 -0.8412 0.5407 243.8787 -50.224)" width="1.001" height="6.846"/>
		<rect x="169.216" y="210.205" transform="matrix(0.1288 0.9917 -0.9917 0.1288 359.265 17.4232)" width="1.001" height="5.973"/>
	</g>
	<g>
		<rect x="61.521" y="130.453" transform="matrix(0.3934 0.9194 -0.9194 0.3934 217.0959 -67.1385)" width="195.813" height="1"/>
		<rect x="123.995" y="21.007" transform="matrix(0.9373 0.3486 -0.3486 0.9373 18.7159 -41.4306)" width="1" height="20.58"/>
		<rect x="121.411" y="21.6" transform="matrix(0.9946 0.1035 -0.1035 0.9946 3.8924 -12.4456)" width="1" height="19.393"/>
		<rect x="118.68" y="40.83" transform="matrix(0.9916 0.129 -0.129 0.9916 7.9921 -14.9167)" width="1" height="26.85"/>
		
			<rect x="151.288" y="149.388" transform="matrix(0.9856 0.1689 -0.1689 0.9856 27.6134 -24.8152)" width="16.737" height="1.001"/>
		<rect x="161.223" y="147.961" transform="matrix(0.5488 0.8359 -0.8359 0.5488 202.8282 -65.1002)" width="1" height="14.778"/>
		
			<rect x="174.026" y="143.117" transform="matrix(0.2089 0.9779 -0.9779 0.2089 284.6567 -52.095)" width="1.001" height="13.543"/>
		<rect x="78.09" y="145.628" transform="matrix(0.332 0.9433 -0.9433 0.332 193.8844 25.9923)" width="1" height="8.521"/>
		<rect x="71.899" y="154.85" transform="matrix(0.3931 0.9195 -0.9195 0.3931 189.1516 24.1223)" width="8.807" height="1"/>
		<rect x="153.181" y="220.464" width="78.985" height="1"/>
		
			<rect x="172.036" y="216.387" transform="matrix(0.9517 0.3071 -0.3071 0.9517 75.5696 -46.4327)" width="26.553" height="0.999"/>
		<rect x="166.064" y="208.162" transform="matrix(0.7408 0.6717 -0.6717 0.7408 187.9384 -69.767)" width="36.63" height="1"/>
		<rect x="199.178" y="196.239" transform="matrix(0.9903 0.1387 -0.1387 0.9903 30.8682 -25.6761)" width="1" height="24.846"/>
		<rect x="204.261" y="208.946" transform="matrix(0.5139 0.8578 -0.8578 0.5139 285.5831 -70.2276)" width="1" height="15.881"/>
		<rect x="197.447" y="220.964" width="1" height="5.462"/>
		<rect x="82.615" y="33.329" transform="matrix(0.9221 0.3868 -0.3868 0.9221 57.1274 -21.9569)" width="1" height="195.247"/>
		<rect x="19.568" y="220.464" width="63.041" height="1"/>
		<rect x="68.386" y="149.388" transform="matrix(0.9007 0.4344 -0.4344 0.9007 72.2209 -16.2396)" width="6.508" height="1"/>
		<rect x="52.448" y="208.237" transform="matrix(0.4712 0.882 -0.882 0.4712 219.2908 67.9785)" width="1.001" height="17.298"/>
		<rect x="53.305" y="193.718" transform="matrix(0.8229 0.5681 -0.5681 0.8229 128.0774 6.3786)" width="1" height="29.888"/>
		<rect x="46.166" y="196.287" transform="matrix(0.994 0.1094 -0.1094 0.994 23.0991 -3.8519)" width="1" height="24.75"/>
		<rect x="36.218" y="216.386" transform="matrix(0.6658 0.7462 -0.7462 0.6658 175.7665 41.3905)" width="10.93" height="1"/>
		<rect x="44.821" y="220.964" width="1" height="5.462"/>
	</g>
	<g>
		<path d="M232.666,226.926h-79.985v-6.438l0.476-0.023c7.826-0.386,13.168-1.69,15.876-3.877c2.669-2.151,4.021-4.802,4.021-7.879
			c0-4.237-1.974-11.076-5.866-20.327l-11.978-28.482H78.362L64.909,191.19c-3.303,7.677-4.978,13.472-4.978,17.224
			c0,2.88,1.401,5.456,4.166,7.655c2.811,2.241,9.051,3.72,18.548,4.396l0.464,0.033v6.428H19.068v-6.382l0.413-0.072
			c8.229-1.453,13.605-3.347,15.981-5.627c4.944-4.654,10.518-14.283,16.569-28.622l70.552-165.07h5.831l0.128,0.307l69.684,166.535
			c5.555,13.251,10.651,21.957,15.148,25.875c4.469,3.894,10.801,6.112,18.821,6.596l0.47,0.028V226.926z M153.681,225.926h77.985
			v-4.493c-8.024-0.555-14.397-2.845-18.947-6.81c-4.614-4.02-9.801-12.849-15.414-26.242L127.749,22.152h-4.505L52.952,186.613
			c-6.105,14.467-11.758,24.209-16.801,28.956c-2.511,2.411-7.776,4.315-16.083,5.813v4.543h62.041v-4.497
			c-9.572-0.714-15.67-2.212-18.636-4.577c-3.015-2.398-4.543-5.237-4.543-8.438c0-3.889,1.702-9.816,5.059-17.618l13.714-31.896
			h78.17l12.235,29.095c3.944,9.374,5.944,16.344,5.944,20.715c0,3.395-1.479,6.307-4.394,8.657
			c-2.859,2.309-8.089,3.643-15.979,4.072V225.926z M152.16,148.975H81.85l0.301-0.697l35.307-81.987L152.16,148.975z
			 M83.369,147.975h67.287l-33.211-79.128L83.369,147.975z"/>
	</g>
</g>
</svg>
