<?xml version="1.0" encoding="utf-8"?>
<!-- Generator: Adobe Illustrator 16.0.2, SVG Export Plug-In . SVG Version: 6.00 Build 0)  -->
<!DOCTYPE svg PUBLIC "-//W3C//DTD SVG 1.1//EN" "http://www.w3.org/Graphics/SVG/1.1/DTD/svg11.dtd">
<svg version="1.1" id="Layer_1" xmlns="http://www.w3.org/2000/svg" xmlns:xlink="http://www.w3.org/1999/xlink" x="0px" y="0px"
	 width="120px" height="120px" viewBox="65 65 120 120" enable-background="new 65 65 120 120" xml:space="preserve">
<g id="bgr">
	<path fill="#79C753" d="M167.482,167.578c-2.196-1.913-4.621-5.998-7.314-12.425L126.739,75.3h-2.48l-33.803,79.003
		c-2.931,6.944-5.735,11.509-8.145,13.776c-1.182,1.135-4.092,2.014-7.932,2.723v2.418h31.68v-2.156
		c-4.32-0.297-6.774-0.945-8.028-1.945c-1.254-0.998-1.83-2.156-1.83-3.476c0-1.657,0.749-3.951,2.194-7.31l5.894-13.914h33.484
		l5.23,12.702c1.699,4.039,2.551,6.888,2.551,8.757c0,1.403-0.833,2.54-2.046,3.519c-1.211,0.979-3.37,1.498-7.211,1.667v2.636
		h40.32v-2.897C172.3,170.567,169.679,169.492,167.482,167.578z M107.879,135.768l13.441-30.97l13.099,30.972L107.879,135.768z"/>
</g>
<g id="icon">
	<path d="M177.1,174.18H135.82v-3.574l0.458-0.021c3.656-0.161,5.794-0.643,6.931-1.562c1.256-1.013,1.867-2.042,1.867-3.145
		c0-1.771-0.799-4.494-2.513-8.57l-5.11-12.408h-32.845l-5.77,13.62c-1.512,3.513-2.156,5.642-2.156,7.123
		c0,1.204,0.539,2.218,1.648,3.101c1.208,0.963,3.746,1.566,7.761,1.842l0.448,0.03v3.084H73.899v-3.297l0.393-0.072
		c4.093-0.755,6.679-1.629,7.687-2.597c2.485-2.339,5.262-7.047,8.035-13.617l33.928-79.297h3.117l0.123,0.294l33.43,79.854
		c2.622,6.257,5.041,10.379,7.188,12.248c2.251,1.962,4.896,2.891,8.848,3.107l0.454,0.024L177.1,174.18L177.1,174.18z
		 M136.779,173.221h39.36v-1.967c-3.933-0.275-6.636-1.277-8.973-3.313c-2.29-1.995-4.724-6.117-7.442-12.601L126.42,75.78h-1.845
		l-33.678,78.712c-2.823,6.69-5.679,11.511-8.257,13.938c-1.123,1.078-3.671,1.987-7.781,2.771v1.539h30.72v-1.23
		c-4.013-0.307-6.513-0.95-7.848-2.016c-1.333-1.061-2.01-2.357-2.01-3.851c0-1.642,0.647-3.813,2.233-7.5l6.017-14.203h34.123
		l5.354,12.999c1.765,4.193,2.587,7.036,2.587,8.939c0,1.412-0.728,2.685-2.224,3.892c-1.272,1.028-3.389,1.558-7.033,1.751V173.221
		L136.779,173.221z M135.144,136.249l-27.996-0.001l14.178-32.669L135.144,136.249z M108.611,135.288l25.084,0.001l-12.381-29.271
		L108.611,135.288z"/>
	<g>
		<rect x="121.241" y="97.17" transform="matrix(-0.9991 -0.0417 0.0417 -0.9991 238.649 206.9464)" width="0.48" height="7.632"/>
		
			<rect x="101.715" y="142.619" transform="matrix(-0.4397 -0.8982 0.8982 -0.4397 20.7054 298.6342)" width="3.582" height="0.48"/>
		
			<rect x="138.611" y="140.931" transform="matrix(-0.8327 -0.5538 0.5538 -0.8327 175.3554 338.7147)" width="0.48" height="3.867"/>
		
			<rect x="105.142" y="170.695" transform="matrix(-0.9735 -0.2288 0.2288 -0.9735 169.5037 361.5244)" width="1.144" height="0.479"/>
		<rect x="137.53" y="169.907" transform="matrix(-0.126 -0.992 0.992 -0.126 -14.4331 329.146)" width="0.48" height="2.048"/>
	</g>
	<g>
		<rect x="94.336" y="166.648" width="2.127" height="0.48"/>
		<rect x="94.849" y="159.639" transform="matrix(-0.7797 -0.6261 0.6261 -0.7797 71.2241 344.816)" width="2.836" height="0.48"/>
		
			<rect x="145.632" y="158.238" transform="matrix(-0.5396 -0.8419 0.8419 -0.5396 89.9863 368.9682)" width="0.481" height="3.285"/>
		<rect x="146.476" y="165.637" transform="matrix(-0.13 -0.9915 0.9915 -0.13 0.1422 334.2673)" width="0.481" height="2.868"/>
	</g>
	<g>
		
			<rect x="94.783" y="127.359" transform="matrix(-0.3934 -0.9194 0.9194 -0.3934 80.2431 308.1431)" width="93.993" height="0.48"/>
		
			<rect x="124.777" y="74.826" transform="matrix(-0.9376 -0.3478 0.3478 -0.9376 214.4895 198.0302)" width="0.48" height="9.878"/>
		<rect x="123.534" y="75.11" transform="matrix(-0.9946 -0.1037 0.1037 -0.9946 238.607 171.9373)" width="0.48" height="9.308"/>
		
			<rect x="122.222" y="84.34" transform="matrix(-0.9915 -0.1302 0.1302 -0.9915 232.0661 196.7344)" width="0.48" height="12.887"/>
		<rect x="137.877" y="136.443" transform="matrix(-0.9856 -0.169 0.169 -0.9856 258.6525 295.3758)" width="8.033" height="0.48"/>
		
			<rect x="142.648" y="135.757" transform="matrix(-0.5491 -0.8358 0.8358 -0.5491 104.9135 335.212)" width="0.48" height="7.093"/>
		
			<rect x="148.798" y="133.435" transform="matrix(-0.2094 -0.9778 0.9778 -0.2094 46.5903 311.0409)" width="0.48" height="6.501"/>
		<rect x="102.741" y="134.642" transform="matrix(-0.3314 -0.9435 0.9435 -0.3314 8.1522 279.1508)" width="0.48" height="4.091"/>
		<rect x="99.771" y="139.068" transform="matrix(-0.3931 -0.9195 0.9195 -0.3931 13.8442 287.7538)" width="4.228" height="0.48"/>
		<rect x="138.787" y="170.563" width="37.912" height="0.48"/>
		
			<rect x="147.843" y="168.607" transform="matrix(-0.9517 -0.3071 0.3071 -0.9517 249.1295 376.8917)" width="12.746" height="0.479"/>
		
			<rect x="144.965" y="164.656" transform="matrix(-0.7408 -0.6717 0.6717 -0.7408 156.8891 390.3323)" width="17.582" height="0.48"/>
		
			<rect x="160.861" y="158.933" transform="matrix(-0.9904 -0.1386 0.1386 -0.9904 297.7978 350.5236)" width="0.479" height="11.926"/>
		
			<rect x="163.307" y="165.029" transform="matrix(-0.5151 -0.8571 0.8571 -0.5151 103.0699 395.9894)" width="0.48" height="7.622"/>
		<rect x="160.034" y="170.803" width="0.48" height="2.622"/>
		
			<rect x="104.915" y="80.736" transform="matrix(-0.9218 -0.3876 0.3876 -0.9218 152.6267 285.9719)" width="0.48" height="93.713"/>
		<rect x="74.652" y="170.563" width="30.26" height="0.48"/>
		<rect x="98.083" y="136.445" transform="matrix(-0.9008 -0.4342 0.4342 -0.9008 130.053 303.0807)" width="3.124" height="0.48"/>
		
			<rect x="90.434" y="164.689" transform="matrix(-0.4714 -0.8819 0.8819 -0.4714 -15.4801 328.4037)" width="0.481" height="8.303"/>
		
			<rect x="90.85" y="157.721" transform="matrix(-0.8238 -0.5669 0.5669 -0.8238 72.6557 352.3709)" width="0.479" height="14.346"/>
		
			<rect x="87.415" y="158.959" transform="matrix(-0.9942 -0.1078 0.1078 -0.9942 157.0317 338.2839)" width="0.48" height="11.881"/>
		
			<rect x="82.642" y="168.611" transform="matrix(-0.6658 -0.7462 0.7462 -0.6658 16.0413 344.8877)" width="5.247" height="0.481"/>
		<rect x="86.773" y="170.803" width="0.48" height="2.622"/>
	</g>
	<g>
		<path d="M176.939,173.664h-38.393v-3.09l0.229-0.011c3.756-0.186,6.32-0.812,7.62-1.861c1.281-1.032,1.931-2.305,1.931-3.781
			c0-2.034-0.948-5.317-2.816-9.757l-5.749-13.672h-36.887l-6.458,15.02c-1.585,3.685-2.39,6.467-2.39,8.268
			c0,1.382,0.673,2.619,2,3.674c1.35,1.076,4.345,1.786,8.903,2.11l0.223,0.016v3.085h-30.74v-3.063l0.198-0.034
			c3.95-0.698,6.531-1.607,7.671-2.701c2.374-2.234,5.049-6.856,7.954-13.739L124.1,74.894h2.799l0.062,0.147l33.448,79.937
			c2.666,6.36,5.112,10.54,7.271,12.421c2.145,1.868,5.184,2.934,9.034,3.165l0.226,0.014V173.664L176.939,173.664z
			 M139.027,173.185h37.432v-2.156c-3.851-0.267-6.91-1.366-9.094-3.269c-2.215-1.93-4.705-6.168-7.399-12.597l-33.387-79.79h-2.162
			l-33.74,78.941c-2.931,6.944-5.644,11.62-8.064,13.898c-1.205,1.158-3.732,2.071-7.72,2.791v2.18h29.779v-2.158
			c-4.594-0.343-7.521-1.062-8.945-2.196c-1.447-1.151-2.181-2.515-2.181-4.051c0-1.867,0.817-4.711,2.429-8.456l6.583-15.311
			h37.521l5.872,13.966c1.894,4.499,2.854,7.845,2.854,9.943c0,1.629-0.71,3.026-2.109,4.155c-1.372,1.107-3.883,1.748-7.669,1.954
			L139.027,173.185L139.027,173.185z M138.297,136.248h-33.749l0.145-0.335L121.64,96.56L138.297,136.248z M105.277,135.768h32.297
			l-15.941-37.98L105.277,135.768z"/>
	</g>
</g>
</svg>
