<?xml version="1.0" encoding="utf-8"?>
<!-- Generator: Adobe Illustrator 16.0.2, SVG Export Plug-In . SVG Version: 6.00 Build 0)  -->
<!DOCTYPE svg PUBLIC "-//W3C//DTD SVG 1.1//EN" "http://www.w3.org/Graphics/SVG/1.1/DTD/svg11.dtd">
<svg version="1.1" id="icon" xmlns="http://www.w3.org/2000/svg" xmlns:xlink="http://www.w3.org/1999/xlink" x="0px" y="0px"
	 width="120px" height="120px" viewBox="65 65 120 120" enable-background="new 65 65 120 120" xml:space="preserve">
<path d="M111.167,108.185l-1.768-4.809h-6.706l-1.768,4.809h-1.175l5.833-15.46h1.013l5.768,15.46H111.167z M106.423,95.247
	c-0.079-0.215-0.144-0.428-0.194-0.636c-0.05-0.18-0.104-0.359-0.161-0.539h-0.043c-0.123,0.474-0.241,0.858-0.356,1.153
	l-2.598,7.17h5.962L106.423,95.247z"/>
<path d="M122.506,102.882l-1.949,5.252c-0.034,0.092-0.11,0.148-0.229,0.165c-0.151,0.017-0.325,0.029-0.519,0.038
	c-0.194,0.009-0.413,0.012-0.658,0.012c-0.135,0-0.203-0.042-0.203-0.126c0-0.025,0.004-0.047,0.012-0.063l5.797-13.896
	l-0.266-0.734c-0.017-0.067-0.025-0.113-0.025-0.139c0-0.127,0.08-0.203,0.24-0.228c0.135-0.026,0.293-0.048,0.475-0.07
	c0.182-0.021,0.356-0.04,0.525-0.057c0.169-0.018,0.324-0.03,0.469-0.038c0.144-0.009,0.249-0.013,0.315-0.013
	c0.169,0,0.292,0.097,0.368,0.291l5.645,14.529c0.025,0.068,0.037,0.114,0.037,0.14c0,0.144-0.084,0.228-0.252,0.253
	c-0.152,0.025-0.322,0.048-0.513,0.07c-0.19,0.021-0.376,0.038-0.557,0.05c-0.182,0.012-0.349,0.021-0.501,0.025
	c-0.151,0.004-0.261,0.006-0.328,0.006c-0.144,0-0.24-0.063-0.291-0.19l-2.063-5.366L122.506,102.882z M122.911,101.806h4.746
	l-2.404-6.277L122.911,101.806z"/>
<path d="M147.588,102.438h-5.193l-2.09,5.747h-0.9l5.588-15.347l5.578,15.347h-0.891L147.588,102.438z M147.278,101.594
	l-2.287-6.291l-2.288,6.291H147.278z"/>
<path d="M106.698,127.42h-6.728l-1.377,3.741h1.962c0.244,0,0.418,0.047,0.524,0.141c0.106,0.093,0.159,0.217,0.159,0.371
	c0,0.146-0.053,0.269-0.159,0.366c-0.105,0.097-0.28,0.146-0.524,0.146h-3.827c-0.244,0-0.418-0.049-0.524-0.146
	c-0.105-0.098-0.158-0.22-0.158-0.366c0-0.154,0.053-0.278,0.158-0.371c0.105-0.094,0.28-0.141,0.524-0.141h0.792l4.522-12.212
	H99.02c-0.244,0-0.418-0.047-0.524-0.14c-0.105-0.093-0.158-0.218-0.158-0.372c0-0.154,0.053-0.278,0.158-0.371
	c0.105-0.093,0.28-0.141,0.524-0.141h5.156l4.996,13.236h0.792c0.244,0,0.418,0.047,0.524,0.14s0.158,0.218,0.158,0.372
	c0,0.146-0.053,0.268-0.158,0.365s-0.28,0.146-0.524,0.146h-3.814c-0.252,0-0.431-0.049-0.536-0.146
	c-0.106-0.098-0.159-0.22-0.159-0.365c0-0.154,0.053-0.279,0.159-0.372c0.105-0.093,0.284-0.14,0.536-0.14h1.95L106.698,127.42z
	 M106.309,126.396l-2.828-7.446h-0.377l-2.742,7.446H106.309z"/>
<path d="M127.119,127.077h-5.906l-1.035,2.407c-0.255,0.593-0.382,1.035-0.382,1.328c0,0.232,0.11,0.437,0.331,0.613
	c0.222,0.176,0.7,0.29,1.435,0.343v0.416h-4.804v-0.416c0.638-0.112,1.051-0.259,1.238-0.438c0.382-0.36,0.806-1.091,1.271-2.193
	l5.366-12.555h0.394l5.311,12.689c0.428,1.021,0.815,1.683,1.164,1.986s0.835,0.475,1.457,0.512v0.416h-6.019v-0.416
	c0.607-0.03,1.018-0.131,1.231-0.304s0.321-0.383,0.321-0.631c0-0.33-0.15-0.851-0.451-1.563L127.119,127.077z M126.805,126.245
	l-2.588-6.165l-2.655,6.165H126.805z"/>
<path d="M148.438,132.185c-0.07,0-0.106-0.034-0.106-0.105v-0.56c0-0.076,0.036-0.115,0.106-0.115l1.688-0.169
	c0.042,0,0.07-0.014,0.084-0.042c0.016-0.028,0.014-0.063,0-0.105l-1.604-4.24c-0.027-0.042-0.056-0.063-0.084-0.063h-4.704
	c-0.035,0.007-0.063,0.027-0.084,0.063l-1.709,4.282c-0.035,0.091,0,0.141,0.105,0.147l1.624,0.127
	c0.07,0.008,0.105,0.047,0.105,0.115v0.56c0,0.07-0.035,0.105-0.105,0.105h-4.672c-0.07,0-0.105-0.034-0.105-0.105v-0.56
	c0-0.076,0.035-0.115,0.105-0.115l1.771-0.169c0.036-0.007,0.064-0.028,0.084-0.063l5.496-13.827
	c0.027-0.042,0.056-0.063,0.084-0.063h0.537c0.036,0.007,0.064,0.028,0.085,0.063l5.052,13.807c0.015,0.042,0.047,0.063,0.096,0.063
	l1.719,0.189c0.063,0,0.094,0.039,0.094,0.115v0.56c0,0.07-0.038,0.105-0.115,0.105H148.438z M146.338,120.563
	c-0.027-0.042-0.057-0.063-0.084-0.063c-0.043,0-0.07,0.021-0.084,0.063l-2.036,5.168c-0.042,0.098-0.01,0.147,0.095,0.147h3.903
	c0.112,0,0.15-0.05,0.115-0.147L146.338,120.563z"/>
<path d="M104.942,140.988c1.2,0,2.167,0.258,2.902,0.773c0.734,0.515,1.102,1.217,1.102,2.104v12.318h-1.604v-8.803h-7.2v8.803
	h-1.603v-12.318c0-0.888,0.367-1.59,1.102-2.104c0.734-0.516,1.701-0.773,2.901-0.773H104.942z M107.342,146.585v-2.278
	c0-0.169-0.003-0.314-0.01-0.44c-0.006-0.125-0.026-0.281-0.061-0.469c-0.035-0.188-0.083-0.349-0.146-0.483
	c-0.063-0.134-0.153-0.276-0.271-0.426c-0.119-0.15-0.26-0.273-0.422-0.371c-0.163-0.096-0.372-0.176-0.628-0.238
	s-0.544-0.094-0.863-0.094h-2.4c-0.318,0-0.605,0.031-0.862,0.094c-0.256,0.063-0.465,0.143-0.628,0.238
	c-0.163,0.098-0.304,0.221-0.422,0.371c-0.119,0.149-0.21,0.291-0.272,0.426s-0.111,0.296-0.146,0.483s-0.055,0.344-0.061,0.469
	c-0.006,0.126-0.01,0.271-0.01,0.44v2.278H107.342z"/>
<path d="M133.086,155.504c0,0.275-0.087,0.511-0.262,0.707c-0.176,0.196-0.404,0.293-0.687,0.293c-0.124,0-0.224-0.027-0.299-0.082
	c-0.097-0.076-0.203-0.177-0.319-0.305c-0.117-0.127-0.241-0.286-0.372-0.479c-0.254-0.393-0.486-0.803-0.695-1.232
	c-0.21-0.43-0.381-0.81-0.511-1.14c-0.034-0.096-0.069-0.185-0.107-0.263c-0.039-0.079-0.076-0.161-0.114-0.248
	c-0.038-0.086-0.077-0.179-0.118-0.278s-0.086-0.222-0.134-0.366c-0.2-0.591-0.344-0.979-0.433-1.165
	c-0.098,0.097-0.189,0.169-0.279,0.221s-0.184,0.091-0.283,0.114s-0.203,0.037-0.31,0.041s-0.222,0.006-0.346,0.006
	c-0.069,0-0.155,0.014-0.258,0.041c-0.104,0.027-0.214,0.058-0.335,0.093c-0.12,0.034-0.239,0.071-0.355,0.112
	c-0.117,0.042-0.228,0.076-0.33,0.104c-0.345,0.097-0.691,0.183-1.042,0.258c-0.351,0.076-0.711,0.149-1.083,0.222
	s-0.76,0.142-1.166,0.206c-0.406,0.066-0.835,0.137-1.29,0.212c-0.206,0.034-0.402,0.169-0.588,0.401
	c-0.179,0.241-0.55,0.757-1.113,1.548c-0.55,0.784-1.018,1.357-1.402,1.722c-0.378,0.365-0.746,0.547-1.104,0.547
	c-0.454,0-0.832-0.09-1.135-0.268c-0.343-0.221-0.516-0.454-0.516-0.701c0-0.131,0.074-0.226,0.222-0.284s0.349-0.112,0.603-0.159
	c0.083-0.008,0.271-0.176,0.567-0.506c0.282-0.316,0.495-0.578,0.64-0.784c0.289-0.378,0.583-0.782,0.882-1.212
	s0.634-0.912,1.005-1.449c0.179-0.274,0.337-0.512,0.474-0.711c0.138-0.199,0.251-0.367,0.341-0.506
	c0.096-0.137,0.204-0.291,0.325-0.464c0.12-0.171,0.259-0.364,0.417-0.577c0.069-0.096,0.151-0.213,0.248-0.35
	c0.096-0.139,0.209-0.293,0.34-0.465c0.131-0.179,0.25-0.336,0.355-0.475c0.107-0.138,0.198-0.262,0.273-0.371
	c0.083-0.109,0.188-0.247,0.314-0.412s0.276-0.361,0.449-0.588c0.055-0.068,0.163-0.229,0.325-0.484
	c0.162-0.254,0.379-0.605,0.655-1.053c0.385-0.639,0.636-1.106,0.752-1.402c0.806-1.951,1.409-2.929,1.815-2.929
	c0.179,0,0.323,0.016,0.433,0.047c0.11,0.03,0.196,0.082,0.258,0.154c0.063,0.072,0.104,0.169,0.124,0.289s0.031,0.267,0.031,0.438
	c0,0.117,0,0.22,0,0.309c0,0.091-0.004,0.162-0.011,0.217c-0.007,0.109-0.014,0.252-0.021,0.423
	c-0.007,0.173-0.018,0.375-0.031,0.609c0.345,0.722,0.671,1.498,0.98,2.33c0.158,0.42,0.325,0.878,0.5,1.376
	c0.176,0.499,0.362,1.047,0.562,1.646c0.2,0.592,0.375,1.097,0.526,1.516c0.15,0.42,0.274,0.76,0.371,1.021
	c0.097,0.261,0.211,0.561,0.346,0.897c0.135,0.336,0.294,0.718,0.479,1.145c0.068,0.158,0.326,0.539,0.773,1.145
	C132.866,154.81,133.086,155.244,133.086,155.504z M128.518,149.409c-0.123-0.378-0.258-0.785-0.401-1.222
	c-0.145-0.437-0.294-0.873-0.449-1.311c-0.155-0.436-0.313-0.856-0.475-1.263c-0.161-0.405-0.321-0.767-0.479-1.083
	c-0.385,0.522-0.75,1.024-1.093,1.506c-0.344,0.481-0.675,0.964-0.995,1.449c-0.319,0.484-0.636,0.98-0.949,1.489
	c-0.313,0.51-0.63,1.052-0.954,1.63c0.075,0.027,0.145,0.041,0.206,0.041c0.104,0,0.235-0.008,0.397-0.025
	c0.161-0.018,0.326-0.038,0.495-0.063c0.168-0.023,0.33-0.049,0.485-0.076c0.154-0.028,0.28-0.052,0.376-0.072
	c0.166-0.041,0.308-0.076,0.429-0.104c0.12-0.027,0.235-0.055,0.346-0.082c0.11-0.028,0.229-0.058,0.355-0.089
	c0.126-0.03,0.279-0.067,0.458-0.108c0.398-0.104,0.795-0.207,1.187-0.314C127.848,149.607,128.201,149.506,128.518,149.409z"/>
<path d="M151.65,156.37c0,0.399-0.254,0.6-0.76,0.6c-0.197,0-0.332-0.015-0.405-0.042c-1.878-1.924-3.712-2.886-5.501-2.886
	c-0.394,0-1.221,0.157-2.48,0.472c-0.395,0.096-0.743,0.436-1.047,1.021c-0.072,0.134-0.271,0.607-0.59,1.417
	c-0.079,0.067-0.259,0.169-0.54,0.304c-0.181-0.174-0.271-0.413-0.271-0.717c0-1.086,0.264-2.211,0.793-3.375
	c0.135-0.214,0.331-0.543,0.59-0.987l1.527-3.351c1.243-2.688,2.422-4.979,3.535-6.868l0.009,0.262
	c0.265-0.124,0.464-0.458,0.599-1.004c0.125-0.489,0.311-0.734,0.557-0.734c0.023-0.017,0.054-0.025,0.094-0.025
	c0.162,0,0.292,0.133,0.388,0.397c0.017,0.066,0.096,0.398,0.236,0.995c0.512,2.165,1.044,4.68,1.595,7.543l0.506,2.633
	c0.124,0.241,0.284,0.602,0.481,1.08c0.091,0.298,0.222,0.844,0.396,1.637C151.555,155.608,151.65,156.151,151.65,156.37z
	 M150.014,154.902v-0.498c0-0.225-0.161-1.187-0.481-2.886l-0.827-4.379c-0.253-1.372-0.655-2.793-1.207-4.261
	c-0.72,0.76-1.689,2.573-2.91,5.442l-0.566,1.308c-0.134,0.191-0.252,0.37-0.354,0.536c-0.102,0.165-0.31,0.629-0.624,1.388
	c-0.332,0.793-0.498,1.243-0.498,1.351c0,0.174,0.045,0.262,0.135,0.262l2.37-0.101c0.102-0.007,0.203-0.01,0.305-0.01
	c0.82,0,1.597,0.15,2.329,0.448C148.225,153.727,149,154.193,150.014,154.902z"/>
</svg>
