<?xml version="1.0" encoding="utf-8"?>
<!-- Generator: Adobe Illustrator 16.0.2, SVG Export Plug-In . SVG Version: 6.00 Build 0)  -->
<!DOCTYPE svg PUBLIC "-//W3C//DTD SVG 1.1//EN" "http://www.w3.org/Graphics/SVG/1.1/DTD/svg11.dtd">
<svg version="1.1" id="icon" xmlns="http://www.w3.org/2000/svg" xmlns:xlink="http://www.w3.org/1999/xlink" x="0px" y="0px"
	 width="250px" height="250px" viewBox="0 0 250 250" enable-background="new 0 0 250 250" xml:space="preserve">
<path d="M96.101,89.979l-3.684-10.018H78.447l-3.684,10.018h-2.448L84.466,57.77h2.111l12.017,32.209H96.101z M86.218,63.025
	c-0.165-0.449-0.3-0.891-0.404-1.325c-0.105-0.374-0.217-0.749-0.337-1.123h-0.09c-0.255,0.988-0.502,1.789-0.741,2.403
	l-5.413,14.937h12.421L86.218,63.025z"/>
<path d="M119.724,78.931l-4.061,10.942c-0.07,0.193-0.229,0.308-0.475,0.343c-0.316,0.035-0.677,0.062-1.081,0.079
	c-0.405,0.018-0.861,0.026-1.371,0.026c-0.281,0-0.422-0.088-0.422-0.264c0-0.053,0.009-0.097,0.026-0.132l12.076-28.951
	l-0.554-1.529c-0.036-0.141-0.053-0.237-0.053-0.29c0-0.264,0.167-0.422,0.501-0.475c0.281-0.053,0.61-0.101,0.989-0.146
	c0.378-0.043,0.742-0.083,1.094-0.118s0.677-0.062,0.977-0.079c0.299-0.018,0.518-0.026,0.658-0.026
	c0.352,0,0.607,0.202,0.766,0.606l11.76,30.27c0.053,0.141,0.078,0.237,0.078,0.29c0,0.299-0.176,0.475-0.527,0.527
	c-0.316,0.053-0.672,0.101-1.067,0.146c-0.396,0.043-0.782,0.078-1.16,0.105c-0.378,0.025-0.726,0.043-1.042,0.053
	c-0.316,0.008-0.545,0.013-0.686,0.013c-0.299,0-0.5-0.132-0.605-0.396l-4.299-11.18L119.724,78.931z M120.568,76.689h9.887
	l-5.009-13.078L120.568,76.689z"/>
<path d="M171.979,78.006h-10.82l-4.355,11.973h-1.875l11.641-31.973l11.621,31.973h-1.855L171.979,78.006z M171.334,76.248
	l-4.766-13.105l-4.766,13.105H171.334z"/>
<path d="M86.792,130.051H72.777l-2.869,7.795h4.088c0.508,0,0.872,0.098,1.092,0.292c0.22,0.194,0.33,0.453,0.33,0.774
	c0,0.305-0.11,0.559-0.33,0.762c-0.22,0.203-0.584,0.305-1.092,0.305h-7.973c-0.508,0-0.872-0.102-1.092-0.305
	c-0.22-0.203-0.33-0.457-0.33-0.762c0-0.321,0.11-0.58,0.33-0.774c0.22-0.194,0.584-0.292,1.092-0.292h1.65l9.42-25.441h-6.297
	c-0.508,0-0.872-0.098-1.092-0.292c-0.22-0.194-0.33-0.453-0.33-0.774s0.11-0.58,0.33-0.774c0.22-0.194,0.584-0.292,1.092-0.292
	h10.74l10.41,27.574h1.65c0.508,0,0.872,0.098,1.092,0.292c0.22,0.194,0.33,0.453,0.33,0.774c0,0.305-0.11,0.559-0.33,0.762
	c-0.22,0.203-0.584,0.305-1.092,0.305H85.65c-0.525,0-0.897-0.102-1.117-0.305c-0.22-0.203-0.33-0.457-0.33-0.762
	c0-0.321,0.11-0.58,0.33-0.774c0.22-0.194,0.592-0.292,1.117-0.292h4.063L86.792,130.051z M85.98,127.918l-5.891-15.514h-0.787
	l-5.713,15.514H85.98z"/>
<path d="M129.336,129.338h-12.305l-2.156,5.016c-0.531,1.234-0.797,2.156-0.797,2.766c0,0.484,0.23,0.91,0.691,1.277
	s1.457,0.605,2.988,0.715v0.867H107.75v-0.867c1.328-0.234,2.188-0.539,2.578-0.914c0.797-0.75,1.68-2.273,2.648-4.57l11.18-26.156
	h0.82l11.063,26.438c0.891,2.125,1.699,3.504,2.426,4.137s1.738,0.988,3.035,1.066v0.867h-12.539v-0.867
	c1.266-0.063,2.121-0.273,2.566-0.633s0.668-0.797,0.668-1.313c0-0.688-0.313-1.773-0.938-3.258L129.336,129.338z M128.68,127.604
	l-5.391-12.844l-5.531,12.844H128.68z"/>
<path d="M173.748,139.979c-0.146,0-0.22-0.073-0.22-0.22v-1.165c0-0.16,0.073-0.241,0.22-0.241l3.516-0.352
	c0.088,0,0.146-0.029,0.176-0.088s0.029-0.132,0-0.22l-3.34-8.833c-0.059-0.088-0.117-0.132-0.176-0.132h-9.8
	c-0.073,0.015-0.132,0.059-0.176,0.132l-3.56,8.921c-0.073,0.19,0,0.293,0.22,0.308l3.384,0.264c0.146,0.015,0.22,0.096,0.22,0.241
	v1.165c0,0.146-0.073,0.22-0.22,0.22h-9.734c-0.146,0-0.219-0.073-0.219-0.22v-1.165c0-0.16,0.072-0.241,0.219-0.241l3.691-0.352
	c0.074-0.015,0.133-0.059,0.176-0.132l11.448-28.807c0.059-0.088,0.117-0.131,0.176-0.131h1.12c0.074,0.015,0.133,0.059,0.176,0.131
	l10.525,28.763c0.029,0.088,0.096,0.132,0.197,0.132l3.582,0.396c0.132,0,0.197,0.081,0.197,0.241v1.165
	c0,0.146-0.08,0.22-0.241,0.22H173.748z M169.375,115.765c-0.059-0.088-0.117-0.132-0.176-0.132c-0.088,0-0.146,0.044-0.176,0.132
	l-4.24,10.767c-0.088,0.205-0.021,0.308,0.197,0.308h8.131c0.234,0,0.314-0.103,0.241-0.308L169.375,115.765z"/>
<path d="M83.133,158.318c2.5,0,4.515,0.537,6.045,1.611c1.53,1.074,2.295,2.536,2.295,4.385v25.664h-3.34v-18.34h-15v18.34h-3.34
	v-25.664c0-1.849,0.765-3.311,2.295-4.385c1.53-1.074,3.545-1.611,6.045-1.611H83.133z M88.133,169.979v-4.746
	c0-0.352-0.007-0.657-0.02-0.918c-0.013-0.261-0.056-0.586-0.127-0.977c-0.072-0.391-0.173-0.726-0.303-1.006
	c-0.13-0.28-0.319-0.576-0.566-0.889c-0.248-0.313-0.541-0.569-0.879-0.771c-0.339-0.202-0.775-0.368-1.309-0.498
	c-0.534-0.13-1.133-0.195-1.797-0.195h-5c-0.664,0-1.263,0.065-1.797,0.195c-0.534,0.13-0.97,0.296-1.309,0.498
	c-0.339,0.202-0.632,0.459-0.879,0.771c-0.248,0.313-0.437,0.608-0.566,0.889c-0.13,0.28-0.231,0.615-0.303,1.006
	c-0.072,0.391-0.114,0.716-0.127,0.977c-0.013,0.261-0.02,0.566-0.02,0.918v4.746H88.133z"/>
<path d="M141.768,188.561c0,0.573-0.183,1.063-0.548,1.472s-0.842,0.612-1.429,0.612c-0.258,0-0.466-0.058-0.623-0.172
	c-0.201-0.158-0.423-0.369-0.666-0.634c-0.244-0.265-0.502-0.598-0.773-0.999c-0.53-0.816-1.014-1.672-1.45-2.567
	c-0.437-0.895-0.792-1.687-1.063-2.374c-0.072-0.2-0.146-0.383-0.226-0.548c-0.079-0.164-0.157-0.336-0.236-0.516
	c-0.079-0.179-0.161-0.372-0.247-0.58c-0.086-0.207-0.18-0.462-0.279-0.763c-0.416-1.231-0.717-2.041-0.902-2.428
	c-0.201,0.201-0.395,0.354-0.58,0.462c-0.187,0.107-0.383,0.187-0.591,0.236c-0.208,0.051-0.423,0.079-0.645,0.086
	c-0.222,0.008-0.462,0.011-0.72,0.011c-0.144,0-0.322,0.029-0.537,0.086c-0.215,0.058-0.447,0.122-0.698,0.193
	c-0.251,0.072-0.498,0.15-0.741,0.236c-0.244,0.086-0.473,0.158-0.688,0.215c-0.717,0.201-1.439,0.38-2.17,0.537
	c-0.73,0.158-1.482,0.312-2.256,0.462s-1.583,0.294-2.428,0.43c-0.845,0.137-1.74,0.283-2.686,0.44
	c-0.43,0.072-0.838,0.352-1.225,0.838c-0.373,0.502-1.146,1.576-2.32,3.223c-1.146,1.633-2.12,2.829-2.922,3.588
	c-0.788,0.759-1.554,1.139-2.299,1.139c-0.945,0-1.733-0.187-2.363-0.559c-0.716-0.459-1.074-0.945-1.074-1.461
	c0-0.271,0.154-0.469,0.462-0.591c0.308-0.121,0.727-0.232,1.257-0.333c0.172-0.014,0.565-0.365,1.182-1.053
	c0.587-0.658,1.031-1.203,1.332-1.633c0.602-0.787,1.214-1.629,1.837-2.524c0.623-0.895,1.321-1.901,2.095-3.019
	c0.372-0.572,0.702-1.066,0.988-1.482c0.286-0.415,0.522-0.766,0.709-1.053c0.2-0.286,0.426-0.608,0.677-0.967
	c0.25-0.357,0.541-0.759,0.87-1.203c0.143-0.2,0.315-0.443,0.516-0.73c0.2-0.286,0.437-0.608,0.709-0.967
	c0.272-0.372,0.519-0.701,0.741-0.988c0.222-0.286,0.412-0.544,0.569-0.773c0.172-0.229,0.39-0.516,0.655-0.859
	c0.265-0.344,0.576-0.752,0.935-1.225c0.114-0.143,0.34-0.479,0.677-1.01c0.336-0.529,0.791-1.26,1.364-2.191
	c0.802-1.332,1.325-2.306,1.568-2.922c1.676-4.067,2.936-6.102,3.781-6.102c0.372,0,0.673,0.032,0.902,0.097
	c0.229,0.064,0.408,0.172,0.537,0.322s0.215,0.352,0.258,0.602c0.043,0.251,0.064,0.556,0.064,0.913c0,0.244,0,0.459,0,0.645
	c0,0.187-0.008,0.337-0.021,0.451c-0.015,0.229-0.029,0.523-0.043,0.881c-0.015,0.358-0.036,0.781-0.064,1.268
	c0.716,1.504,1.396,3.123,2.041,4.855c0.329,0.874,0.677,1.83,1.042,2.868c0.365,1.039,0.755,2.181,1.171,3.427
	c0.415,1.232,0.78,2.285,1.096,3.158c0.314,0.874,0.572,1.583,0.773,2.127c0.2,0.545,0.44,1.168,0.72,1.869
	c0.279,0.702,0.612,1.497,0.999,2.385c0.143,0.33,0.68,1.125,1.611,2.385C141.309,187.114,141.768,188.017,141.768,188.561z
	 M132.25,175.863c-0.258-0.787-0.537-1.636-0.838-2.546c-0.301-0.909-0.612-1.818-0.935-2.729c-0.322-0.909-0.651-1.786-0.988-2.632
	c-0.337-0.845-0.67-1.597-0.999-2.256c-0.803,1.089-1.562,2.135-2.277,3.137c-0.716,1.003-1.407,2.009-2.073,3.019
	s-1.325,2.045-1.977,3.104c-0.652,1.061-1.314,2.191-1.987,3.395c0.157,0.058,0.301,0.086,0.43,0.086
	c0.215,0,0.49-0.018,0.827-0.054c0.336-0.035,0.68-0.078,1.031-0.129c0.351-0.05,0.688-0.104,1.01-0.161
	c0.322-0.057,0.583-0.107,0.784-0.15c0.344-0.086,0.641-0.157,0.892-0.215c0.25-0.057,0.49-0.114,0.72-0.172
	c0.229-0.057,0.477-0.118,0.741-0.183s0.583-0.14,0.956-0.226c0.83-0.215,1.654-0.433,2.471-0.655
	C130.854,176.275,131.591,176.064,132.25,175.863z"/>
<path d="M180.441,190.365c0,0.832-0.527,1.248-1.582,1.248c-0.41,0-0.691-0.029-0.844-0.088c-3.914-4.008-7.734-6.012-11.461-6.012
	c-0.82,0-2.543,0.328-5.168,0.984c-0.82,0.199-1.547,0.908-2.18,2.127c-0.152,0.281-0.563,1.266-1.23,2.953
	c-0.164,0.141-0.539,0.352-1.125,0.633c-0.375-0.363-0.563-0.861-0.563-1.494c0-2.262,0.551-4.605,1.652-7.031
	c0.281-0.445,0.691-1.131,1.23-2.057l3.182-6.979c2.59-5.602,5.045-10.371,7.365-14.309l0.018,0.545
	c0.551-0.258,0.967-0.955,1.248-2.092c0.258-1.02,0.645-1.529,1.16-1.529c0.047-0.035,0.111-0.053,0.193-0.053
	c0.34,0,0.609,0.275,0.809,0.826c0.035,0.141,0.199,0.832,0.492,2.074c1.066,4.512,2.174,9.75,3.322,15.715l1.055,5.484
	c0.258,0.504,0.592,1.254,1.002,2.25c0.188,0.621,0.463,1.758,0.826,3.41C180.242,188.777,180.441,189.908,180.441,190.365z
	 M177.031,187.307v-1.037c0-0.469-0.334-2.473-1.002-6.012l-1.723-9.123c-0.527-2.859-1.365-5.818-2.514-8.877
	c-1.5,1.582-3.521,5.361-6.064,11.338l-1.178,2.725c-0.281,0.398-0.527,0.771-0.738,1.116s-0.645,1.31-1.301,2.892
	c-0.691,1.652-1.037,2.59-1.037,2.813c0,0.363,0.094,0.545,0.281,0.545l4.939-0.211c0.211-0.012,0.422-0.018,0.633-0.018
	c1.711,0,3.328,0.311,4.852,0.932C173.305,184.857,174.922,185.83,177.031,187.307z"/>
</svg>
