<?xml version="1.0" encoding="utf-8"?>
<!-- Generator: Adobe Illustrator 16.0.2, SVG Export Plug-In . SVG Version: 6.00 Build 0)  -->
<!DOCTYPE svg PUBLIC "-//W3C//DTD SVG 1.1//EN" "http://www.w3.org/Graphics/SVG/1.1/DTD/svg11.dtd">
<svg version="1.1" xmlns="http://www.w3.org/2000/svg" xmlns:xlink="http://www.w3.org/1999/xlink" x="0px" y="0px" width="250px"
	 height="250px" viewBox="0 0 250 250" enable-background="new 0 0 250 250" xml:space="preserve">
<g id="bgr">
	<polygon fill="#79C753" points="1,63.347 107.147,38.781 247.891,62.844 249.08,110.598 171.158,211.219 1,110.598 	"/>
</g>
<g id="icon">
	<g>
		<g>
			<g>
				<g>
					<path d="M123.473,78.189l-24.22-15.065l50.673,3.313L123.473,78.189 M85.062,57.62l-2.08,0.626l48.979,32.469
						c1.568,1.029,2.987,2.014,4.248,2.948c1.283,0.952,2.4,1.851,3.347,2.696c0.961,0.857,1.741,1.658,2.338,2.396
						c0.604,0.748,1.019,1.433,1.238,2.051c0.118,0.306,0.126,0.664,0.022,1.073c-0.104,0.413-0.321,0.877-0.655,1.397
						c-0.335,0.522-0.788,1.102-1.362,1.736c-0.579,0.645-1.282,1.346-2.111,2.107l4.082,1.311l28.427-18.033l-3.786-0.961
						c-1.07,0.557-2.101,1.059-3.092,1.504c-0.999,0.447-1.954,0.836-2.865,1.164c-0.913,0.331-1.781,0.6-2.596,0.806
						c-0.819,0.207-1.587,0.351-2.299,0.429c-0.71,0.082-1.397,0.135-2.063,0.158c-0.667,0.023-1.31,0.02-1.929-0.012
						c-0.618-0.033-1.211-0.094-1.778-0.18c-0.566-0.087-1.107-0.201-1.62-0.343c-0.648-0.179-1.328-0.405-2.043-0.681
						c-0.709-0.273-1.449-0.594-2.221-0.961c-0.765-0.365-1.557-0.774-2.375-1.229c-0.813-0.449-1.648-0.943-2.51-1.478
						l-12.837-7.972l29.486-13.669l19.561,1.276c1.618,0.104,3.115,0.213,4.49,0.321c1.381,0.111,2.638,0.225,3.771,0.339
						c1.139,0.115,2.153,0.232,3.044,0.353c0.895,0.121,1.662,0.244,2.306,0.369c0.483,0.094,0.921,0.197,1.321,0.313
						c0.397,0.116,0.756,0.242,1.071,0.381c0.315,0.141,0.593,0.29,0.824,0.452c0.234,0.162,0.425,0.338,0.576,0.525
						c0.148,0.188,0.219,0.396,0.204,0.625c-0.012,0.23-0.105,0.484-0.283,0.759c-0.18,0.277-0.441,0.577-0.789,0.899
						c-0.352,0.324-0.789,0.674-1.313,1.046l3.472,0.713l19.979-12.674l-3.162-0.532c-0.528,0.271-1.099,0.517-1.708,0.736
						c-0.613,0.222-1.268,0.418-1.959,0.588c-0.696,0.171-1.432,0.315-2.206,0.434c-0.776,0.119-1.592,0.21-2.443,0.275
						c-0.853,0.063-1.883,0.103-3.091,0.116c-1.207,0.013-2.59,0.001-4.146-0.036c-1.555-0.036-3.282-0.097-5.177-0.184
						c-1.892-0.086-3.948-0.197-6.169-0.331L85.062,57.62"/>
				</g>
			</g>
		</g>
	</g>
	<polygon points="171.363,212.528 170.604,212.079 -0.45,110.95 0.568,109.228 170.863,209.909 248.893,109.195 250.474,110.419 
		249.86,111.21 	"/>
	<polygon points="171.346,184.789 -0.429,95.553 0.494,93.778 1.381,94.24 170.88,182.293 248.981,93.715 250.481,95.038 	"/>
	<polygon points="171.324,155.27 170.708,154.996 -0.399,79.171 0.411,77.343 170.902,152.895 249.094,77.248 250.484,78.686 	"/>
	<polygon points="171.394,128.387 170.59,128.088 0.397,64.752 1.443,61.941 170.833,124.977 248.124,62.183 250.017,64.511 	"/>
	<polygon points="247.702,63.83 107.134,39.8 1.948,63.491 1.509,61.54 107.081,37.762 107.276,37.795 248.04,61.858 	"/>
</g>
</svg>
