<?xml version="1.0" encoding="utf-8"?>
<!-- Generator: Adobe Illustrator 16.0.2, SVG Export Plug-In . SVG Version: 6.00 Build 0)  -->
<!DOCTYPE svg PUBLIC "-//W3C//DTD SVG 1.1//EN" "http://www.w3.org/Graphics/SVG/1.1/DTD/svg11.dtd">
<svg version="1.1" id="icon" xmlns="http://www.w3.org/2000/svg" xmlns:xlink="http://www.w3.org/1999/xlink" x="0px" y="0px"
	 width="240px" height="240px" viewBox="55 55 240 240" enable-background="new 55 55 240 240" xml:space="preserve">
<path fill="#415139" d="M266.094,219.317c-5.094,8.071-10.055,15.937-15.045,23.846c-7.137-4.418-14.262-8.776-21.309-13.256
	c-1.043-0.662-1.418-0.347-2.125,0.326c-6.623,6.297-14.066,11.396-22.42,15.135c-0.172,0.076-0.334,0.168-0.506,0.244
	c-1.447,0.651-3.537,0.945-4.156,2.06c-0.539,0.972,0.553,2.868,0.957,4.349c1.568,5.743,3.156,11.48,4.727,17.225
	c0.471,1.717,0.908,3.441,1.365,5.181c-9.072,2.505-18.082,4.993-27.105,7.485c-2.063-7.265-4.068-14.28-6.044-21.305
	c-0.682-2.423-1.336-4.855-1.895-7.31c-0.1-0.438,0.321-0.993,0.492-1.468c-7.331-0.119-14.854-1.263-22.174-3.586
	c-2.256-0.718-4.469-1.582-6.678-2.438c-0.916-0.354-1.396-0.401-2.049,0.646c-4.463,7.193-9.055,14.305-13.668,21.541
	c-7.94-4.981-15.805-9.918-23.804-14.939c4.991-7.984,9.945-15.912,14.58-23.328c-4.613-6.191-9.082-12.188-13.708-18.396
	c-8.868,2.445-18.241,5.033-27.784,7.668c-2.518-9.053-4.995-17.953-7.555-27.158c9.213-2.598,18.28-5.151,27.302-7.694
	c-1.409-11.62-0.162-22.799,3.34-33.741c0.316-0.986,0.137-1.384-0.712-1.908c-5.976-3.687-11.908-7.441-17.864-11.16
	c-0.996-0.623-1.216-1.053-0.44-2.256c4.75-7.371,9.344-14.842,14.122-22.49c6.485,4,12.867,7.935,19.314,11.912
	c8.278-9.178,17.814-16.48,29.539-21.209c-2.502-9.111-5.023-18.298-7.576-27.591c9.066-2.539,18.033-5.049,27.183-7.61
	c0.981,3.461,1.942,6.867,2.913,10.269c1.029,3.611,2.087,7.213,3.093,10.831c0.511,1.835,0.925,3.697,1.397,5.542
	c0.377,1.47,0.502,2.623,2.832,2.646c7.957,0.075,15.818,1.241,23.402,3.771c1.223,0.407,1.77,0.177,2.377-0.792
	c4.098-6.54,8.221-13.063,12.553-19.937c7.979,4.982,15.902,9.93,23.949,14.955c-2.514,4.016-4.992,7.962-7.457,11.916
	c-1.471,2.358-2.863,4.767-4.406,7.075c-0.777,1.164-0.383,1.951,0.467,2.692c7.717,6.753,13.709,14.799,18.201,24.007
	c0.217,0.447,1.521,0.715,2.182,0.538c6.945-1.862,13.859-3.838,20.785-5.771c1.826-0.508,3.662-0.978,5.701-1.518
	c2.469,9.057,4.922,18.055,7.422,27.223c-4.371,1.183-8.674,2.314-12.957,3.512c-4.771,1.33-9.52,2.746-14.293,4.066
	c-1.277,0.354-1.209,0.945-1.252,2.195c-0.186,5.423-0.643,10.841-1.188,16.244c-0.6,5.932-2.697,11.486-4.758,17.025
	c-0.395,1.063-0.242,1.465,0.67,2.037C252.676,210.776,259.281,214.995,266.094,219.317z M210.738,176.389
	c-0.262-18.579-15.289-34.753-35.219-35.274c-19.552-0.516-37.261,15.049-36.939,36.797c0.276,18.816,14.75,34.395,34.334,35.307
	C194.273,214.213,211.063,197.284,210.738,176.389z"/>
</svg>
