<?xml version="1.0" encoding="utf-8"?>
<!-- Generator: Adobe Illustrator 16.0.2, SVG Export Plug-In . SVG Version: 6.00 Build 0)  -->
<!DOCTYPE svg PUBLIC "-//W3C//DTD SVG 1.1//EN" "http://www.w3.org/Graphics/SVG/1.1/DTD/svg11.dtd">
<svg version="1.1" id="Layer_1" xmlns="http://www.w3.org/2000/svg" xmlns:xlink="http://www.w3.org/1999/xlink" x="0px" y="0px"
	 width="250px" height="250px" viewBox="0 0 250 250" enable-background="new 0 0 250 250" xml:space="preserve">
<g id="bgr">
	<path fill="#79C753" d="M166.027,91c0.801-30.166-14.102-52.813-41.077-52.813c-25.712,0-41.783,21.921-41.072,52.813H166.027z"/>
	<polygon fill="#79C753" points="116.991,185.986 111.914,212.236 137.387,212.236 131.823,185.986 	"/>
	<polygon fill="#79C753" points="163.828,131.564 168.034,131.564 168.034,191.318 160.883,210.646 184.354,210.646 
		179.794,191.318 179.794,131.564 183.173,131.564 183.173,90.775 166.828,90.775 83.167,90.775 66.823,90.775 66.823,131.564 
		70.203,131.564 70.203,191.318 65.646,210.646 89.111,210.646 81.964,191.318 81.964,131.564 86.167,131.564 86.197,181.214 
		164.152,181.214 	"/>
</g>
<g id="icon">
	<polygon points="185.617,211.646 159.445,211.646 167.034,191.141 167.034,132.564 164.828,132.564 164.828,130.564 
		169.034,130.564 169.034,191.497 162.318,209.646 183.09,209.646 178.794,191.318 178.794,130.564 182.173,130.564 182.173,91.775 
		166.828,91.775 166.828,89.775 184.173,89.775 184.173,132.564 180.794,132.564 180.794,191.202 	"/>
	<polygon points="90.547,211.646 64.383,211.646 69.203,191.202 69.203,132.564 65.823,132.564 65.823,89.775 83.167,89.775 
		83.167,91.775 67.823,91.775 67.823,130.564 71.203,130.564 71.176,191.548 66.91,209.646 87.675,209.646 80.964,191.497 
		80.964,130.564 85.167,130.564 85.167,132.564 82.964,132.564 82.964,191.141 	"/>
	<path d="M138.004,212.736h-26.696l5.271-27.25h15.649L138.004,212.736z M112.52,211.736h24.25l-5.352-25.25h-14.014L112.52,211.736
		z"/>
	<path d="M167.001,92h-84.1l-0.022-0.977c-0.406-17.624,4.598-32.678,14.089-42.391c7.317-7.488,16.994-11.446,27.982-11.446
		c11.235,0,21.011,3.938,28.268,11.39c9.376,9.628,14.28,24.704,13.81,42.45L167.001,92z M84.861,90h80.187
		c0.257-16.777-4.437-30.964-13.263-40.028c-6.871-7.056-16.15-10.785-26.835-10.785c-10.438,0-19.62,3.75-26.552,10.844
		C89.46,59.176,84.669,73.341,84.861,90z"/>
	<path d="M142.034,74.479h-33.238l4.156-21.95h24.747L142.034,74.479z M110.003,73.479h30.813l-3.939-19.95H113.78L110.003,73.479z"
		/>
	<path d="M165.152,182.214H85.197V90h79.956V182.214z M87.197,180.214h75.956V92H87.197V180.214z"/>
	<path d="M114.842,175.695h-13.767v-11.607h13.767V175.695z M102.075,174.695h11.767v-9.607h-11.767V174.695z"/>
	<path d="M108.067,114.9l-9.15-1.703v-5.923l9.15-1.702l2.411,1.618h5.848l0.566-1.589h26.186l2.882,1.589h5.567v6.092h-5.76
		l-2.683,1.59h-26.193l-0.566-1.59h-5.849L108.067,114.9z M117.598,113.871h25.214l2.684-1.59h5.033v-4.092h-4.826l-2.883-1.589
		h-25.222l-0.566,1.589h-6.857l-2.325-1.56l-7.932,1.476v4.261l7.932,1.477l2.324-1.561h6.858L117.598,113.871z"/>
	<path d="M142.377,126.768l-2.409-1.618h-5.85l-0.566,1.588H107.36l-2.684-1.588h-5.759v-6.092h5.568l2.882-1.59h26.185l0.566,1.59
		h5.849l2.41-1.619l9.15,1.703v5.923L142.377,126.768z M107.633,125.738h25.215l0.565-1.589h6.858l2.324,1.56l7.932-1.476v-4.261
		l-7.932-1.477l-2.324,1.561h-6.858l-0.565-1.59h-25.223l-2.882,1.59h-4.826v4.092h5.032L107.633,125.738z"/>
	<path d="M151.527,102.386h-52.61v-7.683h52.61V102.386z M99.917,101.386h50.61v-5.683h-50.61V101.386z"/>
	<path d="M123.686,49.94H95.47l10.02-7.834h18.196V49.94z M98.372,48.94h24.313v-5.834h-16.851L98.372,48.94z"/>
	<path d="M154.835,49.94h-28.216v-7.834h18.195L154.835,49.94z M127.619,48.94h24.313l-7.461-5.834h-16.853L127.619,48.94
		L127.619,48.94z"/>
	<path d="M125.311,54.173c-4.769,0-8.632,3.865-8.632,8.63c0,4.769,3.863,8.634,8.632,8.634c4.764,0,8.632-3.865,8.632-8.634
		C133.943,58.038,130.074,54.173,125.311,54.173z"/>
	<path d="M145.271,81.645c0,1.71-1.392,3.098-3.103,3.098c-1.714,0-3.101-1.388-3.101-3.098c0-1.716,1.387-3.105,3.101-3.105
		C143.881,78.539,145.271,79.929,145.271,81.645z"/>
</g>
</svg>
