<?xml version="1.0" encoding="utf-8"?>
<!-- Generator: Adobe Illustrator 16.0.2, SVG Export Plug-In . SVG Version: 6.00 Build 0)  -->
<!DOCTYPE svg PUBLIC "-//W3C//DTD SVG 1.1//EN" "http://www.w3.org/Graphics/SVG/1.1/DTD/svg11.dtd">
<svg version="1.1" id="icon" xmlns="http://www.w3.org/2000/svg" xmlns:xlink="http://www.w3.org/1999/xlink" x="0px" y="0px"
	 width="350px" height="350px" viewBox="0 0 350 350" enable-background="new 0 0 350 350" xml:space="preserve">
<g>
	<path fill-rule="evenodd" clip-rule="evenodd" fill="#415139" d="M325.403,277.805c-5.092,8.071-10.054,15.936-15.045,23.846
		c-7.135-4.418-14.26-8.777-21.308-13.256c-1.042-0.662-1.418-0.347-2.125,0.326c-6.623,6.297-14.066,11.395-22.42,15.135
		c-0.172,0.076-0.334,0.168-0.505,0.244c-1.448,0.651-3.538,0.945-4.156,2.059c-0.54,0.972,0.553,2.869,0.957,4.349
		c1.568,5.743,3.155,11.481,4.726,17.224c0.47,1.717,0.908,3.442,1.366,5.181c-9.073,2.505-18.083,4.993-27.106,7.485
		c-2.063-7.264-4.068-14.28-6.045-21.304c-0.681-2.423-1.335-4.856-1.894-7.31c-0.1-0.438,0.321-0.993,0.492-1.468
		c-7.331-0.118-14.854-1.262-22.174-3.586c-2.256-0.717-4.469-1.582-6.678-2.438c-0.916-0.354-1.396-0.402-2.048,0.646
		c-4.464,7.193-9.055,14.304-13.668,21.541c-7.941-4.982-15.805-9.919-23.804-14.94c4.991-7.984,9.945-15.912,14.58-23.328
		c-4.613-6.191-9.082-12.188-13.708-18.397c-8.868,2.446-18.241,5.034-27.784,7.668c-2.518-9.052-4.995-17.953-7.555-27.157
		c9.213-2.598,18.28-5.152,27.302-7.695c-1.409-11.62-0.162-22.799,3.34-33.741c0.316-0.987,0.137-1.384-0.712-1.908
		c-5.976-3.687-11.908-7.442-17.864-11.161c-0.996-0.623-1.216-1.053-0.44-2.255c4.75-7.372,9.344-14.842,14.122-22.49
		c6.485,4,12.867,7.935,19.314,11.911c8.278-9.178,17.814-16.48,29.539-21.209c-2.502-9.111-5.024-18.298-7.577-27.591
		c9.067-2.539,18.034-5.049,27.183-7.61c0.981,3.461,1.942,6.867,2.913,10.269c1.029,3.611,2.087,7.213,3.093,10.831
		c0.511,1.835,0.925,3.697,1.397,5.542c0.377,1.47,0.502,2.623,2.832,2.646c7.957,0.075,15.818,1.241,23.403,3.771
		c1.222,0.407,1.769,0.177,2.376-0.792c4.098-6.54,8.221-13.063,12.554-19.937c7.978,4.982,15.901,9.93,23.949,14.955
		c-2.515,4.016-4.992,7.962-7.458,11.916c-1.471,2.358-2.863,4.767-4.406,7.075c-0.778,1.164-0.382,1.951,0.467,2.692
		c7.716,6.753,13.708,14.799,18.2,24.007c0.217,0.447,1.523,0.715,2.183,0.538c6.944-1.862,13.859-3.838,20.785-5.771
		c1.825-0.508,3.661-0.977,5.701-1.517c2.468,9.057,4.921,18.054,7.422,27.222c-4.372,1.183-8.674,2.315-12.957,3.512
		c-4.771,1.331-9.52,2.747-14.294,4.067c-1.276,0.354-1.209,0.945-1.251,2.195c-0.185,5.423-0.642,10.841-1.188,16.244
		c-0.6,5.932-2.698,11.487-4.757,17.025c-0.396,1.063-0.243,1.466,0.67,2.037C311.986,269.263,318.592,273.482,325.403,277.805z
		 M270.048,234.876c-0.261-18.579-15.288-34.753-35.218-35.275c-19.552-0.515-37.261,15.05-36.939,36.798
		c0.276,18.816,14.749,34.394,34.333,35.306C253.583,272.7,270.373,255.772,270.048,234.876z"/>
	<path fill-rule="evenodd" clip-rule="evenodd" fill="#415139" d="M99.348,48.559c-3.831-5.873-7.536-11.552-11.329-17.368
		c6.141-4.065,12.2-8.076,18.451-12.214c3.935,5.932,7.753,11.688,11.554,17.417c5.624-2.068,11.163-3.702,16.987-4.082
		c1.177-0.076,1.688-0.374,1.884-1.658c1.009-6.613,2.147-13.206,3.245-19.804c0.101-0.606,0.228-1.208,0.387-2.042
		c3.057,0.425,6.112,0.822,9.159,1.283c3.612,0.545,7.21,1.191,10.827,1.695c1.368,0.191,1.857,0.518,1.582,2.106
		c-1.135,6.525-2.078,13.084-3.08,19.632c-0.054,0.354-0.007,0.722-0.007,1.096c8.576,2.727,16.261,6.979,22.832,13.166
		c0.754,0.71,1.402,0.759,2.412,0.074c4.974-3.372,10.048-6.595,15.2-9.945c3.215,4.888,6.347,9.646,9.471,14.409
		c0.363,0.554,0.667,1.146,1.026,1.703c1.62,2.508,1.617,2.495-0.921,4.159c-4.31,2.825-8.607,5.666-12.92,8.506
		c1.069,3.12,2.19,6.146,3.142,9.224c1.516,4.905,2.205,9.962,2.313,15.083c0.026,1.249,0.424,1.734,1.622,1.922
		c6.227,0.976,12.443,2.012,18.663,3.031c0.178,0.029,0.347,0.108,0.72,0.227c-1.184,7.219-2.367,14.443-3.579,21.832
		c-6.549-1.084-13.009-2.154-19.468-3.221c-1.281-0.212-2.179-0.151-2.828,1.418c-2.582,6.241-6.211,11.866-10.704,16.919
		c-0.616,0.692-1.295,1.327-1.919,2.01c-1.915,2.099-1.91,2.104-0.359,4.48c3.451,5.286,6.903,10.571,10.457,16.014
		c-6.215,4.083-12.341,8.11-18.506,12.161c-4.018-6.118-7.987-12.184-12.009-18.215c-0.204-0.306-0.958-0.544-1.302-0.413
		c-6.882,2.635-14.059,3.678-21.365,3.989c-1.595,0.068-3.201-0.153-4.942-0.248c-0.626,3.649-1.259,7.263-1.862,10.882
		c-0.524,3.144-0.965,6.303-1.569,9.431c-0.094,0.488-0.929,1.261-1.315,1.202c-6.727-1.021-13.435-2.151-20.147-3.263
		c-0.165-0.026-0.319-0.123-0.491-0.192c1.278-7.985,2.547-15.919,3.816-23.852c-2.725-1.688-5.681-3.221-8.287-5.211
		c-3.194-2.438-6.119-5.234-9.109-7.933c-0.93-0.839-1.511-1.156-2.793-0.278c-5.248,3.594-10.639,6.98-16.18,10.574
		c-3.985-6.056-8.001-12.155-12.11-18.399c2.623-1.75,5.159-3.448,7.701-5.138c3.162-2.103,6.352-4.166,9.467-6.336
		c0.441-0.307,0.882-1.238,0.731-1.678c-1.988-5.802-2.902-11.792-3.364-17.873c-0.014-0.184-0.07-0.364-0.146-0.744
		c-6.926-1.123-13.938-2.258-21.205-3.436c1.177-7.372,2.335-14.627,3.479-21.791c5.33,0.807,10.453,1.577,15.573,2.362
		c1.387,0.213,2.774,0.435,4.147,0.722c1.172,0.245,1.824-0.164,2.233-1.29c2.35-6.484,6.035-12.189,10.399-17.473
		C96.338,51.588,97.858,50.141,99.348,48.559z M168.943,94.06c-0.255-16.171-14.166-28.786-30.142-27.785
		c-14.466,0.906-27.709,13.576-26.357,30.651c1.13,14.266,12.88,26.174,28.561,25.876C157.41,122.491,169.017,109.496,168.943,94.06
		z"/>
	<path fill-rule="evenodd" clip-rule="evenodd" fill="#415139" d="M76.043,170.397c0.969,6.31,1.901,12.382,2.762,17.994
		c5.66,1.63,10.978,3.161,16.436,4.734c2.926-3.558,6.118-7.442,9.478-11.528c4.545,3.686,9.007,7.302,13.524,10.964
		c-3.154,3.954-6.176,7.738-9.196,11.524c4.182,4.904,7.694,10.035,9.582,16.133c0.426,1.377,1.282,1.27,2.585,1.043
		c4.561-0.788,9.168-1.305,13.757-1.938c0.482-0.065,0.954-0.218,1.728-0.401c0.175,0.604,0.421,1.196,0.514,1.813
		c0.729,4.839,1.451,9.678,2.091,14.529c0.048,0.368-0.506,1.133-0.865,1.191c-5.283,0.848-10.585,1.575-15.866,2.438
		c-0.479,0.079-1.153,0.858-1.205,1.366c-0.704,6.885-2.661,13.357-5.962,19.446c-0.226,0.418,0.194,1.524,0.651,1.917
		c3.445,2.963,6.974,5.825,10.684,8.891c-3.611,4.432-7.219,8.855-10.974,13.464c-4.226-3.416-8.346-6.747-12.583-10.174
		c-5.559,4.181-11.746,7.28-18.795,8.938c0.459,3.237,0.901,6.398,1.358,9.558c0.292,2.008,0.597,4.015,0.913,6.021
		c0.198,1.25-0.3,1.692-1.576,1.855c-5.001,0.637-9.985,1.405-15.28,2.17c-0.396-2.42-0.839-4.926-1.21-7.441
		c-0.526-3.569-0.955-7.152-1.549-10.708c-0.077-0.457-0.855-1.063-1.376-1.14c-5.363-0.784-10.34-2.66-15.034-5.289
		c-0.992-0.556-1.394-0.434-2.068,0.418c-3.072,3.88-6.233,7.69-9.562,11.771c-4.486-3.646-8.92-7.25-13.451-10.934
		c2.66-3.301,5.229-6.49,7.8-9.68c0.189-0.235,0.387-0.464,0.566-0.706c2.294-3.117,2.224-3.076,0.297-6.328
		c-1.521-2.566-2.909-5.22-4.217-7.902c-0.416-0.852-0.742-0.98-1.638-0.832c-4.605,0.761-9.229,1.416-13.846,2.106
		c-0.949,0.142-1.9,0.275-2.88,0.417c-0.853-5.778-1.681-11.384-2.517-17.05c5.404-0.86,10.52-1.728,15.656-2.458
		c1.248-0.176,1.557-0.526,1.592-1.82c0.166-6.131,1.531-12.035,4.088-17.605c0.779-1.699,0.246-2.479-1.054-3.457
		c-2.897-2.181-5.682-4.512-8.499-6.8c-0.327-0.266-0.565-0.641-0.929-1.065c3.585-4.436,7.124-8.814,10.813-13.378
		c3.563,2.854,7.079,5.666,10.785,8.634c1.634-1.247,3.191-2.791,5.043-3.776c4.278-2.276,8.676-4.337,13.081-6.361
		c1.098-0.505,1.548-0.76,1.302-2.2c-0.833-4.875-1.392-9.799-1.987-14.712c-0.048-0.4,0.375-1.202,0.668-1.248
		C65.068,171.955,70.471,171.197,76.043,170.397z M73.581,260.114c11.264,0.233,22.685-8.346,22.68-22.341
		c-0.004-11.377-8.294-21.146-20.707-22.034c-12.665-0.906-23.502,8.588-23.733,22.217
		C51.639,248.799,60.343,259.792,73.581,260.114z"/>
</g>
</svg>
