<?xml version="1.0" encoding="utf-8"?>
<!-- Generator: Adobe Illustrator 16.0.2, SVG Export Plug-In . SVG Version: 6.00 Build 0)  -->
<!DOCTYPE svg PUBLIC "-//W3C//DTD SVG 1.1//EN" "http://www.w3.org/Graphics/SVG/1.1/DTD/svg11.dtd">
<svg version="1.1" id="Layer_1" xmlns="http://www.w3.org/2000/svg" xmlns:xlink="http://www.w3.org/1999/xlink" x="0px" y="0px"
	 width="120px" height="120px" viewBox="0 0 120 120" enable-background="new 0 0 120 120" xml:space="preserve">
<g id="bgr">
	<path fill="#79C753" d="M92.777,52.289c0.161,0,0.302,0,0.44,0c4.562,0,9.121,0.004,13.682-0.01
		c0.369-0.001,0.497,0.083,0.571,0.464c0.372,1.875,0.573,3.769,0.677,5.674c0.005,0.081,0,0.164,0,0.271
		c-23.998,0-47.979,0-72.014,0c0.055-0.76,0.092-1.51,0.168-2.258c0.267-2.682,0.818-5.303,1.677-7.858
		c1.44-4.287,3.603-8.175,6.512-11.636c4.521-5.381,10.13-9.152,16.831-11.28c3.909-1.243,7.924-1.774,12.025-1.634
		c4.881,0.17,9.527,1.306,13.961,3.341c0.23,0.106,0.318,0.221,0.316,0.479c-0.016,1.27-0.008,2.539-0.008,3.848
		c-0.859,0-1.693,0-2.554,0c0,0.873,0,1.707,0,2.586c1.688,0,3.383,0,5.099,0c0,0.877,0,1.709,0,2.576c-0.85,0-1.671,0-2.52,0
		c0,0.858,0,1.683,0,2.557c1.688,0,3.38,0,5.113,0c0,0.884,0,1.717,0,2.583c0.873,0,1.707,0,2.563,0c0,0.866,0,1.7,0,2.575
		c-2.554,0-5.104,0-7.676,0c0,0.871,0,1.701,0,2.57c3.423,0,6.824,0,10.253,0c0,0.868,0,1.699,0,2.571c-1.705,0-3.401,0-5.119,0
		C92.777,50.583,92.777,51.415,92.777,52.289z"/>
	<path fill="#79C753" d="M100.478,70.288c0,0.878,0,1.701,0,2.564c-3.423,0-6.826,0-10.279,0c0,0.869,0,1.701,0,2.566
		c-1.736,0-3.422,0-5.134,0c0,0.869,0,1.702,0,2.572c2.544,0,5.093,0,7.683,0c0,0.869,0,1.701,0,2.579c1.734,0,3.43,0,5.151,0
		c0,0.864,0,1.688,0,2.563c-0.844,0-1.685,0-2.55,0c0,0.877,0,1.701,0,2.565c-2.575,0-5.123,0-7.715,0c0,0.871,0,1.704,0,2.575
		c-0.875,0-1.709,0-2.58,0c0,0.869,0,1.703,0,2.578c-2.588,0-5.139,0-7.717,0c0,0.873,0,1.705,0,2.57c0.834,0,1.655,0,2.533,0
		c0,0.555,0.01,1.077-0.009,1.6c-0.002,0.063-0.131,0.16-0.216,0.178c-3.378,0.697-6.784,0.963-10.23,0.695
		c-3.113-0.241-6.146-0.859-9.094-1.883c-4.544-1.578-8.607-3.976-12.189-7.183c-3.735-3.338-6.65-7.29-8.746-11.841
		c-1.373-2.989-2.334-6.11-2.809-9.369c-0.188-1.305-0.281-2.622-0.416-3.934c-0.013-0.116-0.003-0.235-0.003-0.377
		c23.992,0,47.979,0,71.959,0c0.113,0.957-0.438,5.479-0.782,6.396c-3.973,0-7.955,0-11.965,0c0,0.864,0,1.707,0,2.579
		C97.067,70.288,98.755,70.288,100.478,70.288z"/>
</g>
<g id="icon">
	<g>
		<path d="M72.068,96.479c-0.897,0-1.803-0.034-2.69-0.104c-3.174-0.246-6.273-0.887-9.215-1.906
			c-4.578-1.591-8.734-4.039-12.354-7.279c-3.766-3.363-6.745-7.4-8.859-11.996c-1.424-3.096-2.382-6.292-2.848-9.501
			c-0.135-0.927-0.221-1.867-0.307-2.778c-0.035-0.393-0.071-0.783-0.111-1.175c-0.012-0.099-0.01-0.199-0.008-0.31l0.003-0.597
			h72.866l0.05,0.423c0.124,1.047-0.438,5.625-0.812,6.621l-0.117,0.311H95.851v1.619h5.107v3.526H90.679v2.565h-5.135v1.613h7.684
			v2.578h5.152v3.523h-2.551v2.564h-7.714v2.576h-2.579v2.578h-7.719v1.61h2.534l0.001,0.893c0.002,0.41,0.003,0.808-0.012,1.202
			c-0.01,0.354-0.365,0.588-0.604,0.633C77.146,96.208,74.564,96.479,72.068,96.479z M36.654,61.794
			c0.034,0.346,0.065,0.688,0.099,1.031c0.082,0.898,0.17,1.828,0.299,2.73c0.453,3.117,1.386,6.225,2.771,9.235
			c2.06,4.478,4.962,8.407,8.628,11.685c3.523,3.154,7.57,5.537,12.028,7.088c2.862,0.99,5.882,1.615,8.974,1.854
			c3.219,0.25,6.549,0.03,9.938-0.653c0.005-0.283,0.004-0.568,0.003-0.859h-2.536v-3.529h7.718v-2.578h2.58v-2.576h7.714v-2.565
			h2.551v-1.604h-5.151v-2.578h-7.685V74.94h5.135v-2.565h10.279v-1.606H94.89v-3.539h12.087c0.278-1.144,0.651-4.162,0.677-5.435
			L36.654,61.794L36.654,61.794z"/>
		<path d="M108.628,59.167H35.62l0.082-1.184c0.034-0.538,0.069-1.071,0.122-1.604c0.271-2.73,0.843-5.408,1.699-7.963
			c1.462-4.354,3.683-8.32,6.601-11.791c4.572-5.441,10.311-9.287,17.053-11.429c3.91-1.242,8.017-1.8,12.188-1.655
			c4.862,0.168,9.62,1.307,14.146,3.383c0.408,0.188,0.599,0.479,0.596,0.918c-0.012,0.941-0.01,1.879-0.008,2.834l0.001,1.49
			h-2.554v1.626h5.098v3.536h-2.52v1.596h5.113v2.584H95.8v3.534h-7.676v1.61h10.254v3.531h-5.121v1.621h5.142
			c2.833,0,5.666,0,8.5-0.01c0.608,0,0.929,0.264,1.044,0.852c0.346,1.74,0.568,3.617,0.686,5.74
			c0.004,0.063,0.002,0.127,0.002,0.201L108.628,59.167z M36.648,58.208h71.006c-0.114-1.981-0.33-3.739-0.653-5.371
			c-0.008-0.03-0.013-0.057-0.018-0.075c-0.021,0-0.045-0.002-0.077-0.002c-2.84,0.01-5.673,0.01-8.508,0.01h-6.103v-3.541h5.119
			v-1.611H87.161v-3.53h7.678v-1.614h-2.563v-2.584h-5.114v-3.516h2.521v-1.615h-5.099V31.21h2.553v-0.529
			c-0.002-0.959-0.002-1.901,0.009-2.845c0-0.007,0-0.013,0-0.018c-0.011-0.005-0.021-0.011-0.036-0.019
			c-4.408-2.023-9.044-3.133-13.777-3.295c-4.062-0.142-8.058,0.4-11.865,1.609c-6.564,2.085-12.152,5.83-16.607,11.132
			c-2.839,3.378-5,7.24-6.424,11.479c-0.834,2.484-1.391,5.094-1.654,7.752c-0.053,0.521-0.087,1.043-0.121,1.57L36.648,58.208z"/>
		<path d="M59.268,52.527L59.268,52.527h-0.004c-2.817-0.002-5.472-1.11-7.472-3.12c-1.992-2-3.082-4.64-3.07-7.433
			c0.025-5.795,4.752-10.508,10.535-10.508c2.832,0.002,5.486,1.109,7.483,3.117c1.988,1.998,3.076,4.639,3.065,7.434
			C69.781,47.812,65.052,52.527,59.268,52.527z M59.268,31.947c-5.531,0-10.042,4.499-10.065,10.029
			c-0.012,2.664,1.029,5.183,2.93,7.092c1.912,1.92,4.443,2.978,7.133,2.979l0.004,0.24v-0.24c5.521,0,10.033-4.498,10.059-10.029
			c0.01-2.668-1.027-5.188-2.926-7.094C64.493,33.007,61.96,31.949,59.268,31.947z"/>
		<path d="M55.259,51.724c-2.9-1.983-4.623-5.242-4.61-8.713c0.024-5.797,4.75-10.508,10.536-10.508c0.004,0,0.007,0,0.011,0
			c1.423,0.001,2.804,0.283,4.104,0.836l-0.188,0.441c-1.241-0.528-2.562-0.797-3.918-0.799c-0.003,0-0.008,0-0.01,0
			c-5.522,0-10.032,4.498-10.056,10.031c-0.014,3.313,1.631,6.42,4.399,8.313L55.259,51.724z"/>
		<path d="M61.191,46.628c1.981,0,3.592-1.605,3.601-3.588c0.008-1.979-1.61-3.602-3.599-3.604
			c-1.978-0.002-3.593,1.608-3.603,3.588C57.585,45.001,59.208,46.627,61.191,46.628z"/>
	</g>
	<g>
		<polygon points="26.094,56.134 25.633,55.292 20.732,57.971 15.838,55.296 15.378,56.14 19.73,58.519 15.387,60.894 
			15.848,61.737 20.732,59.066 25.624,61.739 26.085,60.896 21.734,58.518 		"/>
		<polygon points="30.317,51.148 27.973,49.867 30.311,48.589 29.851,47.747 26.972,49.32 24.078,47.74 23.618,48.582 
			25.971,49.867 23.61,51.158 24.071,52 26.972,50.414 29.858,51.991 		"/>
		<polygon points="19.521,49.631 19.061,48.789 15.439,50.766 11.831,48.793 11.37,49.636 14.438,51.313 11.379,52.982 
			11.839,53.824 15.438,51.859 19.051,53.833 19.511,52.991 16.44,51.313 		"/>
	</g>
</g>
</svg>
